<?xml version="1.0" encoding="UTF-8"?>
<svg width="16px" height="16px" viewBox="0 0 16 16" version="1.1" xmlns="http://www.w3.org/2000/svg" xmlns:xlink="http://www.w3.org/1999/xlink">
    <title>icon/action/perm_identity_24px</title>
    <defs>
        <path d="M8,8 C10.21,8 12,6.21 12,4 C12,1.79 10.21,0 8,0 C5.79,0 4,1.79 4,4 C4,6.21 5.79,8 8,8 Z M8,2 C9.1,2 10,2.9 10,4 C10,5.1 9.1,6 8,6 C6.9,6 6,5.1 6,4 C6,2.9 6.9,2 8,2 Z M8,9 C5.33,9 0,10.34 0,13 L0,15 C0,15.55 0.45,16 1,16 L15,16 C15.55,16 16,15.55 16,15 L16,13 C16,10.34 10.67,9 8,9 Z M14,14 L2,14 L2,13.01 C2.2,12.29 5.3,11 8,11 C10.7,11 13.8,12.29 14,13 L14,14 Z" id="path-1"></path>
    </defs>
    <g id="Symbols" stroke="none" stroke-width="1" fill="none" fill-rule="evenodd">
        <mask id="mask-2" fill="white">
            <use xlink:href="#path-1"></use>
        </mask>
        <use id="icon/action/perm_identity_24px" fill="#104D4D" fill-rule="nonzero" xlink:href="#path-1"></use>
    </g>
</svg>