<?xml version="1.0" encoding="UTF-8"?>
<svg width="360px" height="60px" viewBox="0 0 360 60" version="1.1" xmlns="http://www.w3.org/2000/svg" xmlns:xlink="http://www.w3.org/1999/xlink">
    <title>list/search-results-default</title>
    <g id="list/search-results-default" stroke="none" stroke-width="1" fill="none" fill-rule="evenodd">
        <rect id="Background" fill-opacity="0" fill="#000000" fill-rule="nonzero" x="0" y="0" width="360" height="60"></rect>
        <g id="icon-list-automobile" transform="translate(12.000000, 18.000000)" fill="#005596">
            <path d="M4.03679676,9.36820924 L5.42903437,5.3396597 C5.93843544,4.28743522 6.71970777,3.63355485 7.63612569,3.30704224 L16.3630868,3.30704224 C17.2803047,3.63355485 18.0272156,4.28743522 18.5701781,5.3396597 L19.9624157,9.36820924 L21.7624902,9.36820924 C21.8984338,9.36820924 22,9.47677099 22,9.62207798 L22,10.4204337 C22,10.5657407 21.8984338,10.711052 21.7624902,10.711052 L20.7101066,10.711052 C21.0155793,11.1102298 21.3210719,11.5820516 21.6273246,12.1991824 C21.6273246,14.6309777 21.66092,17.0627731 21.66092,19.5313393 C21.66092,20.1484701 21.1859003,20.6929578 20.574155,20.6929578 L19.8272441,20.6929578 C19.2162788,20.6929578 18.7404791,20.1484701 18.7404791,19.5313393 L18.7404791,18.0432088 L5.25952135,18.0432088 L5.25952135,19.5313393 C5.25952135,20.1484701 4.7845017,20.6929578 4.17275639,20.6929578 L3.42584508,20.6929578 C2.8148798,20.6929578 2.33908012,20.1484701 2.33908012,19.5313393 C2.33908012,17.0627731 2.37267551,14.6309777 2.37267551,12.1991824 C2.67814815,11.5820516 2.98364079,11.1102084 3.28989346,10.711052 L2.23750991,10.711052 C2.10156621,10.711052 2,10.565745 2,10.4204337 L2,9.62207798 C2,9.47677099 2.10156621,9.36820924 2.23750991,9.36820924 L4.03758479,9.36820924 L4.03679676,9.36820924 Z M7.8057527,4.9037537 C7.22838881,5.01231546 6.85493336,5.41149119 6.65102493,5.92006243 C6.24318805,7.11759603 5.80176979,8.49723101 5.42831434,9.69463634 L18.5694581,9.69463634 C18.1960026,8.49710274 17.7202029,7.11746776 17.3467475,5.92006243 C17.1092376,5.41232495 16.7693836,5.01231332 16.1920197,4.9037537 L7.80487467,4.9037537 L7.8057527,4.9037537 Z M18.1967826,12.3085972 C17.5178545,12.3085972 16.974072,12.8889785 16.974072,13.6155242 C16.974072,14.3412146 17.5170545,14.9224511 18.1967826,14.9224511 C18.8421293,14.9224511 19.3851118,14.3420698 19.3851118,13.6155242 C19.3851118,12.8898337 18.8421293,12.3085972 18.1967826,12.3085972 Z M5.80246982,12.3085972 C6.48139791,12.3085972 7.02518041,12.8889785 7.02518041,13.6155242 C7.02518041,14.3412146 6.48219794,14.9224511 5.80246982,14.9224511 C5.15712311,14.9224511 4.61414065,14.3420698 4.61414065,13.6155242 C4.61414065,12.8898337 5.15712311,12.3085972 5.80246982,12.3085972 Z" id="Fill-1"></path>
        </g>
        <text id="Tour" font-family="Roboto-Bold, Roboto" font-size="14" font-weight="bold" line-spacing="24" fill="#616161">
            <tspan x="48" y="24">Tour</tspan>
        </text>
        <text id="isme" font-family="Roboto-Regular, Roboto" font-size="14" font-weight="normal" line-spacing="24" fill="#616161">
            <tspan x="76.0345302" y="24">isme</tspan>
        </text>
        <text id="catégorie" font-family="Roboto-Bold, Roboto" font-size="12" font-weight="bold" line-spacing="24" fill="#9E9E9E">
            <tspan x="48" y="41.02">catégorie</tspan>
        </text>
    </g>
</svg>