<?xml version="1.0" encoding="UTF-8"?>
<svg width="28px" height="28px" viewBox="0 0 28 28" version="1.1" xmlns="http://www.w3.org/2000/svg" xmlns:xlink="http://www.w3.org/1999/xlink">
    <title>icon-list/icon-list-automobile</title>
    <g id="icon-list/icon-list-automobile" stroke="none" stroke-width="1" fill="none" fill-rule="evenodd">
        <path d="M4.44415611,10.7627097 L6.11484124,5.80730661 C6.72612253,4.5129955 7.66364932,3.70867603 8.76335082,3.30704224 L19.2357041,3.30704224 C20.3363657,3.70867603 21.2326587,4.5129955 21.8842137,5.80730661 L23.5548988,10.7627097 L25.7149882,10.7627097 C25.8781206,10.7627097 26,10.8962484 26,11.0749864 L26,12.0570209 C26,12.2357588 25.8781206,12.414502 25.7149882,12.414502 L24.452128,12.414502 C24.8186951,12.9055193 25.1852863,13.4858936 25.5527895,14.2450086 C25.5527895,17.2362902 25.593104,20.2275718 25.593104,23.2640842 C25.593104,24.0231992 25.0230804,24.6929578 24.288986,24.6929578 L23.3926929,24.6929578 C22.6595346,24.6929578 22.088575,24.0231992 22.088575,23.2640842 L22.088575,21.4335776 L5.91142562,21.4335776 L5.91142562,23.2640842 C5.91142562,24.0231992 5.34140204,24.6929578 4.60730766,24.6929578 L3.7110141,24.6929578 C2.97785576,24.6929578 2.40689614,24.0231992 2.40689614,23.2640842 C2.40689614,20.2275718 2.44721061,17.2362902 2.44721061,14.2450086 C2.81377777,13.4858936 3.18036894,12.905493 3.54787215,12.414502 L2.2850119,12.414502 C2.12187945,12.414502 2,12.2357641 2,12.0570209 L2,11.0749864 C2,10.8962484 2.12187945,10.7627097 2.2850119,10.7627097 L4.44510175,10.7627097 L4.44415611,10.7627097 Z M8.96690324,5.27111117 C8.27406658,5.40464987 7.82592004,5.89566447 7.58122991,6.52124335 C7.09182566,7.99429505 6.56212375,9.69134443 6.1139772,11.1642383 L21.8833497,11.1642383 C21.4352031,9.69118665 20.8642435,7.99413727 20.416097,6.52124335 C20.1310852,5.89669005 19.7232603,5.40464724 19.0304236,5.27111117 L8.9658496,5.27111117 L8.96690324,5.27111117 Z M21.4361392,14.3795965 C20.6214255,14.3795965 19.9688865,15.093507 19.9688865,15.9872099 C19.9688865,16.8798609 20.6204654,17.5948232 21.4361392,17.5948232 C22.2105552,17.5948232 22.8621342,16.8809128 22.8621342,15.9872099 C22.8621342,15.0945589 22.2105552,14.3795965 21.4361392,14.3795965 Z M6.56296378,14.3795965 C7.37767749,14.3795965 8.03021649,15.093507 8.03021649,15.9872099 C8.03021649,16.8798609 7.37863753,17.5948232 6.56296378,17.5948232 C5.78854774,17.5948232 5.13696878,16.8809128 5.13696878,15.9872099 C5.13696878,15.0945589 5.78854774,14.3795965 6.56296378,14.3795965 Z" id="Fill-1" fill="#005596"></path>
    </g>
</svg>