<?xml version="1.0" encoding="UTF-8"?>
<svg width="28px" height="28px" viewBox="0 0 28 28" version="1.1" xmlns="http://www.w3.org/2000/svg" xmlns:xlink="http://www.w3.org/1999/xlink">
    <title>icon-list/icon-list-loisirs</title>
    <g id="icon-list/icon-list-loisirs" stroke="none" stroke-width="1" fill="none" fill-rule="evenodd">
        <path d="M14.6227782,22.2254211 C15.3766048,21.1895058 16.8302424,20.9369421 17.8953847,21.6443225 C18.9603971,22.3516524 19.2200866,23.765403 18.4663899,24.8013183 C17.7138099,25.8875448 16.1028003,27.0487368 13.5322902,26.998421 C13.168107,26.998421 12.9865269,26.5692648 13.2462163,26.3167011 C14.6227782,24.8515785 13.8437098,23.3362973 14.6227782,22.2254211 Z M3.32682022,3.00043301 L3.4563033,3.00490891 L3.61252183,3.05522465 C8.93615566,3.68663391 14.3631459,3.68663391 19.713268,3.05522465 L19.713268,3.05522465 L19.9212222,3.02957428 C20.1555659,3.00490891 20.4152502,3.07989002 20.5968302,3.23182224 C20.8047792,3.38376457 20.9082498,3.6106678 20.9082498,3.86323151 L20.9082498,3.86323151 L20.9082498,11.3148711 C20.726675,11.4914636 20.5704458,11.7183719 20.4406011,11.9206199 L20.4406011,11.9206199 L15.4548907,19.9268136 C14.6230794,20.1793773 13.896754,20.6845047 13.3773751,21.4175203 C13.2739096,21.5941129 13.1694262,21.7707105 13.0659555,21.9729584 C12.5983067,22.0479395 12.1570424,22.0735899 11.6893936,22.0735899 C8.00076463,22.0735899 4.72940463,19.9012895 3.35284303,16.5932101 C2.75534953,15.128088 2.44392993,13.5869948 2.44392993,12.0213019 L2.44392993,12.0213019 L2.44392993,3.86324161 C2.44392993,3.6106779 2.57376947,3.38375446 2.75534953,3.20715687 C2.9369244,3.05522465 3.19661385,2.97925854 3.4563033,3.00490891 Z M21.7655367,12.678311 C22.3629782,11.6680562 23.7131556,11.389832 24.6737989,12.0469017 C25.6344161,12.6782605 25.8423754,13.9913897 25.1404089,14.9010231 L25.1404089,14.9010231 L19.8432634,21.5179396 C19.5582282,21.0887834 19.1940397,20.7345881 18.7527754,20.4317137 C18.3104723,20.1288393 17.8174779,19.9265812 17.298099,19.8506151 L17.298099,19.8506151 Z M15.0397356,14.0150296 C14.623817,13.7881264 14.078064,13.9144083 13.8447486,14.3435645 C13.42883,15.1012556 12.5980315,15.5560724 11.6891184,15.5560724 C10.7802053,15.5560724 9.94940678,15.0766054 9.48175801,14.3189143 C9.24741424,13.9154084 8.70268964,13.7891266 8.28677101,14.0160399 C7.87188075,14.2439534 7.74203603,14.773731 7.97535142,15.178237 C8.75441978,16.4913663 10.1310336,17.2747179 11.6891703,17.2747179 C13.2472811,17.2747179 14.6491886,16.491341 15.3775396,15.1772268 C15.6108446,14.7727208 15.4556542,14.241943 15.0397356,14.0150296 Z M15.1687493,7.8035789 C13.4290377,7.8035789 12.8315494,9.19267928 12.7798141,9.9503704 C12.75344,10.1023127 12.8061881,10.2542449 12.9096588,10.3548764 C13.0131191,10.4811583 13.1429742,10.531474 13.299193,10.531474 L13.299193,10.531474 L17.0646901,10.531474 C17.2209089,10.531474 17.3507536,10.4555079 17.4542243,10.3548764 C17.5576949,10.2532448 17.6104431,10.1023026 17.584069,9.9503704 C17.5323389,9.19267928 16.9084609,7.8035789 15.1687493,7.8035789 Z M8.2087603,7.77791843 C6.44266426,7.77791843 5.87155001,9.19267928 5.79344062,9.92470992 C5.76706656,10.0766522 5.81981468,10.2285845 5.92328535,10.329216 C6.02775841,10.4554978 6.1829748,10.5058135 6.31281953,10.5058135 L6.31281953,10.5058135 L10.0783166,10.5058135 C10.2345458,10.5058135 10.3907646,10.4298474 10.4942353,10.329216 C10.5977059,10.2275843 10.650454,10.0766421 10.62408,9.92470992 C10.5459654,9.16701881 9.92312621,7.77791843 8.2087603,7.77791843 Z" id="Combined-Shape" fill="#7A5FDB"></path>
    </g>
</svg>