<?xml version="1.0" encoding="UTF-8"?>
<svg width="28px" height="28px" viewBox="0 0 28 28" version="1.1" xmlns="http://www.w3.org/2000/svg" xmlns:xlink="http://www.w3.org/1999/xlink">
    <title>icon-list/icon-list-sécurité</title>
    <g id="icon-list/icon-list-sécurité" stroke="none" stroke-width="1" fill="none" fill-rule="evenodd">
        <path d="M13.9149287,1.00397018 C14.223269,0.97723521 14.5304953,1.08637197 14.7546354,1.30572476 C14.9231365,1.46925733 18.8417678,5.35881244 25.6708225,6.20841483 L25.6708225,6.20841483 C26.2303722,6.26298047 26.6217931,6.75626264 26.5649394,7.30411046 C25.5024333,21.7675666 14.8660365,26.7260761 14.4177451,26.9176092 C14.277794,26.9721803 14.1378428,27 13.9978917,27 C13.8579406,27 13.7179895,26.9721803 13.5780384,26.9176092 C13.1310345,26.7247681 2.49469285,21.7675666 1.43084045,7.30411046 C1.40352199,6.78409331 1.82337534,6.26298595 2.35474173,6.20841483 C8.84338517,5.3958619 12.6602193,1.89864257 13.2037398,1.37207323 L13.2709296,1.30572476 C13.4393188,1.14093214 13.6634533,1.0317899 13.9149287,1.00397018 Z M14.0263886,7.0301619 C12.3185371,7.0301619 10.947464,8.39978143 10.947464,10.0433249 L10.9474052,11.8238549 L10.835881,11.8238549 C10.1361254,11.8238549 9.54788287,12.3995334 9.54788287,13.0843432 L9.54788287,17.1386909 C9.54788287,17.8235007 10.1361254,18.3991791 10.835881,18.3991791 L17.2179318,18.3991791 C17.9176874,18.3991791 18.5059299,17.8235007 18.5059299,17.1386909 L18.5048355,13.0832475 C18.5048355,12.3984377 17.9165929,11.8227592 17.2168374,11.8227592 L17.1053131,11.8238303 L17.1053131,10.0433249 C17.1053131,8.39978143 15.73424,7.0301619 14.0263886,7.0301619 Z M14.0264977,8.64589932 C14.8104479,8.64589932 15.454447,9.27614344 15.454447,10.0433495 L15.454391,11.8238549 L12.5985485,11.8238549 L12.5985485,10.0433495 C12.5985485,9.27614344 13.2425476,8.64589932 14.0264977,8.64589932 Z" id="Combined-Shape" fill="#0D3C61"></path>
    </g>
</svg>