<?xml version="1.0" encoding="UTF-8"?>
<svg width="28px" height="28px" viewBox="0 0 28 28" version="1.1" xmlns="http://www.w3.org/2000/svg" xmlns:xlink="http://www.w3.org/1999/xlink">
    <title>icon-list/icon-list-justice</title>
    <g id="icon-list/icon-list-justice" stroke="none" stroke-width="1" fill="none" fill-rule="evenodd">
        <path d="M14.0007862,2.24186514 C14.5449029,2.24186514 14.9869454,2.68949509 14.9869454,3.24272997 L14.9869454,3.24272997 L14.9869454,4.72341352 C15.5261145,4.96887223 15.9602356,5.40743782 16.2020676,5.95665554 L16.2020676,5.95665554 L24.0536377,5.95665554 C24.598744,5.95665554 25.0417761,6.40428549 25.0417761,6.95752036 C25.0417761,7.51175953 24.598744,7.96039377 24.0536377,7.96039377 L24.0536377,7.96039377 L22.5362257,7.96039377 L24.5947859,14.2956593 L23.2092102,14.2956593 L21.5193402,9.09112098 L19.8265015,14.2956593 L18.4409259,14.2956593 L20.499486,7.96039377 L16.2018646,7.96039377 C15.9610019,8.50760291 15.5278906,8.94618395 14.9867424,9.19363579 L14.9867424,9.19363579 L14.9867424,22.9825335 L18.0642941,22.9828451 C18.8066474,22.9828451 19.4082586,23.5934275 19.4082586,24.345846 L19.4082586,24.345846 L19.4082586,25.7581349 L8.59417642,25.757129 L8.59417642,24.3448402 C8.59417642,23.5924207 9.19380854,22.9828426 9.93616188,22.9828426 L9.93616188,22.9828426 L13.013612,22.9828426 L13.013612,9.19291476 C12.474443,8.94745605 12.0423059,8.50788617 11.7984899,7.95967274 L11.7984899,7.95967274 L7.50086843,7.95967274 L9.55843906,14.2957108 L8.17286337,14.2957108 L6.48200382,9.09117248 L4.79314871,14.2936507 L3.40757252,14.2936507 L5.46613319,7.95838519 L3.94971069,7.95838519 C3.40460417,7.95838519 2.96157212,7.50874666 2.96157212,6.95551178 C2.96157212,6.4032812 3.40460417,5.95464696 3.94971069,5.95464696 L3.94971069,5.95464696 L11.7995048,5.95464696 C12.041357,5.40743782 12.4734788,4.96784991 13.0146269,4.72140494 L13.0146269,4.72140494 L13.0146269,3.24272997 C13.0146269,2.69049938 13.4556799,2.24186514 14.0007862,2.24186514 Z M10.965683,15.6313904 C10.965683,18.1441232 8.95961887,20.1820846 6.48182621,20.1810806 C4.00502309,20.1810806 2,18.1441232 2,15.6313904 L2,15.6313904 Z M26,15.6313904 C26,18.1441232 23.9959911,20.1810803 21.518173,20.1810803 C19.040355,20.1810803 17.0353311,18.1441232 17.0353311,15.6313904 L17.0353311,15.6313904 Z" id="Combined-Shape" fill="#90A8B5"></path>
    </g>
</svg>