<?xml version="1.0" encoding="UTF-8"?>
<svg width="28px" height="28px" viewBox="0 0 28 28" version="1.1" xmlns="http://www.w3.org/2000/svg" xmlns:xlink="http://www.w3.org/1999/xlink">
    <title>icon-list/icon-list-transport</title>
    <g id="icon-list/icon-list-transport" stroke="none" stroke-width="1" fill="none" fill-rule="evenodd">
        <path d="M17.5033767,11.8690853 C17.9695157,11.8690853 18.3522357,12.2836993 18.3522357,12.7860611 C18.3522357,13.2896054 17.968421,13.7030369 17.5033767,13.7030369 L17.5033767,13.7030369 L15.3684209,13.7030369 C14.3014904,13.7030369 13.4526314,14.6200126 13.4526314,15.7725592 C13.4526314,16.9251057 14.3014904,17.8420815 15.3684209,17.8420815 L15.3684209,17.8420815 L23.1963368,17.8420549 C25.166781,17.8420549 26.7810773,19.6159016 26.7821474,21.7454696 C26.7821474,23.8751854 25.1666442,25.6190241 23.1963368,25.6190241 L23.1963368,25.6190241 L9.21052613,25.6190241 C8.74438718,25.6190241 8.36166717,25.2044101 8.36166717,24.7020483 C8.36166717,24.198504 8.74548191,23.7850725 9.21052613,23.7850725 L9.21052613,23.7850725 L23.168421,23.7850725 C24.2353515,23.7850725 25.0842105,22.8680968 25.0842105,21.7155502 C25.0842105,20.5630037 24.2353515,19.6460279 23.168421,19.6460279 L23.168421,19.6460279 L15.3684209,19.6460279 C13.3979767,19.6460279 11.7826104,17.8722108 11.7826104,15.7437958 C11.7826104,13.6140799 13.3981135,11.8702413 15.3684209,11.8702413 L15.3684209,11.8702413 Z M5.21451767,12.1071395 C7.54075137,12.1071395 9.42980192,14.1164683 9.42980192,16.6594973 C9.42980192,18.4333736 7.29479137,22.6901444 6.06321241,24.9964201 C5.68049241,25.7054976 4.74930924,25.7054976 4.36658924,24.9964201 C3.13495554,22.6900853 1,18.4333736 1,16.6594973 C1,14.1466242 2.8878737,12.1071395 5.21418924,12.1071395 Z M5.21418924,14.5023455 C4.11945239,14.5023455 3.24388186,15.4481763 3.24388186,16.6307605 C3.24388186,17.8133447 4.11945239,18.7591755 5.21418924,18.7591755 C6.3089261,18.7591755 7.18556674,17.8121917 7.18449761,16.6307605 C7.18449761,15.4481763 6.3089261,14.5023455 5.21418924,14.5023455 Z M22.7858105,2.38097593 C25.1120168,2.38097593 27,4.42034235 27,6.93333372 C27,8.70720999 24.8649895,12.9639809 23.6334105,15.2702565 C23.2510463,15.979334 22.3198631,15.979334 21.9382105,15.2702565 C20.7065768,12.9639217 18.571621,8.70720999 18.571621,6.93333372 C18.571621,4.4204606 20.4596041,2.38097593 22.7858105,2.38097593 Z M22.7844968,4.80491872 C21.6897599,4.80491872 20.8141894,5.75074955 20.8141894,6.93333372 C20.8141894,8.08588026 21.6908273,9.06174873 22.7844968,9.06174873 C23.8792337,9.06174873 24.7548042,8.1159179 24.7548042,6.93333372 C24.7548042,5.75074955 23.8792337,4.80491872 22.7844968,4.80491872 Z" id="Combined-Shape" fill="#0D3C61"></path>
    </g>
</svg>