<?xml version="1.0" encoding="UTF-8"?>
<svg width="28px" height="28px" viewBox="0 0 28 28" version="1.1" xmlns="http://www.w3.org/2000/svg" xmlns:xlink="http://www.w3.org/1999/xlink">
    <title>icon-list/icon-list-telecom</title>
    <g id="icon-list/icon-list-telecom" stroke="none" stroke-width="1" fill="none" fill-rule="evenodd">
        <path d="M6.92304753,17.3993143 C7.23131959,17.3993143 7.48473706,17.6571143 7.48473706,17.9707429 L7.48473706,17.9707429 L7.48473706,24.4284571 C7.48473706,24.7431886 7.23242612,24.9998857 6.92304753,24.9998857 L6.92304753,24.9998857 L3.32795369,24.9998857 C3.01858633,24.9998857 2.76626416,24.7432 2.76626416,24.4284571 L2.76626416,24.4284571 L2.76626416,17.9707429 C2.76626416,17.6560114 3.01857509,17.3993143 3.32795369,17.3993143 L3.32795369,17.3993143 Z M12.8207876,12.5713143 C13.1575823,12.5713143 13.3824771,12.828 13.3824771,13.1427429 L13.3824771,13.1427429 L13.3824771,24.4284571 C13.3824771,24.7431886 13.1301662,24.9998857 12.8207876,24.9998857 L12.8207876,24.9998857 L9.22569376,24.9998857 C8.9163264,24.9998857 8.66400423,24.7432 8.66400423,24.4284571 L8.66400423,24.4284571 L8.66400423,13.1427429 C8.66400423,12.8280114 8.91631516,12.5713143 9.22569376,12.5713143 L9.22569376,12.5713143 Z M18.7457977,7.80017143 C19.0551651,7.80017143 19.3074872,8.05685714 19.3074872,8.3716 L19.3074872,8.3716 L19.3085825,24.4284571 C19.3085825,24.7431886 19.0562716,24.9998857 18.746893,24.9998857 L18.746893,24.9998857 L15.1517991,24.9998857 C14.8424318,24.9998857 14.5901096,24.7432 14.5901096,24.4284571 L14.5901096,24.4284571 L14.5901096,8.3716 C14.5901096,8.05686857 14.8424206,7.80017143 15.1517991,7.80017143 L15.1517991,7.80017143 Z M24.6720463,3 L21.0769525,3 C20.7675739,3 20.5152629,3.25669714 20.5152629,3.57142857 L20.5152629,24.4285714 C20.5152629,24.7433143 20.7675851,25 21.0769525,25 L24.6720463,25 C24.9814249,25 25.2337358,24.7433029 25.2337358,24.4285714 L25.2337358,3.57142857 C25.2337358,3.25668571 24.9814137,3 24.6720463,3 Z" id="Combined-Shape" fill="#3C8694"></path>
    </g>
</svg>