<?xml version="1.0" encoding="UTF-8"?>
<svg width="28px" height="28px" viewBox="0 0 28 28" version="1.1" xmlns="http://www.w3.org/2000/svg" xmlns:xlink="http://www.w3.org/1999/xlink">
    <title>icon-list/icon-list-administration</title>
    <g id="icon-list/icon-list-administration" stroke="none" stroke-width="1" fill="none" fill-rule="evenodd">
        <path d="M6.8977277,16.3753435 C7.06516921,16.3753435 7.23370898,16.5016549 7.23370898,16.6783009 L7.23370898,16.6783009 L7.23480445,24.433878 L9.30762295,24.433878 L9.30762295,16.6783009 C9.30762295,16.5273173 9.44770294,16.3753435 9.64360423,16.3753435 L9.64360423,16.3753435 L10.7084789,16.3753435 C10.8759204,16.3753435 11.0444602,16.5016549 11.0444602,16.6783009 L11.0444602,16.6783009 L11.0444602,24.433878 L13.1172787,24.433878 L13.1172787,16.6783009 C13.1172787,16.5273173 13.2573586,16.3753435 13.4532599,16.3753435 L13.4532599,16.3753435 L14.5181346,16.3753435 C14.6855761,16.3753435 14.8541159,16.5016549 14.8541159,16.6783009 L14.8541159,16.6783009 L14.8552113,24.433878 L16.9280298,24.433878 L16.9280298,16.6783009 C16.9280298,16.5273173 17.0681098,16.3753435 17.2640111,16.3753435 L17.2640111,16.3753435 L18.3288858,16.3753435 C18.4963273,16.3753435 18.664867,16.5016549 18.664867,16.6783009 L18.664867,16.6783009 L18.664867,24.433878 L20.7376855,24.433878 L20.7376855,16.6783009 C20.7376855,16.5273173 20.8777655,16.3753435 21.0736668,16.3753435 L21.0736668,16.3753435 L22.1385415,16.3753435 C22.305983,16.3753435 22.4745227,16.5016549 22.4745227,16.6783009 L22.4745227,16.6783009 L22.4756154,24.4083621 L24.1281995,24.4082105 C24.3241008,24.4082105 24.4926406,24.5601894 24.5484563,24.7368354 L24.5484563,24.7368354 L24.5484563,25.6970426 C24.5484563,25.8480261 24.4083763,26 24.212475,26 L24.212475,26 L3.84431006,26 C3.67686855,26 3.50832877,25.8736886 3.50832877,25.6970426 L3.50832877,25.6970426 L3.50832877,24.7368354 C3.50832877,24.5858519 3.64840876,24.433878 3.84431006,24.433878 L3.84431006,24.433878 L5.49687177,24.433878 L5.49687177,16.6783009 C5.49687177,16.5273173 5.63695176,16.3753435 5.83285306,16.3753435 L5.83285306,16.3753435 Z M13.957851,2 C14.3781078,2 14.7425545,2.3286249 14.7425545,2.70757427 L14.7425545,2.70757427 L14.7425545,2.98488943 L18.3004484,2.98488943 C18.6648951,2.98488943 18.9450662,3.26318985 18.9450662,3.56614724 L18.9450662,3.56614724 L18.9450662,5.58721057 C18.9450662,5.91583547 18.6364297,6.16846839 18.3004484,6.16846839 L18.3004484,6.16846839 L14.7425545,6.16846839 L14.7425545,8.61880557 C18.1046087,8.89720705 20.9062085,10.8422279 22.1385134,13.5451474 L22.1385134,13.5451474 L24.1283172,13.5451222 C24.3242241,13.5451222 24.4927639,13.6971011 24.4916765,13.8737471 L24.4916765,13.8737471 L24.4916765,14.8339543 C24.4916765,14.9849378 24.3515912,15.1369117 24.1556899,15.1369117 L24.1556899,15.1369117 L3.78752496,15.1369117 C3.62008345,15.1369117 3.45154368,15.0106003 3.45154368,14.8339543 L3.45154368,14.8339543 L3.45154368,13.8737471 C3.45154368,13.7227635 3.59162366,13.5707897 3.78752496,13.5707897 L3.78752496,13.5707897 L5.77718865,13.5707897 C7.00938152,10.8678196 9.81109337,8.89708073 13.1731476,8.64444781 L13.1731476,8.64444781 L13.1731476,2.70757427 C13.1731476,2.3286249 13.5375943,2 13.957851,2 Z" id="Combined-Shape" fill="#90A8B5"></path>
    </g>
</svg>