<?xml version="1.0" encoding="UTF-8"?>
<svg width="28px" height="28px" viewBox="0 0 28 28" version="1.1" xmlns="http://www.w3.org/2000/svg" xmlns:xlink="http://www.w3.org/1999/xlink">
    <title>icon-list/icon-list-achats</title>
    <g id="icon-list/icon-list-achats" stroke="none" stroke-width="1" fill="none" fill-rule="evenodd">
        <path d="M24.9124954,9.57650727 L23.1403546,9.57650727 L19.089747,4.04134898 C18.6842812,3.50248003 18.0009437,3.41709666 17.5203391,3.8705936 C17.0397345,4.3252146 16.963583,5.09139405 17.3680463,5.630263 L20.2535979,9.57526967 L7.77241004,9.57637954 L10.6579616,5.63137287 C11.0634275,5.09250392 10.987276,4.29748488 10.5056689,3.87170347 C10.0250643,3.44592206 9.31600547,3.50246583 8.936261,4.04245885 L4.88565338,9.57761714 L3.11351204,9.57761714 C2.50632595,9.57761714 2,10.1453257 2,10.8261218 C2,11.5069179 2.50632595,12.0746264 3.11351204,12.0746264 L4.17659451,12.0746264 L5.79840717,23.3723074 C5.87455353,23.9688556 6.35516319,24.4223411 6.91191921,24.4223411 L21.0890459,24.4223411 C21.6458019,24.4223411 22.1016978,23.9677201 22.2025579,23.3723074 L23.8223959,12.1035767 L24.8854779,12.1035767 C25.492664,12.1035767 25.9989899,11.5358682 25.9989899,10.8550721 C26.025691,10.1443294 25.5193727,9.57662081 24.9121613,9.57662081 L24.9124954,9.57650727 Z M10.4822058,19.3129926 C10.4822058,19.9937887 9.97587983,20.5614973 9.36869375,20.5614973 C8.76150766,20.5614973 8.25518171,19.9937887 8.25518171,19.3129926 L8.25419184,14.6858842 C8.25419184,14.0050881 8.7605178,13.4373795 9.36770388,13.4373795 C9.97488996,13.4373795 10.4812159,14.0050881 10.4812159,14.6858842 L10.4822058,19.3129926 Z M15.1143288,19.3129926 C15.1143288,19.9937887 14.6080028,20.5614973 14.0008167,20.5614973 C13.3936306,20.5614973 12.8873047,19.9937887 12.8873047,19.3129926 L12.8873047,14.6858842 C12.8873047,14.0050881 13.3936306,13.4373795 14.0008167,13.4373795 C14.6080028,13.4373795 15.1143288,14.0050881 15.1143288,14.6858842 L15.1143288,19.3129926 Z M19.7730339,19.3129926 C19.7730339,19.9937887 19.2667079,20.5614973 18.6595218,20.5614973 C18.0523357,20.5614973 17.5460098,19.9937887 17.5460098,19.3129926 L17.5450199,14.6858842 C17.5450199,14.0050881 18.0513459,13.4373795 18.658532,13.4373795 C19.265718,13.4373795 19.772044,14.0050881 19.772044,14.6858842 L19.7730339,19.3129926 Z" id="Fill-1" fill="#2196F3"></path>
    </g>
</svg>