<?xml version="1.0" encoding="UTF-8"?>
<svg width="28px" height="28px" viewBox="0 0 28 28" version="1.1" xmlns="http://www.w3.org/2000/svg" xmlns:xlink="http://www.w3.org/1999/xlink">
    <title>icon-list/icon-list-restos&amp;bars</title>
    <g id="icon-list/icon-list-restos&amp;bars" stroke="none" stroke-width="1" fill="none" fill-rule="evenodd">
        <path d="M6.05917492,22.9446143 L6.92496054,19.7420862 C7.72890068,17.275575 10.9985909,17.8910812 12.3950424,14.6622529 C13.7934856,11.4356115 13.3046969,9.05450623 13.3046969,9.05450623 L9.25302655,7.77745409 L5.20334791,6.50258897 C5.20334791,6.50258897 3.64132828,8.23970064 3.2682637,11.7883388 C2.90119981,15.2931804 5.88758054,16.684182 5.47463047,19.181592 L4.61083658,22.4892652 C4.61083658,22.4892652 4.50510685,22.8879424 4.05024384,22.9076536 C3.59739808,22.9251778 1.11174101,22.3183916 1.00403489,22.7280319 C0.896308337,23.139848 2.96501147,23.7860454 4.89611225,24.3928597 C6.82920474,25.0018049 8.89390401,25.6567897 9.0016612,25.2471438 C9.10938775,24.8353221 6.70750551,23.9043689 6.3324492,23.6239816 C5.95541139,23.3435942 6.05914428,22.9449395 6.05914428,22.9449395 L6.05917492,22.9446143 Z M21.9408484,22.9446143 C21.9408484,22.9446143 22.0465781,23.3432914 21.6695403,23.6236563 C21.2925025,23.9040436 18.8906305,24.8350417 18.9983366,25.2468186 C19.1060631,25.6564476 21.1707931,25.0014796 23.1038855,24.3925344 C25.036978,23.7857763 27.103669,23.1395395 26.9959629,22.7277066 C26.8882364,22.3180776 24.4045812,22.9248526 23.949754,22.9073284 C23.4949165,22.8876171 23.3911529,22.48894 23.3911529,22.48894 L22.527359,19.1812667 C22.1124173,16.6840811 25.0988235,15.2930795 24.7317341,11.7880135 C24.3586848,8.23937539 22.7966499,6.50226372 22.7966499,6.50226372 L18.7469712,7.77712884 L14.6953009,9.05418098 C14.6953009,9.05418098 14.206548,11.4352863 15.6049554,14.6619276 C17.0014069,17.890756 20.2730378,17.2752497 21.0750373,19.741761 L21.9408484,22.9446143 Z M17.135082,4.17829014 C16.8458178,3.99428876 16.4707666,4.11038594 16.3032067,4.42582168 L15.4035108,6.13882005 C15.2339438,6.46082808 15.3416704,6.87702382 15.6229524,7.05445292 C15.9142084,7.2384543 16.2892595,7.12235712 16.4548277,6.80692138 L17.3565154,5.09392301 C17.5240855,4.77191498 17.4183557,4.35571924 17.135082,4.17829014 Z M10.7615761,4.17829014 C10.4723119,4.36229713 10.3765561,4.77630024 10.5421345,5.09392301 L11.4438222,6.80692138 C11.6113922,7.1289294 11.9924135,7.23407465 12.2756974,7.05445292 C12.5669534,6.87045154 12.6627092,6.45644282 12.4951391,6.13882005 L11.5954432,4.42582168 C11.4258762,4.10381366 11.0448601,3.99866841 10.7615761,4.17829014 Z M13.9494526,2.62522471 C13.6143073,2.62522471 13.3410075,2.93190116 13.3410075,3.29770569 L13.3410075,5.27572616 C13.3410075,5.64811418 13.6242863,5.94820713 13.9494526,5.94820713 C14.2845979,5.94820713 14.555906,5.64153629 14.555906,5.27572616 L14.555906,3.29770569 C14.555906,2.92750468 14.274624,2.62522471 13.9494526,2.62522471 Z" id="Fill-1" fill="#F78300"></path>
    </g>
</svg>