<?xml version="1.0" encoding="UTF-8"?>
<svg width="28px" height="28px" viewBox="0 0 28 28" version="1.1" xmlns="http://www.w3.org/2000/svg" xmlns:xlink="http://www.w3.org/1999/xlink">
    <title>icon-list/icon-list-banques</title>
    <g id="icon-list/icon-list-banques" stroke="none" stroke-width="1" fill="none" fill-rule="evenodd">
        <path d="M25.5730403,9.82026075 C21.9037429,7.627695 18.2342271,5.43512925 14.5653665,3.15135277 C14.2240391,2.96863896 13.7974071,2.96863896 13.4560796,3.15135277 C12.5174018,3.69949421 11.6641378,4.24763564 10.72546,4.79577708 C7.99484042,6.44020139 5.17902438,8.17595338 2.44840477,9.82043616 C2.10707732,10.00315 1.9364136,10.2772207 2.02174546,10.6426191 L2.02174546,11.3734743 C2.02174546,11.9216158 2.19240919,12.1043296 2.70440036,12.1043296 L4.32573306,12.1043296 L4.32573306,12.1956865 C4.32573306,12.652471 4.66706051,12.9265417 5.00838796,12.9265417 L5.34971542,12.9265417 L5.34971542,13.1092555 C5.34971542,13.7487831 5.26438355,14.4796384 5.26438355,15.1191075 L5.34971542,16.2153904 C5.26438355,17.6771009 5.17905169,19.230139 5.09371983,20.7832357 C5.09371983,21.1486633 5.09371983,21.4227632 5.00838796,21.7881909 L5.00838796,21.9709047 L4.83772424,21.9709047 C4.06976478,21.9709047 3.47241443,22.6104323 3.47241443,23.4326152 C3.47241443,23.8893997 3.64307816,24.2547981 3.89907375,24.5288981 C4.15506934,24.802998 4.49642409,24.9856826 4.9230561,24.9856826 L23.3547396,24.9856826 C24.122699,24.9856826 24.8053539,24.346155 24.8053539,23.5239721 C24.8053539,23.0671876 24.6346902,22.7017892 24.3786946,22.4276892 C24.122699,22.1535893 23.7813443,21.9709047 23.3547123,21.9709047 L23.0987167,21.9709047 C23.0133848,20.691908 22.9280529,19.4129113 22.9280529,18.2253008 C22.9280529,17.6771593 22.8427211,17.2203456 22.8427211,16.6722626 C22.7573892,15.5759797 22.7573892,14.4796968 22.6720574,13.2920863 L22.6720574,12.9266587 L22.9280529,12.9266587 C23.3547123,12.9266587 23.6107078,12.561231 23.6107078,12.1958034 L23.6107078,12.1044465 L25.3173451,12.1044465 C25.8293363,12.1044465 26,11.9217327 26,11.3735913 L26,10.642736 C26,10.2773084 25.8293363,10.0032084 25.5733407,9.82055309 L25.5730403,9.82026075 Z M17.8934457,18.4081023 C17.722782,19.687099 16.9547679,20.600668 15.6748173,20.9660957 C15.5041536,21.0574526 15.248158,21.0574526 15.0774669,21.1488095 L14.7361395,21.2401664 L14.7361395,22.1537354 L13.5414934,22.1537354 L13.5414934,21.2401664 L13.3708297,21.2401664 C11.0668421,20.6920249 9.95755518,19.4130282 10.1282189,17.4945625 L12.2614882,17.4945625 L12.2614882,17.7686332 L12.2614882,17.951347 C12.34682,18.864916 12.8588385,19.4130575 13.7121025,19.5043852 L14.2240937,19.5043852 C14.9067486,19.5043852 15.3333806,19.1389575 15.504099,18.49943 C15.7600945,17.7685747 15.504099,17.0377195 14.9921078,16.6722918 C14.7361122,16.489578 14.3947574,16.3068642 14.1387892,16.2155073 L14.0534573,16.2155073 C13.9681254,16.1241504 13.7974617,16.1241504 13.7121298,16.0327935 C13.5414661,15.9414366 13.2854705,15.8500797 13.0294749,15.6673659 C12.5174838,15.3932951 12.0054926,15.2105813 11.5788606,14.8451829 C10.7255419,14.2056554 10.2988553,13.1093725 10.3842145,12.0130896 C10.4695464,10.8254791 11.0668694,9.82052386 12.0055472,9.36376856 C12.3468746,9.18105475 12.6028975,9.08969784 13.0295295,8.99834094 C13.1148614,8.99834094 13.2855251,8.90698403 13.370857,8.90698403 L13.5415207,8.81562713 L13.5415207,7.81067192 L14.7361668,7.81067192 L14.7361668,8.9069548 L14.9068305,8.9069548 C16.1014766,9.18102552 16.7841315,9.72913772 17.2961227,10.5513791 C17.6374501,11.0995205 17.8081139,11.9217619 17.722782,12.561231 L15.5895127,12.561231 L15.5895127,12.2871603 C15.5895127,12.1044465 15.5041809,11.9217327 15.5041809,11.6476328 C15.3335171,11.0081052 14.821526,10.6426775 14.1388711,10.6426775 C13.4562162,10.6426775 13.0295842,10.9167483 12.8588658,11.5562466 C12.6028702,12.2871019 12.773534,13.0179571 13.2855251,13.3833847 C13.6268526,13.6574555 13.96818,13.7488124 14.3095075,13.9315262 C14.4801712,14.0228831 14.5655031,14.0228831 14.7361668,14.11424 C14.9068305,14.2055969 15.1628261,14.2969538 15.3335171,14.3883107 C15.7601765,14.5710245 16.1868358,14.7537383 16.5281632,15.0278383 C17.6374501,15.7586935 18.0641368,16.8549764 17.893473,18.4080146 L17.8934457,18.4081023 Z" id="Fill-1" fill="#6D7278"></path>
    </g>
</svg>