<?xml version="1.0" encoding="UTF-8"?>
<svg width="28px" height="28px" viewBox="0 0 28 28" version="1.1" xmlns="http://www.w3.org/2000/svg" xmlns:xlink="http://www.w3.org/1999/xlink">
    <title>icon-list/icon-list-nouvelles technologies</title>
    <g id="icon-list/icon-list-nouvelles-technologies" stroke="none" stroke-width="1" fill="none" fill-rule="evenodd">
        <path d="M17.6982732,16.7637294 L18.6623887,20.0947914 L21.1014453,20.0947914 C21.3955813,19.3633155 22.1461427,18.8329299 23.0306947,18.8329299 L23.0306947,18.8329299 C24.1557355,18.8332075 25.0936693,19.6918538 25.0936693,20.7772566 C25.0936693,21.8370184 24.1829624,22.7203215 23.0304294,22.7203215 C22.1458774,22.7203215 21.3963879,22.1899358 21.10118,21.4584599 L21.10118,21.4584599 L17.5640977,21.4584599 L16.598937,18.1016559 L14.7230695,18.1016559 L14.7220217,22.240057 C15.498738,22.5170608 16.0619271,23.2239052 16.0619271,24.0569357 C16.0619271,25.1166969 15.1512202,26 13.9986872,26 C12.873381,26 11.9354472,25.142338 11.9354472,24.0569357 C11.9354472,23.2239052 12.4986363,22.5180703 13.2753526,22.240057 L13.2753526,22.240057 L13.2753526,18.126136 L11.3994851,18.126136 L10.4343244,21.48294 L6.89724216,21.48294 C6.60310613,22.2144159 5.85254472,22.7448016 4.96799278,22.7448016 C3.84268663,22.7448016 2.90475232,21.8871395 2.90475232,20.8017367 C2.90475232,19.7419749 3.81545975,18.8586719 4.96799278,18.8586719 C5.85254472,18.8586719 6.6020342,19.3890575 6.89724216,20.1205334 L6.89724216,20.1205334 L9.33629875,20.1205334 L10.3014594,16.7637294 L17.6982732,16.7637294 Z M23.0306947,12.0446196 C24.1560008,12.0446196 25.0939346,12.9279227 25.0939346,13.9876845 C25.0939346,15.0474463 24.1832277,15.9307493 23.0306947,15.9307493 C22.1461427,15.9307493 21.3966532,15.4003637 21.1014453,14.6688878 L21.1014453,14.6688878 L6.92578215,14.6688878 C6.63164611,15.4003637 5.88108471,15.9307493 4.99653276,15.9307493 C3.87122661,15.9307493 2.9332923,15.0474463 2.9332923,13.9876845 C2.9332923,12.9279227 3.84399974,12.0446196 4.99653276,12.0446196 C5.88108471,12.0446196 6.63057419,12.5750053 6.92578215,13.3064812 L6.92578215,13.3064812 L21.1014453,13.3064812 C21.3955813,12.5750053 22.1461427,12.0446196 23.0306947,12.0446196 Z M14.0002415,2 C15.1255476,2 16.0634814,2.85766204 16.0634814,3.94306485 C16.0634814,4.77609535 15.5002923,5.48193022 14.723576,5.75994355 L14.723576,5.75994355 L14.723576,9.849132 L16.5994435,9.849132 L17.5646042,6.49232798 L21.1027584,6.49232798 C21.3968944,5.76085209 22.1474558,5.23046645 23.0320078,5.23046645 C24.1573139,5.23046645 25.0952477,6.11376952 25.0952477,7.1735313 C25.0952477,8.23329308 24.1845408,9.11659615 23.0320078,9.11659615 C22.1474558,9.11659615 21.3979663,8.58621052 21.1027584,7.85473463 L21.1027584,7.85473463 L18.6637018,7.85473463 L17.6985411,11.2115387 L10.3017274,11.2115387 L9.33761186,7.8804766 L6.89855527,7.8804766 C6.60441924,8.61195249 5.85385783,9.14233813 4.96930588,9.14233813 C3.84408013,9.14231289 2.93232623,8.25900982 2.93337206,7.19826379 C2.93337206,6.13850201 3.84408013,5.25519894 4.99661316,5.25519894 C5.8811651,5.25519894 6.63065458,5.78558457 6.92586254,6.51706046 L6.92586254,6.51706046 L10.4358787,6.51706046 L11.4010394,9.87386449 L13.2769069,9.87386449 L13.2769069,5.75994355 C12.5001906,5.48293971 11.9370015,4.77609535 11.9370015,3.94306485 C11.9370015,2.88330307 12.8477084,2 14.0002415,2 Z" id="Combined-Shape" fill="#3C8694"></path>
    </g>
</svg>