<?xml version="1.0" encoding="UTF-8"?>
<svg width="28px" height="28px" viewBox="0 0 28 28" version="1.1" xmlns="http://www.w3.org/2000/svg" xmlns:xlink="http://www.w3.org/1999/xlink">
    <title>icon-list/icon-list-eau</title>
    <g id="icon-list/icon-list-eau" stroke="none" stroke-width="1" fill="none" fill-rule="evenodd">
        <path d="M9.44109839,8.01605907 C9.44109839,8.01605907 10.4376321,9.58069856 11.5772874,11.60498 C10.9509412,13.1234459 10.5301721,14.4998648 10.5301721,15.4619611 C10.5301446,18.2213557 12.0959136,20.6199847 14.3849217,21.8199191 C13.5261924,23.6956792 11.6386409,25 9.44109839,25 C6.43645498,25 4,22.5634899 4,19.5589016 C4,16.5543133 9.44109839,8.01605907 9.44109839,8.01605907 Z M17.7061131,3.0002755 C19.7390176,6.30818782 23.5045332,12.9536286 23.5045332,15.4621815 C23.5045332,18.6595087 20.9032749,21.2606017 17.7061131,21.2606017 C16.6459942,21.2606017 15.6559347,20.9700333 14.7982248,20.4717664 C13.072088,19.4664718 11.9065909,17.5993623 11.9065909,15.4620989 C11.9065909,14.8874363 12.1067683,14.0942756 12.4360718,13.1741652 C13.5446784,10.0811419 16.1391869,5.55051143 17.7060855,3 Z" id="Combined-Shape" fill="#005596"></path>
    </g>
</svg>