<?xml version="1.0" encoding="UTF-8"?>
<svg width="28px" height="28px" viewBox="0 0 28 28" version="1.1" xmlns="http://www.w3.org/2000/svg" xmlns:xlink="http://www.w3.org/1999/xlink">
    <title>icon-list/icon-list-immobilier</title>
    <g id="icon-list/icon-list-immobilier" stroke="none" stroke-width="1" fill="none" fill-rule="evenodd">
        <path d="M14.4224138,2 C17.5595047,2 20.5671181,3.26431471 22.7861873,5.51430557 C25.0038868,7.76564957 26.25,10.8171789 26.25,14 C26.25,17.1828211 25.0038507,20.2342773 22.7861873,22.4856944 C20.5671902,24.7357219 17.5595047,26 14.4224138,26 C11.3680491,26 8.43642325,24.801487 6.23582625,22.6616323 L3.1922109,25.7489487 C2.86228521,26.0836838 2.32736997,26.0836838 1.99744427,25.7489487 C1.70417699,25.4514064 1.67159173,24.989536 1.89968851,24.6554763 L1.99744427,24.5367656 L5.10184211,21.3880332 C3.48582692,19.288848 2.59482759,16.6913623 2.59482759,14 C2.59482759,10.8171789 3.84097686,7.76572271 6.05864026,5.51430557 C8.27763737,3.26427814 11.2852868,2 14.4224138,2 Z M14.4224138,3.71428571 C11.7337703,3.71428571 9.15558638,4.79770927 7.25378539,6.72610447 C5.35234832,8.6564822 4.28448276,11.2722413 4.28448276,14 C4.28448276,16.7278142 5.35234974,19.3436133 7.25302826,21.2731274 C9.15567067,23.2022822 11.733847,24.2857143 14.4224138,24.2857143 C17.1110352,24.2857143 19.6892511,23.2022807 21.5910422,21.2738955 C23.4924793,19.3435178 24.5603448,16.7277587 24.5603448,14 C24.5603448,11.2721858 23.4924778,8.65638667 21.5917993,6.72687265 C19.6891569,4.79771783 17.1109806,3.71428571 14.4224138,3.71428571 Z M15.0667784,6.89977201 L20.3214227,10.7761768 C20.611834,10.9902539 20.7819976,11.333238 20.7751904,11.6969416 L20.7750045,18.4831987 C20.7750045,18.7778434 20.659293,19.0609793 20.452828,19.2704304 C20.246363,19.4799051 19.9672951,19.5973034 19.676907,19.5973034 L17.2356514,19.5973034 C17.1857355,19.5973034 17.1448979,19.5558704 17.1448979,19.5052269 L17.1448979,16.0063209 C17.1403559,14.940532 16.2895204,14.0773409 15.2391027,14.0727444 L13.605539,14.0727444 C12.5550632,14.0773468 11.7042742,14.940591 11.6997438,16.0063209 L11.6997438,19.5052269 C11.6997438,19.5558704 11.6589004,19.5973034 11.6089903,19.5973034 L9.16773469,19.5973034 C8.87732338,19.5973034 8.59825553,19.4799051 8.39181374,19.2704304 C8.18534872,19.0609557 8.06963724,18.7778198 8.06963724,18.4831987 L8.06963724,11.6969416 C8.06282999,11.333238 8.2329936,10.9902657 8.52340492,10.7761768 L13.7780492,6.89977201 C14.161485,6.61433199 14.6833193,6.61433199 15.0667784,6.89977201 Z" id="Combined-Shape" fill="#03B38B" fill-rule="nonzero"></path>
    </g>
</svg>