<?xml version="1.0" encoding="UTF-8"?>
<svg width="28px" height="28px" viewBox="0 0 28 28" version="1.1" xmlns="http://www.w3.org/2000/svg" xmlns:xlink="http://www.w3.org/1999/xlink">
    <title>icon-list/icon-list-tourisme</title>
    <g id="icon-list/icon-list-tourisme" stroke="none" stroke-width="1" fill="none" fill-rule="evenodd">
        <path d="M16.7163015,6.95090858 C17.372994,6.83032252 18.0296995,6.95090858 18.5555657,7.31502739 C18.9480182,7.5561753 19.2763644,8.10236562 19.4738844,8.34353774 C19.6687907,8.6461832 21.3772417,10.8852754 21.3772417,10.8852754 L21.3772417,10.8852754 L24.0707314,11.1879209 C24.6607171,11.2469973 25.1865832,11.7317142 25.1865832,12.3370052 C25.1224244,12.9423506 24.6607039,13.3655821 23.9988893,13.5429142 L23.9988893,13.5429142 L23.6705431,13.5429142 L20.3870809,13.1196827 C20.0587215,13.0582093 19.7303753,12.8761499 19.5328554,12.6349778 L19.5328554,12.6349778 L19.0736829,11.9681893 C19.0736829,11.9681893 18.8761629,14.2072694 18.8761629,14.3278555 C18.8761629,14.4484415 18.8761629,14.6919743 18.9428566,14.8125603 C19.0000452,14.890591 19.3823206,15.5466473 19.8005329,16.2709465 L20.1164124,16.8190012 C20.499679,17.4850138 20.8524011,18.1012798 20.9518595,18.2751364 L20.9796539,18.3237319 C21.0437865,18.444318 21.1104801,18.6263774 21.1104801,18.8084368 L21.1104801,18.8084368 L21.4388264,25.1639898 C21.5055463,25.7692807 20.8488539,26.3154831 20.1921614,26.4360692 L20.1921614,26.4360692 L19.732989,26.4360692 C19.0121902,26.3154952 18.5530177,25.7102043 18.486324,24.9843394 L18.486324,24.9843394 L17.9604579,19.5982204 C17.8963253,19.3570483 17.8296316,19.1749889 17.6988053,18.9929295 L17.6988053,18.9929295 L14.6128762,15.0585385 C14.4179174,14.755893 14.28453,14.4532233 14.3512237,14.0891045 L14.3512237,14.0891045 L14.7462636,10.7600044 L13.761225,11.4267929 L13.4995724,13.9094542 C13.4354792,14.5147572 12.9095999,14.9994621 12.2529075,14.9994621 L12.2529075,14.9994621 L12.1862138,14.9994621 L11.0036421,17.2385543 L11.398682,17.4206137 C12.0553744,17.7232591 12.2503333,18.3900234 11.9886807,18.933841 L11.9886807,18.933841 L8.83603168,24.9867485 C8.83603168,25.0458612 8.90272537,25.1664472 8.90272537,25.2279206 C8.90272537,25.9561824 8.24603293,26.5 7.52262054,26.5 C6.73251447,26.5 6.14251572,25.8947091 6.14251572,25.2279206 L6.14251572,25.2279206 L3.51574598,24.0788363 C2.8590542,23.7761908 2.66409535,23.1094265 2.92574788,22.565609 L2.92574788,22.565609 L6.2092094,16.3329301 C6.53755562,15.7276392 7.26094174,15.5479404 7.85094049,15.7891125 L7.85094049,15.7891125 L10.216084,16.8791204 L11.3986557,14.6400282 C11.2011358,14.4603294 11.1370032,14.27827 11.0703095,14.0962106 L11.0703095,14.0962106 L11.0703095,13.7935652 L11.3986557,10.7671105 C11.3986557,10.4644529 11.5961757,10.1618075 11.8578282,9.97974807 L11.8578282,9.97974807 L12.5145206,9.4950432 C12.5145206,9.4950432 12.7854401,9.31424278 13.1718721,9.05664622 L13.4809265,8.85067458 C13.6438548,8.74211419 13.8175635,8.62641074 13.9938573,8.50904883 L14.6933942,8.04375663 C15.2554547,7.67030975 15.7248273,7.35968889 15.7979828,7.31502739 C15.9928891,7.1920807 16.3879553,7.01238193 16.7163015,6.95090858 Z M14.9409992,17.3612831 L16.7802634,19.7209855 C16.846957,19.7209855 16.846957,19.7209855 16.7135697,19.7824589 L16.7135697,19.7824589 L17.0419159,22.8089153 L15.728531,25.6532985 C15.4669048,26.2586015 14.7434924,26.561247 14.0867999,26.4406609 C13.9534126,26.4406609 13.8225863,26.3815482 13.69176,26.3200749 C13.1017613,26.0174294 12.8401087,25.2324881 13.1017613,24.5656996 L13.1017613,24.5656996 L15.2026517,19.5412989 L15.2026517,19.2386534 L14.9409992,17.3612831 Z M7.4560188,24.7428283 C7.19180516,24.7428283 6.93015263,24.9863611 6.93015263,25.2275332 C6.93015263,25.4710659 7.19436626,25.7122381 7.4560188,25.7122381 C7.78436502,25.7122381 7.98188497,25.5301787 7.98188497,25.2275332 C7.98188497,24.9840004 7.71767133,24.7428283 7.4560188,24.7428283 Z M6.47099328,19.9028755 C6.27603443,19.7822894 6.01182079,19.9028755 5.88099452,20.0849349 L5.88099452,20.0849349 L4.56760965,22.6881683 C4.43678339,22.867867 4.56760965,23.1113998 4.7651296,23.2319859 C4.96008845,23.3525719 5.22430209,23.2319859 5.35512836,23.0499264 L5.35512836,23.0499264 L6.66851323,20.446693 C6.73520691,20.2055209 6.66851323,19.9619821 6.47099328,19.9028755 Z M19.9074327,3.56936606 C20.4204737,6.76130725 15.225938,7.47300832 14.7103031,4.28106714 C14.1946945,1.08676532 19.3917978,0.375064246 19.9074327,3.56936606 Z" id="Combined-Shape" fill="#7A5FDB"></path>
    </g>
</svg>