<?xml version="1.0" encoding="UTF-8"?>
<svg width="28px" height="28px" viewBox="0 0 28 28" version="1.1" xmlns="http://www.w3.org/2000/svg" xmlns:xlink="http://www.w3.org/1999/xlink">
    <title>icon-list/icon-list-alimentation</title>
    <g id="icon-list/icon-list-alimentation" stroke="none" stroke-width="1" fill="none" fill-rule="evenodd">
        <g id="Group" transform="translate(4.328567, 2.000000)" fill="#F78300">
            <path d="M19.3428667,5.8608124 C19.3428667,3.08185915 16.8710468,0 14.613775,0 C12.3565033,0 9.85478329,3.08185915 9.85478329,5.8608124 C9.85478329,8.0841771 11.196747,9.42343046 13.089482,9.90292622 L12.8451619,22.5345316 C12.8451619,23.3427523 13.6079186,24 14.5840031,24 C15.5600876,24 16.3538428,23.3427523 16.3228444,22.5345316 L16.0785242,9.90292622 C18.0009153,9.44798631 19.3428667,8.0841771 19.3428667,5.8608124 L19.3428667,5.8608124 Z" id="Fill-1"></path>
            <path d="M6.80406151,0.631580284 C6.37740591,0.631580284 6.04130478,0.90987982 6.04130478,1.26316057 L6.04130478,6.51816116 C6.04130478,6.67013453 5.88875344,6.7964607 5.70520366,6.7964607 L4.88167048,6.7964607 C4.69813291,6.7964607 4.54556936,6.67014464 4.54556936,6.51816116 L4.54556936,1.23764472 C4.51577303,0.910006136 4.17969022,0.631731863 3.78281264,0.631731863 C3.35615704,0.631731863 3.02005592,0.910031399 3.02005592,1.26331215 L3.02005592,6.51831274 C3.02005592,6.67028611 2.86750457,6.79661227 2.68395479,6.79661227 L1.86042162,6.79661227 C1.67688404,6.79661227 1.52432049,6.67029622 1.52432049,6.51831274 L1.52551344,1.2377963 C1.52551344,0.884515556 1.18941232,0.606216019 0.762756722,0.606216019 C0.336101122,0.606216019 0,0.884515556 0,1.2377963 L0,7.62964141 C0,8.7161616 1.00708296,9.600374 2.25727173,9.70102263 L2.0129516,22.5092187 C2.0129516,23.3174393 2.77570833,23.974687 3.75179285,23.974687 C4.72787737,23.974687 5.52163253,23.3174393 5.49063409,22.5092187 L5.27849314,9.72653847 C6.55968035,9.62587973 7.53576488,8.71601002 7.53576488,7.65515725 L7.53576488,1.2377963 C7.53576488,0.910157715 7.19966375,0.631883442 6.80400659,0.631883442 L6.80406151,0.631580284 Z" id="Fill-2"></path>
        </g>
    </g>
</svg>