<?xml version="1.0" encoding="UTF-8"?>
<svg width="28px" height="28px" viewBox="0 0 28 28" version="1.1" xmlns="http://www.w3.org/2000/svg" xmlns:xlink="http://www.w3.org/1999/xlink">
    <title>icon-list/icon-list-petrole</title>
    <g id="icon-list/icon-list-petrole" stroke="none" stroke-width="1" fill="none" fill-rule="evenodd">
        <path d="M23.2520155,12.4595566 L22.5398308,11.9311726 C22.2973584,11.7511202 22.0637843,11.4333969 21.8936516,11.0933018 L22.2871829,11.0933018 C22.8228977,11.0933018 23.2621552,10.6861157 23.2621552,10.1895149 L23.2621552,6.57436706 C23.2621552,6.07776625 22.8228977,5.6705801 22.2871829,5.6705801 L21.3122107,5.6705801 L21.3122107,2 L20.6622292,2 L19.3622662,5.6705801 L19.3622662,11.0933018 L19.825638,11.0933018 C20.0731899,11.9606059 20.6343125,12.8326097 21.3223829,13.3421648 L22.0345676,13.8705488 C22.4979394,14.2153435 22.9371644,15.0614689 22.9371644,15.6122065 L22.9371644,23.4450268 C22.9371644,23.7721676 22.6401034,24.0475514 22.2871829,24.0475514 C21.9342625,24.0475514 21.6372014,23.7721796 21.6372014,23.4450268 L21.6372014,16.8172558 C21.6372014,15.5427655 20.5746442,14.3812788 19.2200827,14.1718111 L17.9912277,13.9823442 L17.9899602,5.61538583 C17.9899602,3.95844307 16.5275018,2.60276264 14.7400527,2.60276264 L6.36276606,2.60276264 C4.57531692,2.60276264 3.11285854,3.95844307 3.11285854,5.61538583 L3.11285854,26 L17.9899602,26 L17.9899602,15.8146216 L18.8989269,15.9546604 C19.3115026,16.0182087 19.6872894,16.4289076 19.6872894,16.8172648 L19.6872894,23.4450358 C19.6872894,24.7736629 20.8539412,25.8551356 22.2872154,25.8551356 C23.7204897,25.8551356 24.8871415,24.7736629 24.8871415,23.4450358 L24.8871415,15.6122155 C24.8871415,14.5060104 24.183829,13.15033 23.252048,12.4595054 L23.2520155,12.4595566 Z M16.4564589,10.6355036 L4.8292647,10.6355036 L4.8292647,5.61526834 C4.8292647,4.78444711 5.55795896,4.10895674 6.45421846,4.10895674 L14.8315051,4.10895674 C15.7277646,4.10895674 16.4564589,4.78444711 16.4564589,5.61526834 L16.4564589,10.6355036 Z" id="Fill-1" fill="#005596"></path>
    </g>
</svg>