<?xml version="1.0" encoding="UTF-8"?>
<svg width="28px" height="28px" viewBox="0 0 28 28" version="1.1" xmlns="http://www.w3.org/2000/svg" xmlns:xlink="http://www.w3.org/1999/xlink">
    <title>icon-list/icon-list-education</title>
    <g id="icon-list/icon-list-education" stroke="none" stroke-width="1" fill="none" fill-rule="evenodd">
        <path d="M13.3675546,4.42757447 L27,10.6915728 L24.8860039,11.6034311 L24.8861394,17.4928696 C25.1839852,17.7054574 25.3863571,18.1132454 25.3863571,18.5812055 C25.3863571,19.267093 24.9525588,19.8259617 24.4201676,19.8259617 C23.8877764,19.8259617 23.4539781,19.267093 23.4539781,18.5812055 C23.4539781,18.1119105 23.6553085,17.7041191 23.9531596,17.4915347 L23.9531596,17.4915347 L23.9531596,12.0045036 L21.4811099,13.0701123 L21.4811099,21.1016254 L21.2320372,21.2714253 C19.4937092,22.4520046 17.6452843,23.1873647 15.7367632,23.4561064 C15.1825865,23.5336525 14.6242386,23.5724255 14.0617461,23.5724255 C13.0748072,23.5724255 12.0785165,23.4534229 11.084298,23.2140965 C8.42446747,22.5749982 6.70793293,21.3142064 6.63632486,21.2607257 L6.63632486,21.2607257 L6.40281823,21.0869144 L6.40281823,13.2973906 L1,10.7610549 L13.3675546,4.42757447 Z M13.4030075,6.059902 L4.42429005,10.6397345 L13.4030075,14.8157635 L23.3755112,10.6397345 L13.4030075,6.059902 Z" id="Combined-Shape" fill="#90A8B5"></path>
    </g>
</svg>