<?xml version="1.0" encoding="UTF-8"?>
<svg width="28px" height="28px" viewBox="0 0 28 28" version="1.1" xmlns="http://www.w3.org/2000/svg" xmlns:xlink="http://www.w3.org/1999/xlink">
    <title>icon-list/icon-list-agriculture</title>
    <g id="icon-list/icon-list-agriculture" stroke="none" stroke-width="1" fill="none" fill-rule="evenodd">
        <path d="M16.6667603,9.59763868 C21.8072361,7.14117558 26.322078,9.17549247 26.9304253,9.4731077 L26.98243,9.4990462 C26.9940846,9.50499622 27,9.50813855 27,9.50813855 C21.8407745,14.2759187 18.4658679,12.0999981 17.2064656,10.8782149 L17.0856964,10.7575626 C17.0478796,10.7186467 17.0125065,10.6811348 16.9795902,10.6453345 C15.5163983,11.629801 14.2164104,12.8112039 13.0672198,14.0799963 C18.3099825,11.3306765 22.6227751,15.9616205 22.6227751,15.9616205 C15.9791762,20.3881696 12.7989343,16.7954951 11.9107902,15.4456207 C10.4350319,17.3082414 9.25982985,19.2636427 8.3602376,21.007336 C13.2248678,18.1743063 17.3600976,21.8435869 18.1265211,22.5928216 L18.2214388,22.6878313 C18.2427696,22.7097941 18.2536491,22.72154 18.2536491,22.72154 C11.9086603,26.9491229 8.72325072,23.8618898 7.6749378,22.400393 C6.55380874,24.7957609 6.03278058,26.5183753 6.03278058,26.5183753 C5.10408849,27.1448736 4.79519893,26.5183753 4.79519893,26.5183753 C7.96503361,16.3154727 13.0653562,11.45503 16.6667603,9.59763868 Z M4.73902267,9.28287196 C11.3126835,16.3398053 5.69268524,20.4041461 5.69372624,20.4041461 C0.251578067,15.3435324 4.73902267,9.28287196 4.73902267,9.28287196 Z M13.0203619,3.203181 C15.9636252,10.6540236 11.3370832,12.708361 10.3030894,13.0654613 L10.2192974,13.0933523 C10.1460234,13.1167736 10.1052354,13.1270946 10.1053198,13.1270946 C7.11120504,6.88529367 13.0203619,3.203181 13.0203619,3.203181 Z" id="Combined-Shape" fill="#FFB74D"></path>
    </g>
</svg>