<?xml version="1.0" encoding="UTF-8"?>
<svg width="28px" height="28px" viewBox="0 0 28 28" version="1.1" xmlns="http://www.w3.org/2000/svg" xmlns:xlink="http://www.w3.org/1999/xlink">
    <title>icon-list/icon-list-batiments</title>
    <g id="icon-list/icon-list-batiments" stroke="none" stroke-width="1" fill="none" fill-rule="evenodd">
        <path d="M25.843681,19.3875214 C25.7417392,19.2166285 25.6189702,19.0648729 25.4808459,18.9404796 C25.0741788,18.5823002 24.6269347,18.3006635 24.1533971,18.1065242 C24.4438896,12.4261918 21.6673173,7.19804606 17.3583069,5.31825152 L17.3594041,12.3071953 C17.2848672,12.7050286 17.0360516,13.0153644 16.7170485,13.1083567 C16.2533885,13.2437047 15.788606,12.8855113 15.6800922,12.3071953 L15.6800922,4.78101737 C14.5675102,4.54860323 13.4329841,4.54860323 12.3214123,4.78101737 L12.3214123,12.3071953 C12.2468754,12.7050286 11.9980598,13.0153644 11.6790567,13.1083567 C11.2153967,13.2450696 10.7506142,12.8855113 10.6421004,12.3071953 L10.6421004,5.31825152 C6.33410027,7.19808106 3.55657385,12.4247918 3.84701028,18.1065242 C3.37347262,18.30066 2.92625663,18.5823002 2.51956087,18.9404796 C2.38144502,19.0648904 2.25867599,19.2166425 2.15672579,19.3875214 C2.07670564,19.521501 2.02409034,19.6787233 2.00436031,19.8455179 C1.9901104,20.0013718 2.01093736,20.1613276 2.06464762,20.3035144 C2.13151254,20.4744074 2.22359071,20.6288963 2.33649331,20.756051 C2.67738487,21.1265501 3.06873043,21.4163766 3.492936,21.6105158 C4.91026581,22.281796 6.39112683,22.7206481 7.89943199,22.9147874 C9.92291808,23.233334 11.9607716,23.3932932 13.999439,23.3932932 C16.0393691,23.3932932 18.0759318,23.2333375 20.1005685,22.9147874 C21.6088736,22.7206516 23.0896785,22.281796 24.5070644,21.6105158 C24.93127,21.4150151 25.3225875,21.1251852 25.6635066,20.756051 C25.7764092,20.6289068 25.8684873,20.4744179 25.9353523,20.3021494 C25.9890648,20.1599661 26.0098892,20.0000104 25.9956396,19.842788 C25.9770039,19.6800988 25.9243886,19.521508 25.8432741,19.3875214 L25.843681,19.3875214 Z" id="Fill-1" fill="#03B38B"></path>
    </g>
</svg>