<?xml version="1.0" encoding="UTF-8"?>
<svg width="28px" height="28px" viewBox="0 0 28 28" version="1.1" xmlns="http://www.w3.org/2000/svg" xmlns:xlink="http://www.w3.org/1999/xlink">
    <title>icon-list/icon-list-commerce</title>
    <g id="icon-list/icon-list-commerce" stroke="none" stroke-width="1" fill="none" fill-rule="evenodd">
        <path d="M18.5236272,18.9797614 L24.005666,22.6656419 L18.5236272,26.3515224 L18.5236272,23.9897454 L10.6499702,23.9897454 L10.6499702,21.3415384 L18.5236272,21.3415384 L18.5236272,18.9797614 Z M9.47637279,15.2197373 L9.47637279,17.5815142 L17.3500298,17.5815142 L17.3500298,20.2297212 L9.47637279,20.2297212 L9.47637279,22.5914982 L3.99433395,18.9056177 L9.47637279,15.2197373 Z M16.0526538,13.9765766 C15.8489479,14.0621882 15.5433891,14.0621882 15.3396506,14.1477998 L14.9322388,14.2334114 L14.9322388,15.0895275 L13.5062976,15.0895275 L13.5062976,14.2334114 L13.3025917,14.2334114 C10.5525297,13.7197418 9.22847402,12.5211793 9.4321799,10.7233629 L11.9784709,10.7233629 L11.9784709,10.9801977 L11.9784709,11.1514209 C12.0803238,12.007537 12.6914741,12.5212067 13.7099383,12.6067909 L14.321056,12.6067909 C15.1358795,12.6067909 15.6451116,12.2643444 15.8488827,11.6650358 C16.1544415,10.9801429 15.8488827,10.2952501 15.237765,9.95280363 C14.9322062,9.78158041 14.5247618,9.61035719 14.2192356,9.52474559 L14.1173827,9.52474559 C14.0155297,9.43913398 13.8118238,9.43913398 13.7099709,9.35352237 C13.506265,9.26791076 13.2007062,9.18229915 12.8951474,9.01107594 C12.2840297,8.75424111 11.672912,8.5830179 11.1636799,8.24059886 C10.1451505,7.6412902 9.63585319,6.61395091 9.73773873,5.58661161 C9.83959167,4.47368809 10.5525623,3.53193301 11.6729772,3.10390236 C12.080389,2.93267915 12.3859804,2.84706754 12.8952125,2.76145593 C12.9970655,2.76145593 13.2007714,2.67584432 13.3026243,2.67584432 L13.5063302,2.59023271 L13.5063302,1.64847763 L14.9322714,1.64847763 L14.9322714,2.67581693 L15.1359773,2.67581693 C16.5619185,2.93265175 17.376742,3.446294 17.9878597,4.21682587 C18.3952714,4.73049552 18.5989773,5.50102739 18.4971244,6.10028126 L15.9508334,6.10028126 L15.9508334,5.84344643 C15.9508334,5.67222321 15.8489805,5.501 15.8489805,5.24413778 C15.6452746,4.64482912 15.0341569,4.30238269 14.2193334,4.30238269 C13.4045099,4.30238269 12.8952777,4.55921752 12.6915067,5.15849877 C12.3859478,5.84339164 12.5896537,6.52828451 13.2007714,6.87073094 C13.6081831,7.12756576 14.0155949,7.21317737 14.4230067,7.38440059 C14.6267126,7.4700122 14.7285655,7.4700122 14.9322714,7.5556238 C15.1359773,7.64123541 15.4415361,7.72684702 15.6452746,7.81245863 C16.1545393,7.98368185 16.663804,8.15490506 17.0712158,8.41176728 C18.3952714,9.09666015 18.9045688,10.1239994 18.7008629,11.5793694 C18.4971244,12.7780141 17.5804153,13.6341302 16.0526538,13.9765766 Z" id="Combined-Shape" fill="#6D7278"></path>
    </g>
</svg>