<?xml version="1.0" encoding="UTF-8"?>
<svg width="28px" height="28px" viewBox="0 0 28 28" version="1.1" xmlns="http://www.w3.org/2000/svg" xmlns:xlink="http://www.w3.org/1999/xlink">
    <title>icon-list/icon-list-santé</title>
    <g id="icon-list/icon-list-santé" stroke="none" stroke-width="1" fill="none" fill-rule="evenodd">
        <path d="M17.1413257,25 C17.7315231,25 18.2106506,24.5208686 18.2106506,23.9306716 L18.2095919,18.2095755 L23.9296084,18.2095755 C24.5198058,18.2095755 24.9989333,17.7304482 24.9989333,17.1402512 L24.999992,10.8586616 C24.999992,10.2684645 24.5208645,9.78933728 23.9306671,9.78933728 L18.2106506,9.78933728 L18.2095919,4.06932428 C18.2095919,3.47912724 17.7304644,3 17.140267,3 L10.8586735,3 C10.2684761,3 9.78934858,3.47912724 9.78934858,4.06932428 L9.78934858,9.78933728 L4.06933211,9.78933728 C3.47913472,9.78933728 3.000008,10.2684645 3.000008,10.8586616 L3.000008,17.1402512 C3.000008,17.7304482 3.47913472,18.2095755 4.06933211,18.2095755 L9.78934858,18.2095755 L9.78934858,23.9295885 C9.78934858,24.5208415 10.2684761,25 10.8586735,25 L17.1413257,25 Z" id="Fill-1" fill="#F44336"></path>
    </g>
</svg>