<?xml version="1.0" encoding="UTF-8"?>
<svg width="28px" height="28px" viewBox="0 0 28 28" version="1.1" xmlns="http://www.w3.org/2000/svg" xmlns:xlink="http://www.w3.org/1999/xlink">
    <title>icon-list/icon-list-textile</title>
    <g id="icon-list/icon-list-textile" stroke="none" stroke-width="1" fill="none" fill-rule="evenodd">
        <path d="M25.5809975,6.70304632 C25.1225243,6.7474588 24.7730246,7.16493618 24.7781562,7.66235604 L24.7781562,8.90258008 C24.7781562,8.9070199 24.775072,8.9103512 24.7719904,8.91146257 L23.0563341,8.91146257 C23.052221,8.91146257 23.0481104,8.9070199 23.0481104,8.90258008 L23.0481104,8.37406437 C23.0481104,7.58575338 22.758216,6.83072689 22.2421901,6.27336083 C21.7261643,5.71599478 21.0271387,5.40287608 20.2972972,5.40287608 L9.38651808,5.40287608 C9.38137861,5.40287608 9.3782944,5.39843341 9.37726545,5.39399358 L9.37726545,3.3488021 C9.3782944,3.18336594 9.31558657,3.02570658 9.20456825,2.91357394 C9.0935473,2.80032138 8.94449481,2.74258657 8.79235811,2.7525776 C8.49117419,2.78699622 8.26501651,3.0656963 8.27220071,3.39211742 L8.27220071,5.39401917 C8.27220071,5.39845899 8.26809019,5.40290166 8.26295072,5.40290166 L3.35137536,5.40290166 C2.86103371,5.40290166 2.38921837,5.61386169 2.04174501,5.98914649 C1.69429797,6.36442846 1.5,6.8729621 1.5,7.40369487 L1.5,10.8856339 C1.5,11.3675058 1.66242695,11.8338298 1.95540299,12.1980264 L4.43484907,15.262417 C4.43484907,15.2646369 4.43690433,15.2646369 4.43690433,15.2668568 L4.66305675,18.4634189 C4.67025148,18.5733402 4.75454614,18.6577225 4.85631446,18.6577225 C4.95705384,18.6577225 5.04134587,18.5733374 5.04854323,18.4634189 L5.26646934,15.262309 C5.26646934,15.2600891 8.05541407,11.9503454 8.05541407,11.9503454 C8.21783234,11.7493793 8.45322949,11.6339011 8.70096609,11.6327926 L12.5414888,11.6327926 L12.5404598,11.6327926 C14.3435108,11.633904 15.804141,13.2116601 15.8051936,15.159073 L15.8051936,20.9649576 C15.8051936,21.2247699 15.71062,21.4734912 15.5410096,21.6566839 C15.3713993,21.8398765 15.1411416,21.9431409 14.9016155,21.9431409 L2.22162827,21.9431409 C2.03042845,21.9431409 1.84641809,22.0253033 1.71176033,22.1718659 C1.57606835,22.3173171 1.5,22.516052 1.5,22.7225807 L1.5,24.4690929 C1.5,24.6756103 1.57606835,24.8743622 1.71176033,25.0198077 C1.84642336,25.1663675 2.03041792,25.2485328 2.22162827,25.2485328 L21.518454,25.2485328 C21.9245062,25.2485328 22.3130585,25.0753226 22.599874,24.7655523 C22.8866632,24.4557876 23.0480578,24.0349704 23.0480578,23.5974968 L23.0480578,12.1858354 C23.0480578,12.1813927 23.0521683,12.1780614 23.0573078,12.1780614 L24.7719378,12.1780614 C24.775022,12.1780614 24.7781062,12.1813927 24.7781062,12.1858354 L24.7781062,13.4571553 C24.7770772,13.7136363 24.8757613,13.9601178 25.0494743,14.1355507 C25.2232005,14.3120892 25.4575792,14.4020256 25.6950264,14.3842606 C26.1545259,14.342068 26.5060782,13.9234793 26.5,13.4249509 L26.5,7.63128862 C26.5,7.37369619 26.4002073,7.12832608 26.2264732,6.95178467 C26.0517208,6.77635463 25.8183683,6.68642112 25.5809212,6.70307474 L25.5809975,6.70304632 Z M4.85128026,11.5527501 C4.23038611,11.5538592 3.67117611,11.1496956 3.43270265,10.5312464 C3.19524498,9.91168864 3.3268238,9.19776323 3.76575497,8.72365105 C4.20468613,8.24953886 4.86464866,8.10852744 5.43825339,8.36502554 C6.01185811,8.62150659 6.38501565,9.22661358 6.38501565,9.89724925 C6.3839867,10.8110237 5.69833209,11.5527501 4.85130657,11.5527501 L4.85128026,11.5527501 Z" id="Fill-1" fill="#9E6648"></path>
    </g>
</svg>