<?xml version="1.0" encoding="UTF-8"?>
<svg width="28px" height="28px" viewBox="0 0 28 28" version="1.1" xmlns="http://www.w3.org/2000/svg" xmlns:xlink="http://www.w3.org/1999/xlink">
    <title>icon-list/icon-list-communication</title>
    <g id="icon-list/icon-list-communication" stroke="none" stroke-width="1" fill="none" fill-rule="evenodd">
        <path d="M19.9026078,2.50032748 C19.4893221,2.50122677 19.0850293,2.62341335 18.7400303,2.85160381 C18.7337422,2.85160381 18.7274517,2.85160381 18.7274517,2.85789197 C18.6951092,2.87316615 18.66546,2.8929299 18.6376093,2.91539153 C18.6061638,2.9459376 18.5720227,2.97379039 18.5351883,2.9989453 C18.4417511,3.06542859 18.3519065,3.13730305 18.2674462,3.21546795 C16.8488104,4.34029742 11.5650363,8.39755863 6.95263016,10.0839058 C6.92927143,10.0901963 6.90770899,10.1009763 6.88884215,10.1153512 C6.87895908,10.1162505 6.86907831,10.1207424 6.86278783,10.1288291 C6.61213458,10.2159777 6.37673029,10.3435532 6.16651092,10.5052672 C5.7083063,10.1530939 5.14768298,9.96081537 4.56999372,9.9563304 C2.80635971,9.9563304 1.375074,11.7711546 1.375074,14.0001597 C1.375074,16.2300618 2.80629071,18.043989 4.56999372,18.043989 C5.14768298,18.0394972 5.7083063,17.8472324 6.16651092,17.4950522 C6.38483087,17.663059 6.62830353,17.7942339 6.88884675,17.8849682 C6.90771359,17.8993431 6.92927603,17.9101254 6.95263476,17.9164136 C7.01013459,17.9352804 7.06763441,17.9613346 7.12513424,17.9802013 L7.12513424,23.583649 C7.12513424,24.6420092 7.98314666,25.4999945 9.04148848,25.4999945 C10.1007503,25.4999945 10.9587397,24.641986 10.9587397,23.583649 L10.9587397,19.8137474 C13.512882,21.2898762 15.9559347,22.9511536 18.2674278,24.7847001 C18.3518812,24.8628627 18.4417235,24.9347372 18.53517,25.0012228 C18.5720066,25.02638 18.6061454,25.0542305 18.6375909,25.0847766 C18.6654416,25.1072375 18.6950908,25.1270019 18.7274333,25.1422761 C18.7274333,25.1485652 18.7337238,25.1485652 18.7400119,25.1485652 C19.0850109,25.376767 19.4893037,25.4989444 19.9025894,25.4999945 C22.8026507,25.4999945 24.374926,19.5773874 24.374926,13.9999297 C24.374926,8.42247204 22.8035707,2.50000548 19.9025894,2.50000548 L19.9026078,2.50032748 Z M9.68028856,23.5838077 C9.68028856,23.935981 9.39458342,24.2225819 9.04151148,24.2225819 C8.68933654,24.2225819 8.4027344,23.935981 8.4027344,23.5838077 L8.4027344,18.510276 C8.82409313,18.7016414 9.25265085,18.906494 9.68031156,19.1301903 L9.68028856,23.5838077 Z M16.7088374,14.0002402 C16.7088374,13.0227476 16.7537586,12.0964757 16.8364158,11.2402612 C17.8139128,11.3426817 18.6251894,12.5627511 18.6251894,14.0002402 C18.6251894,15.4377293 17.8139128,16.65787 16.8364158,16.7602193 C16.7528616,15.9040048 16.7088374,14.9777328 16.7088374,14.0002402 Z M19.9037578,24.2225131 L19.9028585,24.2225131 C19.7177804,24.2171226 19.5398966,24.1551305 19.3916391,24.0437263 C19.3727722,24.0329451 19.3557017,24.0203676 19.3404274,24.0050935 C19.2649601,23.9592732 19.1966779,23.9035699 19.1364824,23.8388829 C19.129295,23.8307971 19.1203112,23.824508 19.1104281,23.8200157 C18.2730926,23.0087429 17.4105952,20.9836772 16.9829345,18.0252097 C18.6126866,17.852711 19.9027757,16.1151432 19.9027757,14.0002402 C19.9027757,11.8853373 18.6126176,10.1477694 16.9829345,9.97527076 C17.4105952,7.0177232 18.2730926,4.99166857 19.1104281,4.18046473 C19.1203112,4.17597286 19.1292973,4.16968241 19.1364824,4.16159797 C19.1966779,4.09691096 19.2649578,4.04120769 19.3404274,3.99538743 C19.3557017,3.98011325 19.3727699,3.96753695 19.3916391,3.95675463 C19.5398805,3.84534807 19.7177781,3.78335664 19.9028585,3.77796778 C21.2316335,3.77796778 23.0977789,7.66907826 23.0977789,14.0002402 C23.0977789,20.3314022 21.2317255,24.2225131 19.9028585,24.2225131 L19.9037578,24.2225131 Z" id="Fill-1" fill="#3C8694"></path>
    </g>
</svg>