<?xml version="1.0" encoding="UTF-8"?>
<svg width="28px" height="28px" viewBox="0 0 28 28" version="1.1" xmlns="http://www.w3.org/2000/svg" xmlns:xlink="http://www.w3.org/1999/xlink">
    <title>icon-list/icon-list-bienetre</title>
    <g id="icon-list/icon-list-bienetre" stroke="none" stroke-width="1" fill="none" fill-rule="evenodd">
        <path d="M15.6962155,21.0037581 C15.4134413,20.9539183 15.131721,20.8910784 14.8511103,20.81632 C16.3506041,19.329807 17.3885615,17.4099934 17.8089368,15.3405688 C20.3431429,13.2321466 23.8502365,12.5377896 27,13.5073487 C25.8461037,18.5551249 20.8069814,21.9095842 15.6962432,21.0037082 L15.6962155,21.0037581 Z M12.3048665,21.0037581 C7.19412838,21.9095232 2.15494972,18.5551471 1,13.5062892 C4.15059589,12.5365914 7.65677417,13.2310898 10.1910635,15.3395092 C10.610357,17.4034975 11.646151,19.3374567 13.14889,20.8152605 C12.869361,20.8911033 12.5876685,20.9528588 12.3048665,21.0037831 L12.3048665,21.0037581 Z M6.49433503,8.01195444 C7.97216657,8.3500076 9.33289436,9.01848638 10.4878446,9.94810486 C10.0566244,11.2904988 9.89736105,12.705507 10.0154633,14.1108075 C8.85832185,13.3058093 7.55276208,12.736988 6.17450478,12.4390419 C5.94589452,10.9731094 6.04774039,9.46069033 6.49411313,8.01195444 L6.49433503,8.01195444 Z M11.5096594,9.67398446 C12.0448918,8.29148347 12.889997,7.03143938 14.000541,6 C16.009278,7.8657273 17.1749901,10.5462992 17.1522461,13.2894448 C17.1305783,15.9785873 15.9701972,18.5962804 14.000541,20.4260611 C11.0837646,17.7163381 10.0730444,13.3901285 11.5096594,9.67370709 L11.5096594,9.67398446 Z M21.506747,8.01189896 C21.9531391,9.46055164 22.0549878,10.9742188 21.8263553,12.4389864 C20.4481812,12.7369325 19.1426215,13.3068356 17.9853968,14.110752 C18.1034935,12.705507 17.9442247,11.2916082 17.5130155,9.94804938 C18.6669118,9.01734918 20.0288045,8.34995213 21.5065251,8.01189896 L21.506747,8.01189896 Z" id="Fill-1" fill="#7A5FDB"></path>
    </g>
</svg>