<?xml version="1.0" encoding="UTF-8"?>
<svg width="18px" height="18px" viewBox="0 0 18 18" version="1.1" xmlns="http://www.w3.org/2000/svg" xmlns:xlink="http://www.w3.org/1999/xlink">
    <title>icon-filters</title>
    <g id="icon-filters" stroke="none" stroke-width="1" fill="none" fill-rule="evenodd">
        <rect id="Rectangle" x="0" y="0" width="18" height="18"></rect>
        <path d="M9,11.8000564 C9.91820521,11.8000564 10.6986193,12.3895857 10.9840785,13.2104245 L11.0185311,13.204956 L11.1000151,13.2000336 L15.3000046,13.2000336 C15.6866416,13.2000336 16,13.5133974 16,13.9000376 C16,14.2587897 15.7298455,14.5546534 15.3814843,14.5951136 L15.3000004,14.6000361 L11.1000109,14.6000361 C11.060636,14.6000361 11.0218085,14.5967544 10.9840743,14.5901926 C10.6986011,15.4105126 9.91821501,16 9,16 C8.08178361,16 7.30138356,15.4104706 7.01592427,14.5896312 L6.98147176,14.595101 L6.89998776,14.6000221 L2.69999827,14.6000221 C2.31336124,14.6000221 2,14.2866583 2,13.900018 C2,13.541266 2.27015734,13.2454023 2.61851847,13.204942 L2.70000247,13.200021 L6.89999196,13.200021 C6.93936686,13.200021 6.97819437,13.2033026 7.01592847,13.2098645 C7.30140176,12.3895437 8.08178781,11.8000564 9,11.8000564 Z M9.00000351,13.2000644 C8.61336648,13.2000644 8.30000526,13.5134282 8.30000526,13.9000684 C8.30000526,14.2867087 8.61336648,14.6000725 9.00000351,14.6000725 C9.38664054,14.6000725 9.70000176,14.2867087 9.70000176,13.9000684 C9.70000176,13.5134282 9.38664054,13.2000644 9.00000351,13.2000644 Z M4.10001577,6.90002818 C5.01821747,6.90002818 5.79863152,7.48955757 6.0840908,8.31039629 L6.11854332,8.30492786 L6.20002731,8.30000543 L15.3000046,8.30000543 C15.6866416,8.30000543 16,8.61336923 16,9.00000945 C16,9.35876152 15.7298455,9.65462522 15.3814843,9.69508545 L15.3000004,9.70000788 L6.20002311,9.70000788 C6.16064821,9.70000788 6.12182071,9.69672626 6.0840866,9.69016442 C5.79861332,10.5104851 5.01822727,11.0999711 4.10001157,11.0999711 C2.94008647,11.0999711 2.00001679,10.1598951 2.00001679,8.99995905 C2.00001679,7.84002438 2.94008647,6.89994698 4.10001157,6.89994698 L4.10001577,6.90002818 Z M4.10001577,8.30003623 C3.71337873,8.30003623 3.40001752,8.61340003 3.40001752,9.00004025 C3.40001752,9.38668048 3.71337873,9.70004428 4.10001577,9.70004428 C4.4866528,9.70004428 4.80001402,9.38668048 4.80001402,9.00004025 C4.80001402,8.61340003 4.4866528,8.30003623 4.10001577,8.30003623 Z M11.7999965,2 C12.7181982,2 13.4986123,2.58952939 13.7840715,3.41036811 L13.8185241,3.40489968 L13.9000081,3.39997725 L15.3000046,3.39997725 C15.6866416,3.39997725 16,3.71334105 16,4.09998128 C16,4.45873334 15.7298455,4.75459704 15.3814843,4.79505727 L15.3000004,4.7999797 L13.9000039,4.7999797 C13.860629,4.7999797 13.8218014,4.79669808 13.7840673,4.79013625 C13.4985941,5.61045696 12.718208,6.19994295 11.7999923,6.19994295 C10.8817766,6.19994295 10.1013766,5.61041496 9.81591727,4.78957484 L9.78146476,4.79504467 L9.69998076,4.7999657 L2.69999827,4.7999657 C2.31336124,4.7999657 2,4.4866019 2,4.09996168 C2,3.74120961 2.27015734,3.44534591 2.61851847,3.40488568 L2.70000247,3.39996465 L9.69998496,3.39996465 C9.73935986,3.39996465 9.77818736,3.40324627 9.81592147,3.40980811 C10.1013948,2.58948739 10.8817808,2 11.7999965,2 Z M11.7999965,3.40000805 C11.4133595,3.40000805 11.0999983,3.71337185 11.0999983,4.10001208 C11.0999983,4.4866523 11.4133595,4.8000161 11.7999965,4.8000161 C12.1866335,4.8000161 12.4999948,4.4866523 12.4999948,4.10001208 C12.4999948,3.71337185 12.1866335,3.40000805 11.7999965,3.40000805 Z" id="Fill-1" fill="#9E9E9E"></path>
    </g>
</svg>