<?xml version="1.0" encoding="UTF-8"?>
<svg width="16px" height="16px" viewBox="0 0 16 16" version="1.1" xmlns="http://www.w3.org/2000/svg" xmlns:xlink="http://www.w3.org/1999/xlink">
    <title>icon-help</title>
    <g id="icon-help" stroke="none" stroke-width="1" fill="none" fill-rule="evenodd">
        <path d="M8,0 C10.12176,0 12.15672,0.8432 13.6568,2.3432 C15.15688,3.8432 16,5.87824 16,8 C16,10.12176 15.1568,12.15672 13.6568,13.6568 C12.1568,15.15688 10.12176,16 8,16 C5.87824,16 3.84328,15.1568 2.3432,13.6568 C0.84312,12.1568 0,10.12176 0,8 C0,5.87824 0.8432,3.84328 2.3432,2.3432 C3.8432,0.84312 5.87808,0 8,0 Z M8,1.28 C6.2176,1.28 4.508784,1.98816 3.24816,3.24816 C1.988128,4.5088 1.28,6.2176 1.28,8 C1.28,9.7824 1.98816,11.491216 3.24816,12.75184 C4.5088,14.011872 6.2176,14.7199997 8,14.7199997 C9.7824,14.7199997 11.491216,14.01184 12.75184,12.75184 C14.011872,11.4912 14.72,9.7824 14.72,8 C14.72,6.2176 14.01184,4.508784 12.75184,3.24816 C11.4912,1.988128 9.78256,1.28 8,1.28 Z M7.8706688,10.4662384 C8.3225408,10.4831136 8.6887968,10.8374864 8.7212928,11.2887344 C8.7537936,11.7393584 8.4412928,12.1424784 7.9969248,12.2237424 L7.9188,12.24 L7.75504,12.24 C7.7069152,12.2306256 7.6587904,12.2224992 7.6125408,12.2093744 C7.1756608,12.095 6.8944128,11.6699984 6.9606688,11.2224944 C7.0262944,10.7749904 7.4187968,10.4493744 7.8706688,10.4662384 Z M7.7249984,3.756888 L8.07376,3.76 L8.246256,3.7762496 C8.674384,3.8031248 9.093136,3.9118752 9.48,4.0962496 C9.825632,4.255 10.120624,4.5068736 10.331248,4.8237536 C10.491872,5.0737536 10.591248,5.3574976 10.620624,5.6525056 C10.6543744,5.9081376 10.6337488,6.1675136 10.5599984,6.4143776 C10.4687488,6.7087456 10.3099984,6.9781216 10.0962544,7.2000096 C9.8512624,7.4450016 9.5837584,7.6650016 9.2962544,7.8575136 L9.0662564,8.0261882 L9.0662564,8.0261882 L8.8431328,8.1981376 C8.7068832,8.3106368 8.6050048,8.4587616 8.5475008,8.6256416 L8.4450016,8.8850176 L8.4450016,8.8850176 C8.3606272,9.1200256 8.1381216,9.2781376 7.8881216,9.2800256 C7.7499968,9.2950256 7.6099936,9.2731504 7.4831296,9.2162752 C7.2881216,9.1206496 7.1525056,8.9362752 7.1200096,8.7219072 C7.06876,8.4244032 7.1381344,8.1194112 7.3118816,7.8737792 C7.450632,7.6712832 7.6200096,7.4919072 7.8143776,7.3425312 C8.0237536,7.1712832 8.2400096,7.0081632 8.4543776,6.8368992 C8.6325056,6.7006496 8.7812576,6.5306432 8.8925056,6.3362752 C9.0700096,5.9987712 9.0256304,5.5881472 8.7806304,5.2962752 C8.6537552,5.1575248 8.4856224,5.0644032 8.3006304,5.0306432 C8.0549984,4.9731424 7.7987584,4.9775184 7.5549984,5.0431424 C7.3025024,5.1125168 7.0918784,5.2875104 6.9774944,5.5231424 C6.9024944,5.663768 6.8368688,5.8081344 6.7662464,5.9506464 C6.7149968,6.0581472 6.6449968,6.1562784 6.5599904,6.2400224 C6.41124,6.370648 6.2149984,6.4337664 6.0174944,6.4143904 C5.8974944,6.4112656 5.7799904,6.3793904 5.6749984,6.3218912 C5.4781184,6.219392 5.3543744,6.0156352 5.3549984,5.7937632 C5.3468736,5.4400192 5.4599984,5.0950112 5.6749984,4.8143872 C5.9243744,4.4781312 6.2543744,4.2106432 6.6349984,4.0368848 C6.9225024,3.9006352 7.2300064,3.8118912 7.5456224,3.7743888 L7.7249984,3.756888 Z" id="Combined-Shape" fill="#FFFFFF"></path>
    </g>
</svg>