<?xml version="1.0" encoding="UTF-8"?>
<svg width="95px" height="133px" viewBox="0 0 95 133" version="1.1" xmlns="http://www.w3.org/2000/svg" xmlns:xlink="http://www.w3.org/1999/xlink">
    <title>logo-carré</title>
    <g id="logo-carré" stroke="none" stroke-width="1" fill="none" fill-rule="evenodd">
        <path d="M47.3762182,0 C21.2115636,0 0,21.2115636 0,47.3762182 C0,63.1220364 7.68596364,77.0716364 19.5078545,85.6865455 L19.5078545,47.3762182 C19.5078545,31.9850182 31.9850182,19.5078545 47.3762182,19.5078545 C62.7674182,19.5078545 75.2445818,31.9850182 75.2445818,47.3762182 C75.2445818,62.7674182 62.7674182,75.2445818 47.3762182,75.2445818 C42.2997818,75.2445818 37.5432727,73.8800727 33.4420364,71.5056727 L33.4420364,132.596364 L56.4421091,93.8813091 C78.2704,89.6528727 94.7524364,70.4379636 94.7524364,47.3762182 C94.7524364,21.2115636 73.5408727,0 47.3762182,0 Z" id="Path" fill="#05BF95" fill-rule="nonzero"></path>
        <circle id="Oval" fill="#FBCC47" fill-rule="nonzero" transform="translate(47.377915, 47.380762) rotate(-10.899809) translate(-47.377915, -47.380762) " cx="47.3779146" cy="47.3807623" r="13.9347588"></circle>
    </g>
</svg>