<?xml version="1.0" encoding="UTF-8"?>
<svg width="58.6603426px" height="10px" viewBox="0 0 58.6603426 10" version="1.1" xmlns="http://www.w3.org/2000/svg" xmlns:xlink="http://www.w3.org/1999/xlink">
    <title>rating-stars</title>
    <g id="rating-stars" stroke="none" stroke-width="1" fill="none" fill-rule="evenodd">
        <g id="Group-6" transform="translate(0.000000, 0.000000)">
            <polygon id="Fill-1" fill="#FBCC47" points="6.60346203 3.66109059 5.26463296 0.000196361598 3.92580388 3.66109059 0 3.83890494 3.03325116 6.24808324 1.96290194 9.99957157 5.26463296 7.85539218 8.47925083 9.99957157 7.40890161 6.24808324 10.5328361 3.83890494"></polygon>
            <polygon id="Fill-2" fill="#FBCC47" points="18.6362982 3.66109059 17.2974691 0.000196361598 15.95864 3.66109059 12.0328361 3.83890494 15.0660873 6.24808324 13.9957381 9.99957157 17.2974691 7.85539218 20.5120869 9.99957157 19.5288509 6.24808324 22.565583 3.83890494"></polygon>
            <polygon id="Fill-3" fill="#FBCC47" points="26.0284849 10 29.3302159 7.8558206 32.631947 10 31.5615977 6.24851167 34.5948489 3.83933337 30.669045 3.66151902 29.3302159 0.000624786902 27.9913869 3.66151902 24.065583 3.83933337 27.0988341 6.24851167"></polygon>
            <polygon id="Fill-4" fill="#FBCC47" points="42.7017919 3.66109059 41.3629628 0.000196361598 40.0241337 3.66109059 36.0948489 3.83890494 39.131581 6.24808324 38.1483449 9.99957157 41.3629628 7.85539218 44.6646938 9.99957157 43.5943446 6.24808324 46.6275958 3.83890494"></polygon>
            <polygon id="Fill-5" fill="#BDBDBD" points="58.6603426 3.83870858 54.7345388 3.66089423 53.3957097 0 52.0568806 3.66089423 48.1275958 3.83870858 51.2515303 6.24788688 50.1811811 9.99937521 53.3957989 7.85519582 56.6975299 9.99937521 55.6271807 6.24788688"></polygon>
        </g>
    </g>
</svg>