<?xml version="1.0" encoding="UTF-8"?>
<svg width="280px" height="166.6072px" viewBox="0 0 280 166.6072" version="1.1" xmlns="http://www.w3.org/2000/svg" xmlns:xlink="http://www.w3.org/1999/xlink">
    <title>warning</title>
    <g id="warning" stroke="none" stroke-width="1" fill="none" fill-rule="evenodd">
        <path d="M249.091596,64.3718496 C247.426104,67.4620993 245.351199,70.5834644 243.223888,73.1218252 L243.223888,73.1234629 C240.996681,75.78301 238.717069,77.8038728 236.792828,78.4884115 L236.778089,78.4933244 C236.676555,78.5277151 236.578296,78.5604682 236.478399,78.5866706 L236.46366,78.5899459 L236.462022,78.5915835 C236.072261,78.7029439 235.698877,78.7520735 235.345144,78.7356969 C229.030357,78.4523831 222.374938,64.9057242 222.374938,64.9057242 C222.374938,64.9057242 222.548529,63.3008251 223.776769,62.1659321 C224.847793,61.1767902 225.671532,60.9180411 225.671532,60.9180411 C225.671532,60.9180411 232.472702,67.9026277 234.134919,68.4053869 C235.179741,68.7198162 236.553731,63.8428879 238.522189,57.7180688 C240.492284,51.5932496 247.40809,50.0833343 247.40809,50.0833343 C247.40809,50.0833343 254.407415,54.5131834 249.091596,64.3718496" id="Fill-12" fill="#90DDC9"></path>
        <path d="M243.223888,73.1218252 L243.223888,73.1234629 C240.996681,75.78301 238.717069,77.8038728 236.792828,78.4884115 L236.778089,78.4933244 L236.478399,78.5866706 L236.462022,78.5915835 L236.46366,78.5899459 C236.534079,78.5440916 238.592608,77.4763424 238.915225,75.4931456 C239.246031,73.4690075 237.102344,71.8117035 242.488582,68.6788749 C245.626324,66.8528927 243.223888,73.1218252 243.223888,73.1218252" id="Fill-13" fill-opacity="0.2" fill="#000000"></path>
        <path d="M238.294555,166.024196 L253.094018,166.024196 C254.153579,165.305267 252.807429,158.274826 252.807429,158.274826 C252.807429,158.274826 248.768979,156.741984 248.071339,159.858436 C247.370424,162.97325 242.925836,163.96403 240.574167,164.343965 C238.964355,164.605989 238.455045,165.490322 238.294555,166.024196" id="Fill-14" fill="#24406D"></path>
        <path d="M260.86304,93.1519491 C260.86304,93.1519491 260.396309,101.785651 259.811667,111.790069 C259.392428,118.962985 258.914234,126.84173 258.503183,132.742191 C258.449141,133.524989 258.395098,134.273396 258.342693,134.980861 C258.327954,135.200307 258.311578,135.418114 258.295201,135.635922 C257.23564,148.866514 253.691761,160.457816 253.691761,160.457816 C249.532125,161.33396 247.6521,159.730699 247.6521,159.730699 C247.6521,159.730699 244.784571,126.129351 243.723372,112.577779 C242.942212,102.60284 242.275688,88.0785027 242.275688,88.0785027 L260.86304,93.1519491" id="Fill-15" fill="#104D4D"></path>
        <path d="M259.811667,111.790069 C259.392428,118.962985 258.914234,126.84173 258.503183,132.742191 C255.783043,126.32587 250.224851,101.315645 250.224851,101.315645 L259.811667,111.790069" id="Fill-16" fill="#073D3D"></path>
        <path d="M260.24237,166.024196 L275.04347,166.024196 C276.103031,165.305267 274.756881,158.274826 274.756881,158.274826 C274.756881,158.274826 270.716793,156.741984 270.019153,159.858436 C269.319876,162.97325 264.875288,163.96403 262.521982,164.343965 C260.91217,164.605989 260.404497,165.490322 260.24237,166.024196" id="Fill-17" fill="#24406D"></path>
        <path d="M246.296124,91.4356897 C246.296124,91.4356897 256.863893,117.742934 260.24237,127.714599 C262.649719,134.817096 269.436149,159.735612 269.436149,159.735612 C269.436149,159.735612 272.388836,160.634683 274.868242,158.898772 C274.868242,158.898772 277.393501,133.439831 272.293852,126.262001 C269.586813,122.452822 271.620777,86.6701218 260.648508,86.3638808 C249.676238,86.0576399 246.296124,91.4356897 246.296124,91.4356897" id="Fill-18" fill="#104D4D"></path>
        <path d="M267.93606,82.9739408 C267.891843,86.7143384 267.850902,89.4606811 267.860728,90.1550456 C267.890206,92.418281 266.442521,92.9292285 264.95062,93.2747731 C264.95062,93.2747731 263.573354,93.5711881 261.834168,93.8659655 C260.13101,94.150917 258.075756,94.4325932 256.624796,94.4230171 C249.204594,94.3638118 242.994617,92.1791838 242.994617,92.1791838 C241.5977,92.1791838 240.962291,90.0207582 240.733019,87.0042028 C240.577442,84.9636882 241.207938,64.6093092 241.286546,59.5276744 C241.340588,55.8822607 243.341799,52.5136101 243.901876,52.0206768 C249.083408,47.438526 264.374166,48.0166172 267.125422,51.1772859 C267.806685,51.958446 268.004841,59.4932837 268.027768,67.7486884 C268.042507,73.0628698 267.988465,78.6734662 267.93606,82.9739408" id="Fill-19" fill="#90DDC9"></path>
        <path d="M258.755382,49.3627673 C256.8033,51.4786139 250.246141,51.1641847 250.441022,49.3185507 C250.467224,49.090917 250.509803,47.739854 250.53273,47.5302345 C250.549107,47.3615563 250.565483,47.1961535 250.578584,47.0422142 C250.622801,46.5869468 250.658829,46.1840844 250.688307,45.8369021 C250.77674,44.8248331 250.80458,44.2762196 250.80458,44.2762196 L250.811131,44.2762196 C250.997823,44.2221771 255.214778,43.0250533 257.310972,42.5288447 C258.015163,42.3634419 258.481894,42.2750086 258.473705,42.3372394 C257.830108,47.0471271 259.395704,48.6684028 258.755382,49.3627673" id="Fill-20" fill="#FFB27D"></path>
        <path d="M257.533693,43.9192114 C257.533693,43.9192114 255.773217,45.7075276 250.688307,45.8369021 C250.77674,44.8248331 250.80458,44.2762196 250.80458,44.2762196 L250.811131,44.2762196 C250.997823,44.2221771 255.214778,43.0250533 257.310972,42.5288447 C257.681082,42.6811464 257.191424,43.6653753 257.533693,43.9192114" id="Fill-21" fill="#ED975D"></path>
        <path d="M249.515748,44.0256588 C249.515748,44.0256588 250.802943,44.4874767 252.44387,44.7069221 C254.843031,45.0311773 258.000424,44.8412096 258.991204,41.9360146 C260.661609,37.0492605 262.793832,34.1185181 257.879238,32.1227114 C255.249168,31.0541434 253.565662,30.9974806 252.422581,31.405256 C251.430163,31.7570237 250.843884,32.4602315 250.401718,33.1555787 C249.446967,34.6515739 247.527638,43.1691667 249.515748,44.0256588" id="Fill-22" fill="#FFB27D"></path>
        <path d="M250.771827,29.3730934 C249.016264,30.5258368 249.589442,33.2277991 251.657797,33.5915217 C252.8975,33.8094932 253.937409,33.852891 254.538427,34.1203196 C255.760116,34.663365 256.811489,35.2393273 256.521624,37.1344184 C256.425003,37.7796534 256.110573,38.5657264 257.769515,38.1759652 C258.041365,38.1120968 258.237884,38.1301109 258.372171,38.2119936 C259.059985,38.619769 258.180566,40.5996904 257.915266,41.0287553 C257.915266,41.0287553 257.533693,42.4469621 258.381997,43.1364137 C258.483531,43.2199339 260.149024,43.9470515 264.161272,37.8074935 C264.791768,36.844554 265.392786,34.6725359 264.420021,32.5822366 C263.447255,30.4917736 260.733666,27.8479479 255.622553,27.8479479 C254.291142,27.8479479 252.291568,28.3746169 250.771827,29.3730934" id="Fill-23" fill="#233862"></path>
        <path d="M267.93606,82.9739408 C267.18929,86.4441258 267.379258,86.4801541 266.234539,85.5696195 C261.56723,81.8603373 262.931395,79.9164442 263.968029,76.7017329 C265.004662,73.4870217 261.365799,68.4594295 263.968029,66.3157427 C266.514578,64.2211856 267.9639,67.5980244 268.027768,67.7486884 C268.042507,73.0628698 267.988465,78.6734662 267.93606,82.9739408" id="Fill-24" fill-opacity="0.2" fill="#000000"></path>
        <path d="M267.821424,82.5268618 C267.821424,82.5268618 266.062586,85.4042166 264.909679,85.3026822 C263.756771,85.2011478 262.199364,84.7704453 261.301931,85.628575 C260.40286,86.4850671 258.955175,88.6975352 259.359675,89.28709 C259.764175,89.8750071 261.392002,89.3542337 262.559648,88.7089988 C263.730569,88.0637638 265.57129,89.0267033 266.552244,88.2930351 C267.533197,87.5610046 269.883228,84.6525343 269.883228,84.6525343 L267.821424,82.5268618" id="Fill-25" fill="#FFB27D"></path>
        <path d="M267.125422,51.1772859 C267.125422,51.1772859 281.725091,64.9139125 279.830328,74.0536493 C278.965647,78.2181989 276.284811,81.7309628 269.141372,87.4185288 C269.141372,87.4185288 265.761258,85.0832368 265.019401,83.1868356 C265.019401,83.1868356 271.504504,74.0536493 271.253943,72.4978798 C270.946065,70.5949279 266.519491,65.8211718 264.932606,65.0793153 C263.344083,64.3374589 263.489834,52.7707215 267.125422,51.1772859" id="Fill-26" fill="#90DDC9"></path>
        <path d="M264.909679,85.3026822 C264.909679,85.3026822 263.370286,84.6296072 262.875715,84.3413804 C262.381144,84.0531536 262.490866,84.5198845 262.643168,84.7524311 C262.793832,84.9866153 263.20652,85.5090264 263.810814,85.5630689 C264.415108,85.6187491 264.909679,85.3026822 264.909679,85.3026822" id="Fill-27" fill="#FFB27D"></path>
        <path d="M17.362829,55.4499205 C16.8350137,54.4313008 28.8787991,50.7662352 29.0695856,60.8132314 C29.0695856,60.8132314 51.6308647,60.2580673 40.8583887,47.6825362 C37.1289633,43.3296566 37.5126652,39.7300971 37.6245169,36.3794608 C37.7376786,33.0281693 35.3015073,23.2892155 26.9506275,24.2698417 C26.9506275,24.2698417 24.7637067,23.3801052 22.0343956,24.7958555 C15.8276938,28.015971 1.92386296,59.1542897 17.362829,55.4499205" id="Fill-28" fill="#163560"></path>
        <path d="M53.3463857,65.300584 C53.3463857,65.300584 55.1629083,62.5356939 56.6267809,62.4810038 C58.0906535,62.4263136 60.8016636,61.668754 60.5847261,62.2095787 C60.3677886,62.7524289 58.687181,62.807119 58.5245285,63.1312087 C58.361876,63.4573239 61.0186012,63.945484 61.7775787,64.0001741 C62.5367587,64.0528387 64.3259363,64.0001741 64.2716513,64.3789539 C64.2175688,64.7577338 61.0467564,66.3315943 58.8097274,66.1148593 C56.5724959,65.8960988 53.8072007,66.7650642 53.8072007,66.7650642 L53.3463857,65.300584" id="Fill-29" fill="#FFB27D"></path>
        <path d="M33.0087942,65.3953822 C33.0087942,65.3953822 33.8071496,66.9757166 35.2551617,68.7918729 C37.0002439,70.9781385 39.6909064,73.5017605 43.0693829,74.0012445 C44.6829616,74.238704 46.261167,73.8915218 47.7116355,73.2479245 L47.716876,73.2462868 C51.8200136,71.4252176 54.9053503,67.2361033 54.9053503,67.2361033 C55.6285375,65.2627324 54.4450063,63.9264082 54.4450063,63.9264082 C54.4450063,63.9264082 46.1597963,65.7900564 45.3707755,65.3953822 C44.5817547,65.000708 39.7305376,54.2380579 38.8566864,52.4448287 C36.9992613,48.6356497 34.0518149,47.5416981 34.0518149,47.5416981 L33.0087942,65.3953822" id="Fill-30" fill="#90DDC9"></path>
        <path d="M35.2551617,68.7918729 C37.0002439,70.9781385 39.6909064,73.5017605 43.0693829,74.0012445 C44.6829616,74.238704 46.261167,73.8915218 47.7116355,73.2479245 C47.5513094,73.2675763 43.4534123,73.7752485 41.820018,70.8520393 C40.1538707,67.8715123 38.3521257,63.1370599 35.877142,64.7157566 C34.809229,65.3970199 34.8565572,67.0887146 35.2551617,68.7918729" id="Fill-31" fill-opacity="0.2" fill="#000000"></path>
        <path d="M2.09860044,154.827568 C2.09860044,154.827568 -0.429443238,157.13502 0.0638176012,158.77431 C0.55707844,160.4136 2.8384917,161.507551 3.14686161,163.5104 C3.45523152,165.514886 4.68838361,166.6072 5.7982205,166.6072 C6.90822115,166.6072 11.0898023,166.6072 11.0898023,166.6072 C11.0898023,166.6072 11.9068269,165.197182 9.93361981,164.771392 C7.96041269,164.34724 7.2164273,161.992297 7.33974251,159.807668 C7.46305772,157.621403 7.15485157,154.706382 7.15485157,154.706382 L2.96180691,153.735254 L2.09860044,154.827568" id="Fill-32" fill="#1D3356"></path>
        <path d="M23.4963277,155.808522 C23.4963277,155.808522 22.5867757,165.58203 23.6967763,166.127368 L37.9009526,166.099528 C37.9009526,166.099528 37.9009526,164.460238 35.6193755,164.095042 C33.3379623,163.731483 29.3301361,162.395159 28.6518205,159.419545 C27.973505,156.445569 23.4963277,155.808522 23.4963277,155.808522" id="Fill-33" fill="#1D3356"></path>
        <path d="M12.5697485,58.8021945 C12.5697485,58.8021945 12.3580001,61.7859968 12.5697485,65.3675421 C12.7105866,67.7421378 15.1117123,70.9208207 15.4523439,71.7068938 C16.3071984,73.6802646 17.2711204,74.0012445 17.2711204,74.0012445 L24.7289885,75.8288643 L27.3513609,76.470824 L35.6206857,74.0012445 C35.6206857,74.0012445 39.3871219,63.4875174 37.8747501,57.5706801 C36.3623783,51.6522051 34.0518149,47.5416981 34.0518149,47.5416981 C34.0518149,47.5416981 28.4458039,45.3308676 18.517865,46.981621 L12.5697485,58.8021945" id="Fill-34" fill="#90DDC9"></path>
        <path d="M14.7527389,66.3370322 C14.8934132,68.7099902 15.1117123,70.9208207 15.4523439,71.7068938 C16.3071984,73.6802646 17.2711204,74.0012445 17.2711204,74.0012445 L24.7289885,75.8288643 L27.9681008,74.8773884 C27.9681008,74.8773884 17.1553384,73.2380985 18.3534448,63.9345965 L14.7527389,66.3370322" id="Fill-35" fill="#F2CCAA"></path>
        <path d="M35.0946718,75.5963177 C35.0946718,75.5963177 39.1897848,88.3438023 39.4529556,92.6835806 C39.7159625,97.0233589 31.6248143,154.334635 31.2992491,156.334208 C30.9923531,158.219146 28.6518205,159.419545 28.6518205,159.419545 C28.6518205,159.419545 27.575228,160.054954 26.0387827,159.620976 C23.9072146,159.019958 23.2333208,158.299391 23.2333208,158.299391 C23.2333208,158.299391 20.0459583,117.42523 22.0185104,102.823923 C23.9910624,88.2226161 24.0141533,75.5963177 24.0141533,75.5963177 L35.0946718,75.5963177" id="Fill-36" fill="#073D3D"></path>
        <path d="M17.7444019,75.2163824 C17.7444019,75.2163824 11.4975776,83.5978863 10.9152285,89.2641629 C10.3328794,94.9304394 10.0015824,114.831189 8.76106084,120.35499 C7.52037554,125.87879 2.96180691,136.507153 2.96180691,153.735254 C2.96180691,153.735254 3.43557969,154.722758 4.89882192,155.248445 C5.36653539,155.417123 5.99342864,155.580888 6.6019802,155.720089 C7.80860233,155.996852 9.04633985,155.407297 9.59691852,154.298607 C12.6788162,148.093542 22.4957222,128.079795 22.9989727,123.926709 C23.3551621,120.987123 26.4547464,101.52854 33.2159572,90.1124667 C34.839198,87.3710369 32.2199371,76.470824 32.2199371,76.470824 L17.7444019,75.2163824" id="Fill-37" fill="#104D4D"></path>
        <path d="M35.7489138,73.6294974 C35.7489138,73.6294974 34.104711,74.9297933 30.838905,74.9952993 C26.9380175,75.0739066 17.2716117,74.0012445 17.2716117,74.0012445 C17.2716117,74.0012445 16.8420556,75.2000059 16.8595784,76.4675487 C16.8595784,76.4675487 28.6654131,79.446438 35.5058862,76.9031641 C35.5058862,76.9031641 36.3880895,75.2425848 35.7489138,73.6294974" id="Fill-38" fill="#233862"></path>
        <path d="M30.5849052,76.3414494 C30.5849052,77.1275225 31.118616,77.7662068 31.7748233,77.7662068 C32.4311943,77.7662068 32.9649051,77.1275225 32.9649051,76.3414494 C32.9649051,75.557014 32.4311943,74.916692 31.7748233,74.916692 C31.118616,74.916692 30.5849052,75.557014 30.5849052,76.3414494 Z M29.9948591,76.3414494 C29.9948591,75.2311213 30.7932145,74.3271373 31.7748233,74.3271373 C32.756432,74.3271373 33.5549512,75.2311213 33.5549512,76.3414494 C33.5549512,77.4534153 32.756432,78.3573993 31.7748233,78.3573993 C30.7932145,78.3573993 29.9948591,77.4534153 29.9948591,76.3414494 L29.9948591,76.3414494 Z" id="Fill-39" fill="#FFFFFF"></path>
        <path d="M5.81656221,77.0276257 L15.4033781,85.3747389 C16.096105,85.9773949 17.1466589,85.9053382 17.7498062,85.2126113 L29.9824129,71.1648309 C30.585724,70.472104 30.5130123,69.4207313 29.8202854,68.8180753 L20.2334695,60.4709621 C19.5407426,59.8666684 18.4901887,59.9403628 17.8870414,60.6330897 L5.65443464,74.6808701 C5.05128734,75.373597 5.12383533,76.4233321 5.81656221,77.0276257" id="Fill-40" fill="#F78248"></path>
        <path d="M19.9996127,75.9729777 C20.1357016,76.009006 25.0918922,76.5920102 25.0927115,77.6155428 C25.0936936,78.7995654 23.6401136,80.3864503 22.2708726,80.3111183 C21.7158722,80.2816406 19.1591696,77.9299721 19.1591696,77.9299721 L19.9996127,75.9729777" id="Fill-41" fill="#FFB27D"></path>
        <path d="M22.544688,46.4395581 C23.1085317,45.0721186 23.4376997,42.989025 23.4283651,40.4113604 L23.8028962,40.4850548 L30.0983587,41.7313081 C30.0983587,41.7313081 29.9552279,43.7128673 29.95097,45.5797907 C29.95097,45.5945296 29.95097,45.6109061 29.9508063,45.625645 C29.9431093,47.2469207 31.046068,48.8731093 28.4458039,49.5167066 C27.642208,49.7148625 21.3605017,49.3120001 22.544688,46.4395581" id="Fill-42" fill="#FFB27D"></path>
        <path d="M30.0985225,41.7313081 C30.0985225,41.7313081 29.9552279,43.7128673 29.95097,45.5797907 C26.4280526,45.479894 24.5658783,42.2668204 23.8028962,40.4850548 L30.0985225,41.7313081" id="Fill-43" fill="#E8945B"></path>
        <path d="M31.2750118,43.4983348 C31.2750118,43.4983348 22.9396897,43.6358976 22.9339579,38.4445402 C22.9282262,33.2523639 21.8486858,29.7733356 27.1702366,29.4659483 C32.4917874,29.1587247 33.5279299,31.13881 33.9514268,32.8712822 C34.3749236,34.6039183 33.4430996,43.3296566 31.2750118,43.4983348" id="Fill-44" fill="#FFB27D"></path>
        <path d="M30.9664781,29.3388665 C30.9664781,29.3388665 28.6842461,35.4301138 25.1819631,36.3303312 C21.6795164,37.2310399 20.1602664,36.2926652 20.1602664,36.2926652 C20.1602664,36.2926652 22.8468348,34.1589682 23.4042916,30.4334732 C23.4042916,30.4334732 29.2449782,26.439567 30.9664781,29.3388665" id="Fill-45" fill="#163560"></path>
        <path d="M30.4008331,29.8334374 C30.4008331,29.8334374 32.0931829,30.4660625 32.7896763,31.7001972 C33.4707759,32.9073106 34.0511598,34.5056591 33.916381,36.4662563 C33.916381,36.4662563 35.6359158,32.3265991 33.70365,29.984429 C31.6546196,27.5009294 30.4008331,29.8334374 30.4008331,29.8334374" id="Fill-46" fill="#163560"></path>
        <path d="M19.9996127,75.9729777 C19.9996127,75.9729777 21.1874019,75.5914047 21.9811719,75.7027651 C22.7749419,75.8141254 23.3623677,75.6863886 23.3623677,75.9091093 C23.3623677,76.13183 22.337525,76.2350021 22.1197173,76.3414494 C21.9017458,76.4495345 19.9996127,75.9729777 19.9996127,75.9729777" id="Fill-47" fill="#FFB27D"></path>
        <path d="M18.517865,46.981621 C18.517865,46.981621 12.6010277,47.3975847 10.3328794,52.9099219 C8.06489489,58.4238969 3.76163624,67.6815447 3.76163624,69.2389519 C3.76163624,70.7963591 6.16538212,75.5963177 19.0749943,78.3573993 C19.0749943,78.3573993 20.4103359,76.9522937 20.3294359,75.8419655 C20.3294359,75.8419655 12.2707132,68.9196097 12.292494,68.1106095 C12.3334353,66.5810424 13.613588,64.5601796 20.6887368,57.4822468 C22.6124868,55.5580055 18.517865,46.981621 18.517865,46.981621" id="Fill-48" fill="#90DDC9"></path>
        <path d="M174.702883,0 L110.762391,0 C109.216447,0 107.734372,0.614283336 106.640421,1.70757994 L61.4282827,46.9193902 C60.3348224,48.0133419 59.720539,49.4954171 59.720539,51.0429984 L59.720539,114.981853 C59.720539,116.527796 60.3348224,118.011509 61.4282827,119.105461 L106.640421,164.316125 C107.734372,165.410077 109.216447,166.024196 110.762391,166.024196 L174.702883,166.024196 C176.248827,166.024196 177.73254,165.410077 178.824854,164.316125 L224.037155,119.105461 C225.131107,118.011509 225.745227,116.527796 225.745227,114.981853 L225.745227,51.0429984 C225.745227,49.4954171 225.131107,48.0133419 224.037155,46.9193902 L178.824854,1.70757994 C177.73254,0.614283336 176.248827,0 174.702883,0" id="Fill-49" fill="#FBCC47"></path>
        <path d="M115.261022,14.008313 C114.545368,14.008313 113.872293,14.2870415 113.36462,14.7938948 L74.5145976,53.6452278 C74.0085631,54.1512623 73.7285245,54.8243373 73.7285245,55.5399914 L73.7285245,110.483222 C73.7285245,111.200514 74.0085631,111.873589 74.5145976,112.379623 L113.36462,151.231284 C113.870655,151.737319 114.545368,152.015719 115.261022,152.015719 L170.204253,152.015719 C170.919907,152.015719 171.594619,151.737319 172.100654,151.231284 L210.950677,112.379623 C211.458349,111.873589 211.73675,111.200514 211.73675,110.483222 L211.73675,55.5399914 C211.73675,54.8243373 211.458349,54.1512623 210.950677,53.6452278 L172.100654,14.793731 C171.594619,14.2870415 170.919907,14.008313 170.204253,14.008313 L115.261022,14.008313 Z M170.204253,157.713111 L115.261022,157.713111 C113.023989,157.713111 110.919606,156.84188 109.335996,155.259908 L70.4859732,116.408248 C68.9040012,114.826276 68.0311326,112.721893 68.0311326,110.483222 L68.0311326,55.5399914 C68.0311326,53.3029585 68.9040012,51.1985754 70.4859732,49.6149657 L109.335996,10.7654342 C110.919606,9.18247958 113.023989,8.31092109 115.261022,8.31092109 L170.204253,8.31092109 C172.442923,8.31092109 174.547306,9.18247958 176.129278,10.7654342 L214.979301,49.6166034 C216.562911,51.1985754 217.434142,53.3029585 217.434142,55.5399914 L217.434142,110.483222 C217.434142,112.721893 216.562911,114.826276 214.979301,116.408248 L176.129278,155.258271 C174.547306,156.84188 172.442923,157.713111 170.204253,157.713111 L170.204253,157.713111 Z" id="Fill-50" fill="#FFFFFF"></path>
        <path d="M187.045868,85.1028886 L185.927351,84.1333986 C183.115502,81.6998474 178.821578,82.007726 176.388027,84.8195748 L170.065052,92.1218659 C169.161068,93.1650504 167.448084,92.526366 167.448084,91.1458252 C167.448084,90.567734 167.415331,89.9961934 167.356375,89.432841 L167.356375,43.4623065 C167.356375,40.4424758 164.885158,37.9728963 161.866965,37.9728963 L161.460828,37.9728963 C158.440997,37.9728963 155.971417,40.4424758 155.971417,43.4623065 L155.971417,73.3805743 C155.971417,74.1076919 155.3835,74.695609 154.656383,74.695609 C153.855571,74.695609 153.205423,74.0454611 153.205423,73.2446492 L153.205423,37.6650177 C153.205423,34.7472128 150.817726,32.3596797 147.89943,32.3596797 L147.128096,32.3596797 C144.209799,32.3596797 141.822103,34.7472128 141.822103,37.6650177 L141.822103,73.4788334 C141.822103,74.1502708 141.276764,74.695609 140.605327,74.695609 C139.748835,74.695609 139.056108,74.0028821 139.056108,73.14639 L139.056108,44.5971994 C139.056108,41.5773688 136.586528,39.1077893 133.566698,39.1077893 L133.16056,39.1077893 C130.142367,39.1077893 127.67115,41.5773688 127.67115,44.5971994 L127.67115,73.3789366 C127.67115,74.1060542 127.081595,74.695609 126.354478,74.695609 C125.555303,74.695609 124.906793,74.0470987 124.906793,73.2462868 L124.906793,50.7285692 C124.906793,47.7103762 122.435576,45.2391591 119.417383,45.2391591 L119.011245,45.2391591 C115.991415,45.2391591 113.521835,47.7103762 113.521835,50.7285692 L113.521835,90.266406 C113.521835,90.3761287 113.526748,90.4842137 113.533299,90.5922988 C113.526748,90.7757158 113.521835,90.9607705 113.521835,91.1458252 L113.521835,112.908585 C113.521835,121.753545 120.75862,128.99033 129.60358,128.99033 L151.366339,128.99033 C157.02279,128.99033 162.020905,126.029454 164.890071,121.581591 C165.756389,120.238716 166.694764,118.941696 167.741224,117.733108 L187.732044,94.6422126 C190.167233,91.8303638 189.859354,87.5380775 187.045868,85.1028886" id="Fill-51" fill="#FFFFFF"></path>
    </g>
</svg>