<?xml version="1.0" encoding="UTF-8"?>
<svg width="24px" height="24px" viewBox="0 0 24 24" version="1.1" xmlns="http://www.w3.org/2000/svg" xmlns:xlink="http://www.w3.org/1999/xlink">
    <title>icon/icon-shop-outline</title>
    <g id="icon/icon-shop-outline" stroke="none" stroke-width="1" fill="none" fill-rule="evenodd">
        <path d="M6.5,5 C6.32,5 6.15,5.1 6.07,5.25 L4.07,8.75 C4.02,8.83 4,8.91 4,9 C4,10.1 4.9,11 6,11 C6.6,11 7.13,10.74 7.5,10.32 C7.87,10.74 8.4,11 9,11 C9.6,11 10.13,10.74 10.5,10.32 C10.87,10.74 11.4,11 12,11 C12.6,11 13.13,10.74 13.5,10.32 C13.87,10.74 14.4,11 15,11 C15.6,11 16.13,10.74 16.5,10.32 C16.87,10.74 17.4,11 18,11 C19.1,11 20,10.1 20,9 C20,8.91 19.98,8.83 19.93,8.75 L17.93,5.25 C17.84,5.1 17.68,5 17.5,5 L6.5,5 Z" id="Path" stroke="#05BF95" stroke-width="1.33333333"></path>
        <path d="M16.500608,10.5 C15.62936,11.1175864 14.3855681,11.1220616 13.5118081,10.5057411 C12.6336801,11.1022741 11.3830081,11.1328986 10.5068481,10.5019142 C9.63184011,11.1093088 8.38812812,11.1309991 7.51628813,10.5057411 C6.99940814,10.8234685 6.37254414,11.0359291 5.75436815,10.9631979 C5.49311999,10.9453328 5.238736,10.8802569 5,10.7769029 L5,17.4791818 C5,18.0425431 5.44812799,18.5 6,18.5 L10,18.5 L10,13.395912 L14,13.395912 L14,18.5 L18,18.5 C18.551872,18.5 19,18.0425431 19,17.4791818 L19,10.7659597 C18.19,11.0919843 17.2144,11.024986 16.50128,10.5005472 L16.500608,10.5 Z" id="Path" stroke="#05BF95" stroke-width="1.33333333"></path>
    </g>
</svg>