<?xml version="1.0" encoding="UTF-8"?>
<svg width="24px" height="24px" viewBox="0 0 24 24" version="1.1" xmlns="http://www.w3.org/2000/svg" xmlns:xlink="http://www.w3.org/1999/xlink">
    <title>icon/icon-no_location</title>
    <g id="icon/icon-no_location" stroke="none" stroke-width="1" fill="none" fill-rule="evenodd">
        <path d="M20.1272727,11.0909091 C19.7090909,7.3 16.7,4.29090909 12.9090909,3.87272727 L12.9090909,2.90909091 C12.9090909,2.40909091 12.5,2 12,2 C11.5,2 11.0909091,2.40909091 11.0909091,2.90909091 L11.0909091,3.87272727 C7.3,4.29090909 4.29090909,7.3 3.87272727,11.0909091 L2.90909091,11.0909091 C2.40909091,11.0909091 2,11.5 2,12 C2,12.5 2.40909091,12.9090909 2.90909091,12.9090909 L3.87272727,12.9090909 C4.29090909,16.7 7.3,19.7090909 11.0909091,20.1272727 L11.0909091,21.0909091 C11.0909091,21.5909091 11.5,22 12,22 C12.5,22 12.9090909,21.5909091 12.9090909,21.0909091 L12.9090909,20.1272727 C16.7,19.7090909 19.7090909,16.7 20.1272727,12.9090909 L21.0909091,12.9090909 C21.5909091,12.9090909 22,12.5 22,12 C22,11.5 21.5909091,11.0909091 21.0909091,11.0909091 L20.1272727,11.0909091 Z M12,18.3636364 C8.48181818,18.3636364 5.63636364,15.5181818 5.63636364,12 C5.63636364,8.48181818 8.48181818,5.63636364 12,5.63636364 C15.5181818,5.63636364 18.3636364,8.48181818 18.3636364,12 C18.3636364,15.5181818 15.5181818,18.3636364 12,18.3636364 Z" id="icon/maps/my_location_24px" fill="#9E9E9E" fill-rule="nonzero"></path>
        <line x1="7" y1="5" x2="21.1421356" y2="19.1421356" id="Line-4" stroke="#FFFFFF" stroke-width="3" stroke-linecap="round"></line>
        <line x1="5" y1="5" x2="19.1421356" y2="19.1421356" id="Line-4" stroke="#9E9E9E" stroke-width="2" stroke-linecap="round"></line>
    </g>
</svg>