<?xml version="1.0" encoding="UTF-8"?>
<svg width="24px" height="24px" viewBox="0 0 24 24" version="1.1" xmlns="http://www.w3.org/2000/svg" xmlns:xlink="http://www.w3.org/1999/xlink">
    <title>icon/icon-action-vignette-itinéraire</title>
    <g id="icon/icon-action-vignette-itinéraire" stroke="none" stroke-width="1" fill="none" fill-rule="evenodd">
        <path d="M17.9073592,3.95529287 C17.5926239,3.64055758 17.0315765,3.64055758 16.7168552,3.95529287 C16.4021199,4.27002816 16.4021199,4.83107559 16.7168552,5.14579687 L17.1369507,5.56589233 L12.8277494,5.56589233 C10.8654356,5.56589233 9.28888654,7.14230123 9.28888654,9.10475515 C9.28888654,11.0672091 10.8652954,12.643618 12.8277494,12.643618 L14.4397501,12.643618 C15.4550975,12.643618 16.2966897,13.4838089 16.2966897,14.5005576 C16.2966897,15.5159051 15.4564988,16.3574972 14.4397501,16.3574972 L10.0251045,16.3561275 C9.63919963,15.0602493 8.48428744,14.1146877 7.08303508,14.1146877 C5.3670618,14.1146877 4,15.5159401 4,17.1977232 C4,18.8795062 5.40125236,20.2807586 7.08303508,20.2807586 C8.48428744,20.2807586 9.67479144,19.3351935 10.0251045,18.0393153 L14.4040181,18.0393153 C16.3663319,18.0393153 17.942881,16.4629064 17.942881,14.5004525 C17.942881,12.5381387 16.3664721,10.9615897 14.4040181,10.9615897 L12.7920174,10.9615897 C11.77667,10.9615897 10.9350778,10.1213988 10.9350778,9.10465006 C10.9350778,8.0893026 11.7752687,7.24771044 12.7920174,7.24771044 L17.1366004,7.24771044 L16.7165049,7.66780589 C16.4017696,7.98254118 16.4017696,8.54358861 16.7165049,8.85830989 C16.8916615,9.03346644 17.1024098,9.10325581 17.3117569,9.10325581 C17.5224912,9.10325581 17.7318524,9.03346644 17.9070089,8.85830989 L19.7639485,7.00137027 C20.0786838,6.68663498 20.0786838,6.12558755 19.7639485,5.81086627 L17.9073592,3.95529287 Z M7.0833854,18.5987303 C6.3129772,18.5987303 5.68213339,17.9678865 5.68213339,17.1974779 C5.68213339,16.4270694 6.3129772,15.7962256 7.0833854,15.7962256 C7.85379394,15.7962256 8.48463775,16.4270694 8.48463775,17.1974779 C8.48463775,17.9678865 7.85379394,18.5987303 7.0833854,18.5987303 Z" id="Fill-2" fill="#05BF95"></path>
    </g>
</svg>