<?xml version="1.0" encoding="UTF-8"?>
<svg width="24px" height="24px" viewBox="0 0 24 24" version="1.1" xmlns="http://www.w3.org/2000/svg" xmlns:xlink="http://www.w3.org/1999/xlink">
    <title>icon/icon-menu-list-edit</title>
    <g id="icon/icon-menu-list-edit" stroke="none" stroke-width="1" fill="none" fill-rule="evenodd">
        <path d="M20,11.2 L20,17.3333333 C20,18.040832 19.719168,18.719168 19.2191573,19.2191573 C18.7191467,19.7191467 18.040832,20 17.3333333,20 L6.66666667,20 C5.194176,20 4,18.805824 4,17.3333333 L4,6.66666667 C4,5.194176 5.194176,4 6.66666667,4 L12.8,4 C13.1683413,4 13.4666667,4.29832533 13.4666667,4.66666667 C13.4666667,5.035008 13.1683413,5.33333333 12.8,5.33333333 L6.66666667,5.33333333 C5.93000533,5.33333333 5.33333333,5.93000533 5.33333333,6.66666667 L5.33333333,17.3333333 C5.33333333,17.686656 5.47416747,18.0258347 5.72416,18.27584 C5.97415253,18.5258453 6.31332267,18.6666667 6.66666667,18.6666667 L17.3333333,18.6666667 C17.686656,18.6666667 18.0258347,18.5258325 18.27584,18.27584 C18.5258453,18.0258475 18.6666667,17.6866773 18.6666667,17.3333333 L18.6666667,11.2 C18.6666667,10.8316587 18.964992,10.5333333 19.3333333,10.5333333 C19.7016747,10.5333333 20,10.8316587 20,11.2 Z M9.98336,10.3066667 L15.7717333,4.51829333 C16.4717227,3.84913067 17.5733973,3.84913067 18.2734933,4.51829333 L19.4818347,5.72663467 C20.17184,6.418304 20.17184,7.53664 19.4818347,8.22839467 L18.4701653,9.240064 L13.6919253,14.017664 L13.6927595,14.016832 C13.1927488,14.5168427 12.5144341,14.7985067 11.8069355,14.8001707 L11.7536021,14.8001707 L9.89359147,14.7626709 C9.53608747,14.7560043 9.24776747,14.4676736 9.24025813,14.1101696 L9.20025813,12.2468309 C9.1877568,11.5210069 9.4702528,10.8209963 9.9835968,10.3068203 L9.98336,10.3066667 Z M16.7165867,5.4608 L16.174912,5.99995733 L17.9999147,7.82496 L18.539904,7.28497067 C18.7090709,7.1149696 18.7090709,6.83997867 18.539904,6.66914133 L17.333248,5.4608 C17.1607488,5.29413333 16.887424,5.29413333 16.7149227,5.4608 L16.7165867,5.4608 Z M10.5333333,12.2192 L10.5583339,13.4400427 L11.7783445,13.4642673 C12.1400085,13.4675435 12.4891712,13.3275435 12.7475179,13.0742144 L17.0542912,8.7682944 L15.2326165,6.94329173 L10.9258432,11.2500651 C10.6691819,11.5067264 10.5275072,11.8567424 10.5333525,12.2192384 L10.5333333,12.2192 Z" id="Fill-1" stroke="#05BF95" stroke-width="0.2" fill="#05BF95"></path>
    </g>
</svg>