<?xml version="1.0" encoding="UTF-8"?>
<svg width="24px" height="24px" viewBox="0 0 24 24" version="1.1" xmlns="http://www.w3.org/2000/svg" xmlns:xlink="http://www.w3.org/1999/xlink">
    <title>icon/icon-achats-partenaires</title>
    <g id="icon/icon-achats-partenaires" stroke="none" stroke-width="1" fill="none" fill-rule="evenodd">
        <path d="M6.6666752,17.4441792 C7.40333653,17.4441792 8.00000853,18.0408512 8.00000853,18.7775125 C8.00000853,19.5141739 7.40333653,20.1108459 6.6666752,20.1108459 C5.93001387,20.1108459 5.33334187,19.5141739 5.33334187,18.7775125 C5.33334187,18.0408512 5.93001387,17.4441792 6.6666752,17.4441792 Z M17.3333419,17.4441792 C18.0700032,17.4441792 18.6666752,18.0408512 18.6666752,18.7775125 C18.6666752,19.5141739 18.0700032,20.1108459 17.3333419,20.1108459 C16.5966805,20.1108459 16.0000085,19.5141739 16.0000085,18.7775125 C16.0000085,18.0408512 16.5966805,17.4441792 17.3333419,17.4441792 Z M6.22250667,5 C6.666688,5 7.0225152,5.31082667 7.110848,5.71082667 L7.110848,5.71082667 L7.28918187,6.77749333 L18.2225152,6.7766592 C18.7116885,6.7766592 19.1116885,7.1766592 19.1116885,7.66583253 L19.1116885,7.66583253 L19.1116885,11.6658325 C19.1116885,12.1108459 18.8000085,12.5108395 18.3558485,12.5550059 L18.3558485,12.5550059 L10.2666752,13.4441792 C9.5108352,13.6225259 9.0666752,13.9333525 8.93334187,14.3333525 C8.84417493,14.5108459 8.88917547,14.6883456 8.93334187,14.7775125 L8.93334187,14.7775125 L19.1108267,14.7775189 C19.6,14.7775189 20,15.1333376 20,15.6216789 C20,16.1108523 19.6,16.5108523 19.1108267,16.5108523 L19.1108267,16.5108523 L8.75584,16.5116843 C8,16.5116843 7.33333973,15.9341931 7.15584,15.0450176 L7.15584,15.0450176 L7.15584,15.0008512 L5.51168,6.77834667 L4.88917333,6.77834667 C4.4,6.77834667 4,6.37834667 4,5.88917333 C4,5.4 4.4,5 4.88917333,5 L4.88917333,5 Z M9.33334187,8.55500587 L7.68918187,8.55500587 L8.40000853,12.2883392 C8.6666752,12.1108459 8.97750187,11.9775125 9.33334187,11.8441792 L9.33334187,11.8441792 L9.33334187,8.55500587 Z M12.0000085,8.5558592 L10.2225152,8.5558592 L10.2225152,11.6666859 L12.0000085,11.4450325 L12.0000085,8.5558592 Z M14.6666752,8.55500587 L12.8891819,8.55500587 L12.8891819,11.3550123 L14.6666752,11.1775125 L14.6666752,8.55500587 Z M17.3333419,8.55501227 L15.5558485,8.55501227 L15.5558485,11.0441856 L17.3333419,10.8666859 L17.3333419,8.55501227 Z" id="Combined-Shape" fill="#05BF95"></path>
    </g>
</svg>