<?xml version="1.0" encoding="UTF-8"?>
<svg width="24px" height="24px" viewBox="0 0 24 24" version="1.1" xmlns="http://www.w3.org/2000/svg" xmlns:xlink="http://www.w3.org/1999/xlink">
    <title>icon/icon-action-vignette-appeler</title>
    <g id="icon/icon-action-vignette-appeler" stroke="none" stroke-width="1" fill="none" fill-rule="evenodd">
        <path d="M19.8348257,16.9266816 C20.213575,17.3076772 20.3890588,17.8454179 20.3065584,18.3764003 C20.2240599,18.9073828 19.8933267,19.3663669 19.4170822,19.6138682 C18.0738633,20.3323525 16.5087361,20.5153433 15.0365155,20.1276087 C11.1276815,19.1436331 5.50951255,13.5254641 4.52553601,9.61663012 C4.13780133,8.14440951 4.32079213,6.57926314 5.03927745,5.23606343 C5.2867787,4.75981888 5.74576287,4.42908763 6.2767453,4.34658722 C6.80772774,4.26408872 7.34546841,4.43958594 7.72646405,4.81831988 L9.39442395,6.48553099 C9.88641212,6.97302647 10.0281623,7.71324548 9.7499226,8.34848141 C9.60142569,8.69572426 9.39068004,9.01370701 9.12743517,9.28595647 C7.22022982,11.1931618 13.460771,17.4338566 15.3672852,15.5258065 C15.6395346,15.2618128 15.9575174,15.0503107 16.3062578,14.9010727 C16.9407449,14.6220842 17.6809831,14.7638267 18.1684594,15.2565713 L19.8348257,16.9266816 Z" id="Fill-1" fill="#FFFFFF"></path>
    </g>
</svg>