<?xml version="1.0" encoding="UTF-8"?>
<svg width="24px" height="24px" viewBox="0 0 24 24" version="1.1" xmlns="http://www.w3.org/2000/svg" xmlns:xlink="http://www.w3.org/1999/xlink">
    <title>icon/icon-menu-list-users</title>
    <g id="icon/icon-menu-list-users" stroke="none" stroke-width="1" fill="none" fill-rule="evenodd">
        <path d="M16.995102,8.97110603 C16.5782229,8.97770714 16.2452942,9.32006666 16.2519098,9.73600416 L16.2519098,11.3374613 L14.707989,11.3374613 L14.707989,11.3384054 C14.5061554,11.3355756 14.3109325,11.413857 14.1675624,11.5553293 C14.0232603,11.6968017 13.9421517,11.8910829 13.9421517,12.092931 C13.9421517,12.2947647 14.0232627,12.4881043 14.1675624,12.6295911 C14.3109205,12.7720051 14.5061409,12.8502864 14.707989,12.8474567 L16.2519098,12.8474567 L16.2519098,14.2640635 L16.2519098,14.2631194 C16.2481385,14.464953 16.3264174,14.6601759 16.4688338,14.803546 C16.6103061,14.9478481 16.8036457,15.0289568 17.0064355,15.0289568 C17.2082691,15.0289568 17.4016087,14.9478457 17.5430955,14.803546 C17.6855095,14.660188 17.7637909,14.4649675 17.7609611,14.2631194 L17.7609611,12.8465126 L19.2351043,12.8465126 L19.2351043,12.8474567 C19.4369379,12.850284 19.6312191,12.7720051 19.7755309,12.6295911 C19.9188889,12.4881187 20,12.2947767 20,12.0929286 C20,11.891095 19.9188889,11.6968138 19.7755309,11.5553269 C19.6312288,11.4138546 19.4369524,11.3355732 19.2351043,11.338403 L17.7609611,11.338403 L17.7609611,9.73600416 C17.7628468,9.53228484 17.6836238,9.33612276 17.5393217,9.19181101 C17.3950197,9.04845297 17.1988358,8.96828595 16.9951286,8.97111569 L16.995102,8.97110603 Z M9.28279683,5.9582114 C7.20786578,5.9582114 5.51021687,7.6558603 5.51021687,9.73079135 C5.51021687,10.876714 6.0298792,11.904739 6.84193156,12.5989179 C5.15652392,13.4835969 4.00108832,15.2482952 4.00108832,17.275951 L4.00007025,17.275951 C3.99731694,17.4787263 4.07559586,17.6730075 4.21706822,17.8163779 C4.3594822,17.9606799 4.5528218,18.0417886 4.75466991,18.0417886 C4.95650354,18.0417886 5.15078477,17.9606775 5.29227161,17.8163779 C5.43374396,17.6730198 5.5120253,17.478741 5.50919556,17.275951 C5.50919556,15.183105 7.18892924,13.5033713 9.28177551,13.5033713 C11.3746218,13.5033713 13.0543555,15.183105 13.0543555,17.275951 C13.0515281,17.4787263 13.1298071,17.6730075 13.2712794,17.8163779 C13.4136934,17.9606799 13.607033,18.0417886 13.8088811,18.0417886 C14.0107147,18.0417886 14.204996,17.9606775 14.3464828,17.8163779 C14.4879552,17.6730198 14.5662365,17.478741 14.5634809,17.275951 C14.5634809,15.2481986 13.407102,13.482607 11.7225635,12.5989179 C12.5355575,11.9057048 13.0542782,10.8767382 13.0542782,9.73079135 C13.0542782,7.6558603 11.3566293,5.9582114 9.28169825,5.9582114 L9.28279683,5.9582114 Z M9.28279683,7.46724338 C10.5418848,7.46724338 11.5463448,8.47170335 11.5463448,9.73079135 C11.5463448,10.9898793 10.5418848,11.9943393 9.28279683,11.9943393 C8.02370883,11.9943393 7.01924886,10.9898793 7.01924886,9.73079135 C7.01924886,8.47170335 8.02370883,7.46724338 9.28279683,7.46724338 Z" id="Fill-1" fill="#05BF95"></path>
    </g>
</svg>