<?xml version="1.0" encoding="UTF-8"?>
<svg width="24px" height="24px" viewBox="0 0 24 24" version="1.1" xmlns="http://www.w3.org/2000/svg" xmlns:xlink="http://www.w3.org/1999/xlink">
    <title>icon/icon-shop</title>
    <g id="icon/icon-shop" stroke="none" stroke-width="1" fill="none" fill-rule="evenodd">
        <path d="M5.8125,3.76676805 C5.61,3.76676805 5.41875,3.87926805 5.32875,4.04801805 L3.07875,7.98551805 C3.0225,8.07551805 3,8.16551805 3,8.26676805 C3,9.50426805 4.0125,10.5167681 5.25,10.5167681 C5.925,10.5167681 6.52125,10.2242681 6.9375,9.75176805 C7.35375,10.2242681 7.95,10.5167681 8.625,10.5167681 C9.3,10.5167681 9.89625,10.2242681 10.3125,9.75176805 C10.72875,10.2242681 11.325,10.5167681 12,10.5167681 C12.675,10.5167681 13.27125,10.2242681 13.6875,9.75176805 C14.10375,10.2242681 14.7,10.5167681 15.375,10.5167681 C16.05,10.5167681 16.64625,10.2242681 17.0625,9.75176805 C17.47875,10.2242681 18.075,10.5167681 18.75,10.5167681 C19.9875,10.5167681 21,9.50426805 21,8.26676805 C21,8.16551805 20.9775,8.07551805 20.92125,7.98551805 L18.67125,4.04801805 C18.57,3.87926805 18.39,3.76676805 18.1875,3.76676805 L5.8125,3.76676805 Z M17.06394,11.4167681 C16.083786,12.0973841 14.68452,12.1023161 13.70154,11.4230951 C12.713646,12.0805091 11.30664,12.1142591 10.32096,11.4188777 C9.336576,12.0882617 7.9374,12.1121657 6.95658,11.4230951 C6.37509,11.7732491 5.669868,12.0073931 4.97442,11.9272391 C4.68051582,11.9075507 4.39433382,11.8358333 4.12575582,11.7219311 L4.12575582,19.1082311 C4.12575582,19.729088 4.62989982,20.233232 5.250756,20.233232 L9.750756,20.233232 L9.750756,14.6082311 L14.250756,14.6082311 L14.250756,20.233232 L18.750756,20.233232 C19.371612,20.233232 19.875756,19.729088 19.875756,19.1082311 L19.875756,11.7098711 C18.964506,12.0691691 17.866956,11.9953331 17.064696,11.4173711 L17.06394,11.4167681 Z" id="Fill-1" fill="#05BF95"></path>
    </g>
</svg>