<?xml version="1.0" encoding="UTF-8"?>
<svg width="24px" height="24px" viewBox="0 0 24 24" version="1.1" xmlns="http://www.w3.org/2000/svg" xmlns:xlink="http://www.w3.org/1999/xlink">
    <title>icon/icon-menu-list-avis</title>
    <g id="icon/icon-menu-list-avis" stroke="none" stroke-width="1" fill="none" fill-rule="evenodd">
        <path d="M19.2195065,4.97037948 C19.2278486,4.97037948 19.2354688,4.97362784 19.2409697,4.97910268 C19.246635,4.98474114 19.249965,4.9925905 19.25,4.99717736 L19.25,4.99717736 L19.25,15.1435931 C19.25,15.1516688 19.2466983,15.1593977 19.2409942,15.165102 C19.2352958,15.1708007 19.2276007,15.1740866 19.2195065,15.1740866 L19.2195065,15.1740866 L12.7912451,15.1740866 L8.75206573,18.3665755 L7.65748495,15.1777822 L4.78049352,15.1777822 C4.77238992,15.1777822 4.7646914,15.1744831 4.7589881,15.16878 C4.75328856,15.1630806 4.75,15.1553551 4.75,15.1472887 L4.75,15.1472887 L4.75,5.000873 C4.75,4.99244573 4.75325426,4.9847302 4.75880249,4.97918197 L4.75880249,4.97918197 Z" id="Fill-1" stroke="#05BF95" stroke-width="1.5"></path>
    </g>
</svg>