<?xml version="1.0" encoding="UTF-8"?>
<svg width="24px" height="24px" viewBox="0 0 24 24" version="1.1" xmlns="http://www.w3.org/2000/svg" xmlns:xlink="http://www.w3.org/1999/xlink">
    <title>icon/icon-menu-list-visualiser</title>
    <g id="icon/icon-menu-list-visualiser" stroke="none" stroke-width="1" fill="none" fill-rule="evenodd">
        <path d="M12,17.2503412 C7.14397979,17.2503412 3.32947411,12.6749503 3.1698086,12.4753237 C2.94339713,12.1989786 2.94339713,11.8010034 3.1698086,11.5246763 C3.32942352,11.3285058 7.14397979,6.74965875 12,6.74965875 C16.8560203,6.74965875 20.6705261,11.3286498 20.8301914,11.5239563 L20.8301914,11.5246601 C21.0566029,11.8010052 21.0566029,12.1989804 20.8301914,12.4753075 C20.6705765,12.6750061 16.8560203,17.2503412 12,17.2503412 L12,17.2503412 Z M4.76178137,11.999928 C5.8228262,13.1038684 8.7078714,15.7498117 12,15.7498117 C15.2921287,15.7498117 18.1792439,13.1058845 19.2382189,11.999928 C18.1771739,10.8959876 15.2921287,8.25004426 12,8.25004426 C8.7078714,8.25004426 5.82075613,10.8939715 4.76178137,11.999928 Z" id="Fill-1" fill="#05BF95"></path>
        <path d="M12,15.000267 C11.2040318,15.000267 10.4411126,14.6838526 9.87863003,14.121334 C9.31614747,13.5588154 8.99969703,12.7958963 8.99969703,11.999964 C8.99969703,11.2040317 9.31611147,10.4410766 9.87863003,9.878594 C10.4411486,9.31611144 11.2040678,8.999661 12,8.999661 C12.7959323,8.999661 13.5588875,9.31607544 14.12137,9.878594 C14.6838526,10.4411126 15.000303,11.2040317 15.000303,11.999964 C15.000303,12.7958963 14.6838886,13.5588514 14.12137,14.121334 C13.5588515,14.6838166 12.7959323,15.000267 12,15.000267 Z" id="Fill-2" fill="#05BF95"></path>
    </g>
</svg>