<?xml version="1.0" encoding="UTF-8"?>
<svg width="24px" height="24px" viewBox="0 0 24 24" version="1.1" xmlns="http://www.w3.org/2000/svg" xmlns:xlink="http://www.w3.org/1999/xlink">
    <title>icon/icon-menu-list-medias</title>
    <g id="icon/icon-menu-list-medias" stroke="none" stroke-width="1" fill="none" fill-rule="evenodd">
        <g id="Group-3" transform="translate(4.000000, 4.909357)" stroke="#05BF95" stroke-width="1.5">
            <path d="M8.01656924,5.24759742 C8.70340262,5.24759742 9.32798063,5.53043725 9.78125826,5.98371488 C10.2345314,6.43698799 10.5173717,7.06156051 10.5173717,7.74839985 C10.5173717,8.43522974 10.2345265,9.05980392 9.78124992,9.51308053 C9.32797331,9.96635715 8.70339913,10.2492023 8.01656924,10.2492023 C7.32973586,10.2492023 6.70515785,9.96636246 6.25188022,9.51308483 C5.7986071,9.05981171 5.51576681,8.4352392 5.51576681,7.74839985 C5.51576681,7.06156647 5.79860664,6.43698846 6.25188427,5.98371083 C6.70515738,5.53043772 7.3297299,5.24759742 8.01656924,5.24759742 Z" id="Path"></path>
            <path d="M10.1561938,0.75 C10.2324059,0.75 10.3055113,0.772288024 10.3677266,0.811043077 C10.4280839,0.848640762 10.4787761,0.902043558 10.5093409,0.968154276 L10.5093409,0.968154276 L11.5452767,3.04087168 L12.9179864,3.04087168 C13.5690344,3.04087168 14.1568168,3.30177016 14.5795201,3.72678516 C15.0000539,4.14961869 15.2562736,4.73438092 15.2498457,5.38958487 L15.2498457,5.38958487 L15.2498457,11.0825735 C15.2498457,11.7335598 14.9888691,12.3211575 14.5642756,12.7457295 C14.1396613,13.1703222 13.5520046,13.4312866 12.9009753,13.4312866 L12.9009753,13.4312866 L3.09871369,13.4312866 C2.44771397,13.4312866 1.86010064,13.1703384 1.43552251,12.7457603 C1.01094885,12.3211867 0.75,11.7335789 0.75,11.0825735 L0.75,11.0825735 L0.75,5.38958487 C0.75,4.73858526 1.01094829,4.15097215 1.43552634,3.72639416 C1.86010008,3.30182049 2.4477081,3.04087168 3.09871369,3.04087168 L3.09871369,3.04087168 L4.47155813,3.04087168 L5.50749386,0.968154276 C5.53805873,0.902043558 5.58875091,0.848640762 5.64910822,0.811043077 L5.64910822,0.811043077 Z" id="Path"></path>
        </g>
    </g>
</svg>