<?xml version="1.0" encoding="UTF-8"?>
<svg width="24px" height="24px" viewBox="0 0 24 24" version="1.1" xmlns="http://www.w3.org/2000/svg" xmlns:xlink="http://www.w3.org/1999/xlink">
    <title>icon/icon-edit</title>
    <g id="icon/icon-edit" stroke="none" stroke-width="1" fill="none" fill-rule="evenodd">
        <path d="M18.4228625,6.50337279 L17.4949867,5.57549694 C16.7282885,4.80816769 15.4793356,4.80816769 14.7120387,5.57549694 L6.36432753,13.9245026 C6.31186591,13.9769642 6.27331013,14.0420663 6.25308404,14.1134952 L5.01676811,18.4425253 C4.97315581,18.5954847 5.01613608,18.759185 5.1280116,18.8716905 C5.2114434,18.9551224 5.32268365,19 5.43772964,19 C5.47818182,19 5.51863399,18.9943115 5.55782277,18.982934 L9.88685292,17.7459874 C9.9582769,17.7257613 10.0240117,17.6872055 10.0764765,17.6347439 L18.4228933,9.2870327 C18.7951827,8.91537428 18.9993368,8.42109722 18.9993368,7.89521892 C18.9993368,7.36934062 18.7951827,6.87506357 18.4228933,6.50340515 L18.4228625,6.50337279 Z M9.53600471,16.9367982 L6.07297477,17.9259834 L7.06279099,14.4636007 L13.7854573,7.74093432 L16.2593507,10.2148276 L9.53600471,16.9367982 Z M17.8047533,8.6686969 L16.8768774,9.59657275 L14.4029841,7.12267943 L15.3308599,6.19480358 C15.7568699,5.76879362 16.4508836,5.76942467 16.8775246,6.19480358 L17.8054005,7.12267943 C18.0120788,7.32872664 18.1258626,7.60431923 18.1258626,7.89568817 C18.12523,8.18707329 18.0108264,8.46138759 17.8047694,8.6686969 L17.8047533,8.6686969 Z" id="Fill-1" stroke="#05BF95" stroke-width="0.75" fill="#05BF95"></path>
    </g>
</svg>