<?xml version="1.0" encoding="UTF-8"?>
<svg width="24px" height="24px" viewBox="0 0 24 24" version="1.1" xmlns="http://www.w3.org/2000/svg" xmlns:xlink="http://www.w3.org/1999/xlink">
    <title>icon/icon-menu-list-support</title>
    <g id="icon/icon-menu-list-support" stroke="none" stroke-width="1" fill="none" fill-rule="evenodd">
        <path d="M12.07376,7.76 L12.246256,7.7762496 C12.674384,7.8031248 13.093136,7.9118752 13.48,8.0962496 C13.825632,8.255 14.120624,8.5068736 14.331248,8.8237536 C14.491872,9.0737536 14.591248,9.3574976 14.620624,9.6525056 C14.6543744,9.9081376 14.6337488,10.1675136 14.5599984,10.4143776 C14.4687488,10.7087456 14.3099984,10.9781216 14.0962544,11.2000096 C13.8512624,11.4450016 13.5837584,11.6650016 13.2962544,11.8575136 C13.1362544,11.9681392 12.9937584,12.0831456 12.8437584,12.1981376 L12.8431328,12.1981376 C12.7068832,12.3106368 12.6050048,12.4587616 12.5475008,12.6256416 C12.5156256,12.7118912 12.4787504,12.7981376 12.4450016,12.8850176 C12.3606272,13.1200256 12.1381216,13.2781376 11.8881216,13.2800256 C11.7499968,13.2950256 11.6099936,13.2731504 11.4831296,13.2162752 C11.2881216,13.1206496 11.1525056,12.9362752 11.1200096,12.7219072 C11.06876,12.4244032 11.1381344,12.1194112 11.3118816,11.8737792 C11.450632,11.6712832 11.6200096,11.4919072 11.8143776,11.3425312 C12.0237536,11.1712832 12.2400096,11.0081632 12.4543776,10.8368992 C12.6325056,10.7006496 12.7812576,10.5306432 12.8925056,10.3362752 C13.0700096,9.9987712 13.0256304,9.5881472 12.7806304,9.2962752 C12.6537552,9.1575248 12.4856224,9.0644032 12.3006304,9.0306432 C12.0549984,8.9731424 11.7987584,8.9775184 11.5549984,9.0431424 C11.3025024,9.1125168 11.0918784,9.2875104 10.9774944,9.5231424 C10.9024944,9.663768 10.8368688,9.8081344 10.7662464,9.9506464 C10.7149968,10.0581472 10.6449968,10.1562784 10.5599904,10.2400224 C10.41124,10.370648 10.2149984,10.4337664 10.0174944,10.4143904 C9.8974944,10.4112656 9.7799904,10.3793904 9.6749984,10.3218912 C9.4781184,10.219392 9.3543744,10.0156352 9.3549984,9.7937632 C9.3468736,9.4400192 9.4599984,9.0950112 9.6749984,8.8143872 C9.9243744,8.4781312 10.2543744,8.2106432 10.6349984,8.0368848 C10.9225024,7.9006352 11.2300064,7.8118912 11.5456224,7.7743888 L11.7249984,7.756888 L12.07376,7.76 Z" id="Fill-2" stroke="#05BF95" stroke-width="0.5" fill="#05BF95"></path>
        <path d="M11.75504,16.24 C11.7069152,16.2306256 11.6587904,16.2224992 11.6125408,16.2093744 C11.1756608,16.095 10.8944128,15.6699984 10.9606688,15.2224944 C11.0262944,14.7749904 11.4187968,14.4493744 11.8706688,14.4662384 C12.3225408,14.4831136 12.6887968,14.8374864 12.7212928,15.2887344 C12.7537936,15.7393584 12.4412928,16.1424784 11.9969248,16.2237424 L11.9188,16.24 L11.75504,16.24 Z" id="Fill-3" stroke="#05BF95" stroke-width="0.5" fill="#05BF95"></path>
        <path d="M12,4 C7.58192,4 4,7.58192 4,12 C4,16.41808 7.58192,20 12,20 C16.41808,20 20,16.41808 20,12 C20,7.58192 16.41808,4 12,4 Z M16.6512,16.6512 C15.4212,17.901824 13.7424,18.6099198 11.988,18.6175 C10.23424,18.6249398 8.54928,17.931184 7.30928,16.69056 C6.068656,15.45056 5.37487984,13.7656 5.38233918,12.01184 C5.38989968,10.25744 6.098032,8.57872 7.34864,7.34864 C8.57864,6.098016 10.25744,5.38992 12.01184,5.3823398 C13.7656,5.3748992 15.45056,6.068656 16.69056,7.30928 C17.931184,8.54928 18.62496,10.23424 18.6175005,11.988 C18.6099392,13.7424 17.901808,15.42112 16.6512,16.6512 Z" id="Fill-4" fill="#05BF95"></path>
    </g>
</svg>