<?xml version="1.0" encoding="UTF-8"?>
<svg width="360px" height="110px" viewBox="0 0 360 110" version="1.1" xmlns="http://www.w3.org/2000/svg" xmlns:xlink="http://www.w3.org/1999/xlink">
    <title>card/vignette-texte</title>
    <defs>
        <path d="M8,0 L352,0 C356.418278,-8.11624501e-16 360,3.581722 360,8 L360,110 L360,110 L0,110 L0,8 C-5.41083001e-16,3.581722 3.581722,8.11624501e-16 8,0 Z" id="path-1"></path>
        <filter x="-7.5%" y="-24.5%" width="115.0%" height="149.1%" filterUnits="objectBoundingBox" id="filter-2">
            <feMorphology radius="0.5" operator="erode" in="SourceAlpha" result="shadowSpreadOuter1"></feMorphology>
            <feOffset dx="0" dy="-1" in="shadowSpreadOuter1" result="shadowOffsetOuter1"></feOffset>
            <feGaussianBlur stdDeviation="2.5" in="shadowOffsetOuter1" result="shadowBlurOuter1"></feGaussianBlur>
            <feColorMatrix values="0 0 0 0 0   0 0 0 0 0   0 0 0 0 0  0 0 0 0.2 0" type="matrix" in="shadowBlurOuter1" result="shadowMatrixOuter1"></feColorMatrix>
            <feOffset dx="0" dy="0" in="SourceAlpha" result="shadowOffsetOuter2"></feOffset>
            <feGaussianBlur stdDeviation="9" in="shadowOffsetOuter2" result="shadowBlurOuter2"></feGaussianBlur>
            <feColorMatrix values="0 0 0 0 0   0 0 0 0 0   0 0 0 0 0  0 0 0 0.12 0" type="matrix" in="shadowBlurOuter2" result="shadowMatrixOuter2"></feColorMatrix>
            <feOffset dx="0" dy="-3" in="SourceAlpha" result="shadowOffsetOuter3"></feOffset>
            <feGaussianBlur stdDeviation="5" in="shadowOffsetOuter3" result="shadowBlurOuter3"></feGaussianBlur>
            <feColorMatrix values="0 0 0 0 0   0 0 0 0 0   0 0 0 0 0  0 0 0 0.14 0" type="matrix" in="shadowBlurOuter3" result="shadowMatrixOuter3"></feColorMatrix>
            <feMerge>
                <feMergeNode in="shadowMatrixOuter1"></feMergeNode>
                <feMergeNode in="shadowMatrixOuter2"></feMergeNode>
                <feMergeNode in="shadowMatrixOuter3"></feMergeNode>
            </feMerge>
        </filter>
    </defs>
    <g id="card/vignette-texte" stroke="none" stroke-width="1" fill="none" fill-rule="evenodd">
        <g id="Rectangle">
            <use fill="black" fill-opacity="1" filter="url(#filter-2)" xlink:href="#path-1"></use>
            <use fill="#FFFFFF" fill-rule="evenodd" xlink:href="#path-1"></use>
        </g>
        <g id="Group" transform="translate(20.000000, 18.000000)">
            <g transform="translate(0.000000, 42.000000)" id="button/switch-list">
                <rect id="Rectangle" stroke="#05BF95" x="0.5" y="0.5" width="88" height="29" rx="8"></rect>
                <text id="Appeler" font-family="Roboto-Bold, Roboto" font-size="12" font-weight="bold" fill="#05BF95">
                    <tspan x="30" y="19">Itinéraire</tspan>
                </text>
                <g id="Fill-2" transform="translate(3.000000, 3.000000)" fill="#05BF95">
                    <path d="M17.9073592,3.95529287 C17.5926239,3.64055758 17.0315765,3.64055758 16.7168552,3.95529287 C16.4021199,4.27002816 16.4021199,4.83107559 16.7168552,5.14579687 L17.1369507,5.56589233 L12.8277494,5.56589233 C10.8654356,5.56589233 9.28888654,7.14230123 9.28888654,9.10475515 C9.28888654,11.0672091 10.8652954,12.643618 12.8277494,12.643618 L14.4397501,12.643618 C15.4550975,12.643618 16.2966897,13.4838089 16.2966897,14.5005576 C16.2966897,15.5159051 15.4564988,16.3574972 14.4397501,16.3574972 L10.0251045,16.3561275 C9.63919963,15.0602493 8.48428744,14.1146877 7.08303508,14.1146877 C5.3670618,14.1146877 4,15.5159401 4,17.1977232 C4,18.8795062 5.40125236,20.2807586 7.08303508,20.2807586 C8.48428744,20.2807586 9.67479144,19.3351935 10.0251045,18.0393153 L14.4040181,18.0393153 C16.3663319,18.0393153 17.942881,16.4629064 17.942881,14.5004525 C17.942881,12.5381387 16.3664721,10.9615897 14.4040181,10.9615897 L12.7920174,10.9615897 C11.77667,10.9615897 10.9350778,10.1213988 10.9350778,9.10465006 C10.9350778,8.0893026 11.7752687,7.24771044 12.7920174,7.24771044 L17.1366004,7.24771044 L16.7165049,7.66780589 C16.4017696,7.98254118 16.4017696,8.54358861 16.7165049,8.85830989 C16.8916615,9.03346644 17.1024098,9.10325581 17.3117569,9.10325581 C17.5224912,9.10325581 17.7318524,9.03346644 17.9070089,8.85830989 L19.7639485,7.00137027 C20.0786838,6.68663498 20.0786838,6.12558755 19.7639485,5.81086627 L17.9073592,3.95529287 Z M7.0833854,18.5987303 C6.3129772,18.5987303 5.68213339,17.9678865 5.68213339,17.1974779 C5.68213339,16.4270694 6.3129772,15.7962256 7.0833854,15.7962256 C7.85379394,15.7962256 8.48463775,16.4270694 8.48463775,17.1974779 C8.48463775,17.9678865 7.85379394,18.5987303 7.0833854,18.5987303 Z"></path>
                </g>
            </g>
            <g transform="translate(99.000000, 42.000000)" id="button/switch-list">
                <rect id="Rectangle" stroke="#05BF95" x="0.5" y="0.5" width="86" height="29" rx="8"></rect>
                <text id="Appeler" font-family="Roboto-Bold, Roboto" font-size="12" font-weight="bold" fill="#05BF95">
                    <tspan x="30" y="19">Partager</tspan>
                </text>
                <g id="Group" transform="translate(3.000000, 3.000000)" fill="#05BF95" stroke="#05BF95" stroke-width="0.25">
                    <g id="Fill-1">
                        <path d="M17.3351136,9.33312371 C16.4988642,9.33249858 15.7113781,8.93778984 15.2104758,8.26767118 L9.32179649,11.7931726 C9.32866651,11.8631198 9.34178142,11.9261971 9.34178142,12.0011437 C9.34178142,12.0867048 9.32179649,12.1672745 9.31492647,12.2503318 L15.1773856,15.7807895 L15.1767604,15.7807895 C15.6770072,15.091933 16.4764044,14.684736 17.3269789,14.684736 C18.1775855,14.6853612 18.9769347,15.09318 19.4759184,15.7820366 C19.9755416,16.4708931 20.1141859,17.3577283 19.8493808,18.1658389 C19.5845885,18.9746052 18.9488119,19.6072481 18.1388307,19.8677558 C17.3288176,20.1288069 16.4433093,19.985168 15.7569469,19.4824144 C15.0705845,18.9796735 14.6665212,18.1784054 14.6708859,17.3272393 C14.6708859,17.2279398 14.6908708,17.1336413 14.6977409,17.0368343 L8.82217166,13.5620147 L8.82154813,13.5626398 C8.38063263,14.1709331 7.70301562,14.5643804 6.9560749,14.6468142 C6.20851064,14.7286277 5.46156911,14.491931 4.89890558,13.9935628 C4.33620991,13.4958102 4.00957622,12.7832276 4.00020729,12.0313626 C3.99083948,11.2800571 4.2993577,10.5593526 4.84956679,10.0472588 C5.39977587,9.53577249 6.14046595,9.27970959 6.88930925,9.34279802 C7.63812056,9.40650038 8.32573003,9.78308999 8.78164223,10.3801437 L14.6971813,6.92339051 C14.6903113,6.83907969 14.6703263,6.75601273 14.6703263,6.66921418 L14.6709499,6.66921418 C14.6709499,5.96224331 14.9513624,5.28462631 15.4509856,4.78503505 C15.9506089,4.2854438 16.6288494,4.00437575 17.3351648,4.00437575 C18.0421356,4.00437575 18.7197526,4.28541182 19.2193439,4.78503505 C19.7189352,5.28465828 20,5.96227529 20,6.66921418 C20,7.37556152 19.7189671,8.05380206 19.2193439,8.55339331 C18.7197207,9.05298457 18.0421037,9.33342908 17.3351648,9.33342908 L17.3351136,9.33312371 Z M17.3351136,18.659211 L17.3351136,18.6598358 C17.8740832,18.6598358 18.3599728,18.3350889 18.5660573,17.8373362 C18.7721579,17.3395836 18.6584868,16.7662719 18.2775229,16.3853112 C17.8965622,16.0043505 17.3232346,15.8900527 16.8254979,16.0961533 C16.3277453,16.3028774 16.0029982,16.7881275 16.0029982,17.327097 C16.0029982,17.6805745 16.1435178,18.0196947 16.3933278,18.2695063 C16.6431378,18.5193178 16.9822597,18.6598358 17.3351136,18.6598358 L17.3351136,18.659211 Z M6.6762715,10.6652392 L6.67689663,10.6658643 C6.13792707,10.6658643 5.65203748,10.9899879 5.44595257,11.488364 C5.23985199,11.9861167 5.35352307,12.5588048 5.7344873,12.9397655 C6.11544802,13.3213498 6.68877567,13.435024 7.18651232,13.2289235 C7.68426496,13.0228229 8.00901207,12.5369493 8.00901207,11.9979797 C8.00901207,11.6445023 7.86849244,11.3060056 7.61868242,11.0561939 C7.36887081,10.8057588 7.02975054,10.6658643 6.67689663,10.6658643 L6.6762715,10.6652392 Z M17.3351136,5.33613786 C16.796144,5.33613786 16.310894,5.66088497 16.1041699,6.15863761 C15.8980693,6.65639025 16.0123639,7.22970192 16.3933278,7.61066263 C16.7742885,7.99162335 17.3476162,8.10592115 17.8453528,7.89982057 C18.3431055,7.69309647 18.6678526,7.2078464 18.6678526,6.66887684 C18.6678526,6.3153994 18.5273329,5.97627913 18.2775229,5.72646751 C18.0277129,5.4766559 17.688591,5.33613786 17.3351136,5.33613786 Z"></path>
                    </g>
                </g>
            </g>
            <g transform="translate(196.000000, 42.000000)" id="button/switch-list">
                <rect id="Rectangle" stroke="#05BF95" x="0.5" y="0.5" width="99" height="29" rx="8"></rect>
                <text id="Appeler" font-family="Roboto-Bold, Roboto" font-size="12" font-weight="bold" fill="#05BF95">
                    <tspan x="30" y="19">Enregistrer</tspan>
                </text>
                <g id="Group" transform="translate(3.000000, 3.000000)" stroke="#05BF95" stroke-width="1.5">
                    <g id="Fill-1">
                        <path d="M17.249488,4.75327019 L17.249488,18.9681291 L12.0008785,14.6743719 L6.75051201,18.971556 L6.75051201,4.8879489 L17.249488,4.75327019 Z"></path>
                    </g>
                </g>
            </g>
            <text id="Tourismo-Express" font-family="Roboto-Bold, Roboto" font-size="14" font-weight="bold" fill="#212121">
                <tspan x="0" y="13">Tourismo Express</tspan>
            </text>
            <text id="Agence-de-voyages" font-family="Roboto-Bold, Roboto" font-size="12" font-weight="bold" fill="#9E9E9E">
                <tspan x="0" y="27">Agence de voyages</tspan>
            </text>
        </g>
    </g>
</svg>