<?xml version="1.0" encoding="UTF-8"?>
<svg width="24px" height="24px" viewBox="0 0 24 24" version="1.1" xmlns="http://www.w3.org/2000/svg" xmlns:xlink="http://www.w3.org/1999/xlink">
    <title>icon/icon-tel</title>
    <g id="icon/icon-tel" stroke="none" stroke-width="1" fill="white" fill-rule="evenodd">
        <path d="M19.5082547,16.6001093 C19.887004,16.9811049 20.0624878,17.5188456 19.9799874,18.049828 C19.8974889,18.5808105 19.5667557,19.0397946 19.0905112,19.2872959 C17.7472923,20.0057802 16.1821651,20.188771 14.7099445,19.8010364 C10.8011105,18.8170608 5.18294155,13.1988918 4.19896501,9.29005782 C3.81123033,7.81783721 3.99422113,6.25269084 4.71270645,4.90949113 C4.9602077,4.43324658 5.41919187,4.10251533 5.9501743,4.02001492 C6.48115674,3.93751642 7.01889741,4.11301364 7.39989305,4.49174758 L9.06785295,6.15895869 C9.55984112,6.64645417 9.70159131,7.38667318 9.4233516,8.02190911 C9.27485469,8.36915196 9.06410904,8.68713471 8.80086417,8.95938417 C6.89365882,10.8665895 13.1342,17.1072843 15.0407142,15.1992342 C15.3129636,14.9352405 15.6309464,14.7237384 15.9796868,14.5745004 C16.6141739,14.2955119 17.3544121,14.4372544 17.8418884,14.929999 L19.5082547,16.6001093 Z" id="Fill-1" fill="#05BF95"></path>
    </g>
</svg>
