<?xml version="1.0" encoding="UTF-8"?>
<svg width="24px" height="24px" viewBox="0 0 24 24" version="1.1" xmlns="http://www.w3.org/2000/svg" xmlns:xlink="http://www.w3.org/1999/xlink">
    <title>icon/icon-action-vignette-partager</title>
    <g id="icon/icon-action-vignette-partager" stroke="none" stroke-width="1" fill="none" fill-rule="evenodd">
        <path d="M17.3351136,9.33312371 C16.4988642,9.33249858 15.7113781,8.93778984 15.2104758,8.26767118 L9.32179649,11.7931726 C9.32866651,11.8631198 9.34178142,11.9261971 9.34178142,12.0011437 C9.34178142,12.0867048 9.32179649,12.1672745 9.31492647,12.2503318 L15.1773856,15.7807895 L15.1767604,15.7807895 C15.6770072,15.091933 16.4764044,14.684736 17.3269789,14.684736 C18.1775855,14.6853612 18.9769347,15.09318 19.4759184,15.7820366 C19.9755416,16.4708931 20.1141859,17.3577283 19.8493808,18.1658389 C19.5845885,18.9746052 18.9488119,19.6072481 18.1388307,19.8677558 C17.3288176,20.1288069 16.4433093,19.985168 15.7569469,19.4824144 C15.0705845,18.9796735 14.6665212,18.1784054 14.6708859,17.3272393 C14.6708859,17.2279398 14.6908708,17.1336413 14.6977409,17.0368343 L8.82217166,13.5620147 L8.82154813,13.5626398 C8.38063263,14.1709331 7.70301562,14.5643804 6.9560749,14.6468142 C6.20851064,14.7286277 5.46156911,14.491931 4.89890558,13.9935628 C4.33620991,13.4958102 4.00957622,12.7832276 4.00020729,12.0313626 C3.99083948,11.2800571 4.2993577,10.5593526 4.84956679,10.0472588 C5.39977587,9.53577249 6.14046595,9.27970959 6.88930925,9.34279802 C7.63812056,9.40650038 8.32573003,9.78308999 8.78164223,10.3801437 L14.6971813,6.92339051 C14.6903113,6.83907969 14.6703263,6.75601273 14.6703263,6.66921418 L14.6709499,6.66921418 C14.6709499,5.96224331 14.9513624,5.28462631 15.4509856,4.78503505 C15.9506089,4.2854438 16.6288494,4.00437575 17.3351648,4.00437575 C18.0421356,4.00437575 18.7197526,4.28541182 19.2193439,4.78503505 C19.7189352,5.28465828 20,5.96227529 20,6.66921418 C20,7.37556152 19.7189671,8.05380206 19.2193439,8.55339331 C18.7197207,9.05298457 18.0421037,9.33342908 17.3351648,9.33342908 L17.3351136,9.33312371 Z M17.3351136,18.659211 L17.3351136,18.6598358 C17.8740832,18.6598358 18.3599728,18.3350889 18.5660573,17.8373362 C18.7721579,17.3395836 18.6584868,16.7662719 18.2775229,16.3853112 C17.8965622,16.0043505 17.3232346,15.8900527 16.8254979,16.0961533 C16.3277453,16.3028774 16.0029982,16.7881275 16.0029982,17.327097 C16.0029982,17.6805745 16.1435178,18.0196947 16.3933278,18.2695063 C16.6431378,18.5193178 16.9822597,18.6598358 17.3351136,18.6598358 L17.3351136,18.659211 Z M6.6762715,10.6652392 L6.67689663,10.6658643 C6.13792707,10.6658643 5.65203748,10.9899879 5.44595257,11.488364 C5.23985199,11.9861167 5.35352307,12.5588048 5.7344873,12.9397655 C6.11544802,13.3213498 6.68877567,13.435024 7.18651232,13.2289235 C7.68426496,13.0228229 8.00901207,12.5369493 8.00901207,11.9979797 C8.00901207,11.6445023 7.86849244,11.3060056 7.61868242,11.0561939 C7.36887081,10.8057588 7.02975054,10.6658643 6.67689663,10.6658643 L6.6762715,10.6652392 Z M17.3351136,5.33613786 C16.796144,5.33613786 16.310894,5.66088497 16.1041699,6.15863761 C15.8980693,6.65639025 16.0123639,7.22970192 16.3933278,7.61066263 C16.7742885,7.99162335 17.3476162,8.10592115 17.8453528,7.89982057 C18.3431055,7.69309647 18.6678526,7.2078464 18.6678526,6.66887684 C18.6678526,6.3153994 18.5273329,5.97627913 18.2775229,5.72646751 C18.0277129,5.4766559 17.688591,5.33613786 17.3351136,5.33613786 Z" id="Fill-1" stroke="#05BF95" stroke-width="0.25" fill="#05BF95"></path>
    </g>
</svg>