<?xml version="1.0" encoding="UTF-8"?>
<svg width="332px" height="133px" viewBox="0 0 332 133" version="1.1" xmlns="http://www.w3.org/2000/svg" xmlns:xlink="http://www.w3.org/1999/xlink">
    <title>logo-nom</title>
    <g id="logo-nom" stroke="none" stroke-width="1" fill="none" fill-rule="evenodd">
        <g id="Group-3" fill-rule="nonzero">
            <path d="M47.3775174,0 C21.2121453,0 0,21.2121453 0,47.3775174 C0,63.1237674 7.68617442,77.07375 19.5083895,85.6888953 L19.5083895,47.3775174 C19.5083895,31.9858953 31.9858953,19.5083895 47.3775174,19.5083895 C62.7691395,19.5083895 75.2466453,31.9858953 75.2466453,47.3775174 C75.2466453,62.7691395 62.7691395,75.2466453 47.3775174,75.2466453 C42.3009419,75.2466453 37.5443023,73.8820988 33.4429535,71.5076337 L33.4429535,132.6 L56.443657,93.8838837 C78.2725465,89.6553314 94.7550349,70.4398953 94.7550349,47.3775174 C94.7550349,21.2121453 73.5428895,0 47.3775174,0 Z" id="Path" fill="#05BF95"></path>
            <circle id="Oval" fill="#FBCC47" transform="translate(47.379214, 47.382062) rotate(-10.899809) translate(-47.379214, -47.382062) " cx="47.3792139" cy="47.3820617" r="13.9351409"></circle>
            <circle id="Oval" fill="#FBCC47" cx="188.392221" cy="16.7947151" r="6.56447093"></circle>
            <circle id="Oval" fill="#FBCC47" cx="233.904087" cy="16.7947151" r="6.56447093"></circle>
            <path d="M173.594215,33.9517674 C172.626698,35.8482558 170.379436,36.63075 168.398145,35.8482558 C168.386581,35.8444012 168.375017,35.8405465 168.363453,35.8366919 C167.276442,35.4126802 166.220267,35.2006744 165.198785,35.2006744 C163.907477,35.2006744 162.851302,35.5051919 162.034116,36.1180814 C161.21693,36.7309709 160.808337,37.5288837 160.808337,38.5156744 C160.808337,39.1979477 161.012634,39.7568721 161.421227,40.200157 C161.82982,40.6434419 162.365616,41.0250523 163.028616,41.348843 C163.691616,41.6726337 164.439419,41.9540233 165.272023,42.189157 C166.104628,42.4281453 166.929523,42.6825523 167.746709,42.9523779 C171.011599,44.0432442 173.401483,45.4964477 174.91636,47.315843 C176.431238,49.1352384 177.18675,51.5097035 177.18675,54.4315291 C177.18675,56.4051105 176.85525,58.189814 176.19225,59.7894942 C175.52925,61.3891744 174.557878,62.7575756 173.285843,63.8946977 C172.009953,65.0356744 170.444965,65.9183895 168.590878,66.5466977 C166.736791,67.1750058 164.636006,67.4910872 162.288523,67.4910872 C158.823192,67.4910872 155.535174,66.7548488 152.43218,65.2862267 C150.342959,64.299436 149.514209,61.7515116 150.597366,59.7124012 L150.867192,59.2035872 C151.927221,57.2107326 154.42118,56.4089651 156.390907,57.503686 C156.757099,57.7079826 157.127145,57.8891512 157.489483,58.0510465 C158.950395,58.6986279 160.399744,59.018564 161.825965,59.018564 C163.456483,59.018564 164.674552,58.6446628 165.472465,57.8968605 C166.270378,57.1490581 166.671262,56.2971802 166.671262,55.3450814 C166.671262,54.7668837 166.571041,54.2657791 166.366744,53.8417674 C166.162448,53.4177558 165.823238,53.0245814 165.345262,52.6699535 C164.867285,52.3114709 164.246686,51.9799709 163.483465,51.6754535 C162.71639,51.370936 161.791273,51.0278721 160.704262,50.6539709 C159.412953,50.2453779 158.144773,49.7943837 156.903576,49.3009884 C155.662378,48.807593 154.556093,48.1523023 153.588576,47.3351163 C152.621058,46.5179302 151.834709,45.4887384 151.241093,44.2475407 C150.647477,43.006343 150.346814,41.4336453 150.346814,39.5294477 C150.346814,37.62525 150.659041,35.8983663 151.291203,34.3526512 C151.919512,32.806936 152.806081,31.4770814 153.943203,30.3746512 C155.08418,29.2683663 156.475709,28.4087791 158.1255,27.7997442 C159.775291,27.1868547 161.621669,26.8823372 163.660779,26.8823372 C165.564977,26.8823372 167.553977,27.1444535 169.631634,27.6725407 C170.16743,27.8074535 170.695517,27.9616395 171.21975,28.1312442 C173.617343,28.9021744 174.777593,31.6119942 173.632762,33.8554012 L173.594215,33.9517674 Z" id="Path" fill="#05BF95"></path>
            <path d="M193.468797,32.9534128 L193.468797,61.4238663 C193.468797,64.1837965 191.229244,66.4233488 188.469314,66.4233488 L188.469314,66.4233488 C185.709384,66.4233488 183.469831,64.1837965 183.469831,61.4238663 L183.469831,32.9534128 C183.469831,30.1934826 185.709384,27.9539302 188.469314,27.9539302 L188.469314,27.9539302 C191.229244,27.9539302 193.468797,30.1934826 193.468797,32.9534128 Z" id="Path" fill="#05BF95"></path>
            <path d="M216.118727,36.4225988 L216.118727,61.4238663 C216.118727,64.1837965 213.879174,66.4233488 211.119244,66.4233488 L211.119244,66.4233488 C208.359314,66.4233488 206.119762,64.1837965 206.119762,61.4238663 L206.119762,36.4225988 L202.137907,36.4225988 C199.798134,36.4225988 197.901645,34.5261105 197.901645,32.1863372 L197.901645,32.1863372 C197.901645,29.846564 199.798134,27.9500756 202.137907,27.9500756 L220.096727,27.9500756 C222.4365,27.9500756 224.332988,29.846564 224.332988,32.1863372 L224.332988,32.1863372 C224.332988,34.5261105 222.4365,36.4225988 220.096727,36.4225988 L216.118727,36.4225988 Z" id="Path" fill="#05BF95"></path>
            <path d="M238.772512,32.9534128 L238.772512,61.4238663 C238.772512,64.1837965 236.532959,66.4233488 233.773029,66.4233488 L233.773029,66.4233488 C231.013099,66.4233488 228.773547,64.1837965 228.773547,61.4238663 L228.773547,32.9534128 C228.773547,30.1934826 231.013099,27.9539302 233.773029,27.9539302 L233.773029,27.9539302 C236.532959,27.9539302 238.772512,30.1934826 238.772512,32.9534128 Z" id="Path" fill="#05BF95"></path>
            <path d="M124.940808,27.0866337 C113.823994,27.0866337 104.81182,36.0988081 104.81182,47.2156221 C104.81182,58.332436 113.823994,67.3446105 124.940808,67.3446105 C136.057622,67.3446105 145.073651,58.332436 145.073651,47.2156221 C145.073651,36.0988081 136.061477,27.0866337 124.940808,27.0866337 Z M124.940808,58.1551221 C118.90057,58.1551221 114.001308,53.2558605 114.001308,47.2156221 C114.001308,41.1753837 118.90057,36.2761221 124.940808,36.2761221 C130.981047,36.2761221 135.88031,41.1753837 135.88031,47.2156221 C135.884163,53.2597151 130.984901,58.1551221 124.940808,58.1551221 Z" id="Shape" fill="#05BF95"></path>
            <path d="M265.847581,27.0866337 C254.730767,27.0866337 245.718593,36.0988081 245.718593,47.2156221 C245.718593,58.332436 254.730767,67.3446105 265.847581,67.3446105 C276.964395,67.3446105 285.97657,58.332436 285.97657,47.2156221 C285.97657,36.0988081 276.964395,27.0866337 265.847581,27.0866337 Z M265.847581,58.1551221 C259.807343,58.1551221 254.908081,53.2558605 254.908081,47.2156221 C254.908081,41.1753837 259.807343,36.2761221 265.847581,36.2761221 C271.88782,36.2761221 276.787081,41.1753837 276.787081,47.2156221 C276.787081,53.2597151 271.88782,58.1551221 265.847581,58.1551221 Z" id="Shape" fill="#05BF95"></path>
            <path d="M313.171134,27.9539302 L311.421122,27.9539302 L311.355593,27.9539302 L309.605581,27.9539302 C306.479459,27.9539302 303.54607,28.7788256 301.002,30.2166105 C300.080738,29.1064709 298.689209,28.4010698 297.13193,28.4010698 C294.352727,28.4010698 292.097756,30.652186 292.097756,33.4352442 L292.097756,45.4617558 L292.097756,61.4431395 L292.097756,62.0521744 C292.097756,64.4690407 294.055919,66.4272035 296.472785,66.4272035 L296.480494,66.4272035 C296.6925,66.454186 296.90836,66.4734593 297.128076,66.4734593 C297.359355,66.4734593 297.582924,66.454186 297.806494,66.4233488 C300.103866,66.377093 301.965663,64.565407 302.085157,62.2873081 C302.131413,62.0136279 302.16225,61.7322384 302.16225,61.4431395 L302.16225,46.1286105 C302.686483,41.5338663 306.583535,37.9606047 311.320901,37.9606047 C311.332465,37.9606047 311.344029,37.9606047 311.351738,37.9606047 L311.351738,37.9644593 C311.363302,37.9644593 311.374866,37.9644593 311.38643,37.9644593 C311.397994,37.9644593 311.409558,37.9644593 311.421122,37.9644593 L311.421122,37.9606047 C311.432686,37.9606047 311.44425,37.9606047 311.451959,37.9606047 C316.543953,37.9606047 320.672285,42.088936 320.672285,47.1809302 L320.672285,61.4277209 C320.672285,64.1876512 322.911837,66.4272035 325.671767,66.4272035 C328.431698,66.4272035 330.671251,64.1876512 330.671251,61.4277209 L330.671251,45.4617558 C330.675105,35.790436 322.838599,27.9539302 313.171134,27.9539302 Z" id="Path" fill="#05BF95"></path>
        </g>
    </g>
</svg>