<?xml version="1.0" encoding="UTF-8"?>
<svg width="18px" height="18px" viewBox="0 0 18 18" version="1.1" xmlns="http://www.w3.org/2000/svg" xmlns:xlink="http://www.w3.org/1999/xlink">
    <title>icon-categorie/icon-categorie-sécurité</title>
    <g id="icon-categorie/icon-categorie-sécurité" stroke="none" stroke-width="1" fill="none" fill-rule="evenodd">
        <path d="M8.94876659,1.00244319 C9.13446171,0.985990899 9.31948593,1.05315198 9.45447226,1.18813831 C9.55595053,1.28877374 11.9159103,3.68234612 16.028646,4.20517836 L16.028646,4.20517836 C16.3656297,4.23875721 16.6013594,4.54231547 16.5671197,4.87945259 C15.9272352,13.780041 9.52156255,16.8314314 9.25158314,16.9492979 C9.16729886,16.9828802 9.08301459,17 8.99873031,17 C8.91444603,17 8.83016175,16.9828802 8.74587747,16.9492979 C8.47667348,16.8306265 2.07103407,13.780041 1.4303387,4.87945259 C1.41388641,4.55944204 1.66673924,4.23876059 1.98674979,4.20517836 C5.8682631,3.70849998 8.16221843,1.58180928 8.51360646,1.23573485 L8.56092405,1.18813831 C8.66233489,1.08672747 8.79731785,1.01956301 8.94876659,1.00244319 Z M9.01589227,4.71086886 C7.98735436,4.71086886 7.16163814,5.55371165 7.16163814,6.56512299 L7.16160274,7.66083379 L7.09443828,7.66083379 C6.67301689,7.66083379 6.31875321,8.01509747 6.31875321,8.43651887 L6.31875321,10.9315021 C6.31875321,11.3529235 6.67301689,11.7071872 7.09443828,11.7071872 L10.93797,11.7071872 C11.3593914,11.7071872 11.713655,11.3529235 11.713655,10.9315021 L11.7129959,8.43584459 C11.7129959,8.0144232 11.3587323,7.66015952 10.9373109,7.66015952 L10.8701464,7.66081862 L10.8701464,6.56512299 C10.8701464,5.55371165 10.0444302,4.71086886 9.01589227,4.71086886 Z M9.01595801,5.70516881 C9.48808483,5.70516881 9.87592737,6.09301135 9.87592737,6.56513817 L9.87589365,7.66083379 L8.15598866,7.66083379 L8.15598866,6.56513817 C8.15598866,6.09301135 8.5438312,5.70516881 9.01595801,5.70516881 Z" id="Combined-Shape" fill="#0D3C61"></path>
    </g>
</svg>