<?xml version="1.0" encoding="UTF-8"?>
<svg width="18px" height="18px" viewBox="0 0 18 18" version="1.1" xmlns="http://www.w3.org/2000/svg" xmlns:xlink="http://www.w3.org/1999/xlink">
    <title>icon-categorie/icon-categorie-restos&amp;bars</title>
    <g id="icon-categorie/icon-categorie-restos&amp;bars" stroke="none" stroke-width="1" fill="none" fill-rule="evenodd">
        <path d="M4.11333842,14.012838 L4.64612956,12.2180424 C5.14086196,10.8357333 7.15297901,11.1806821 8.01233376,9.37114695 C8.87291419,7.56283752 8.57212117,6.22839259 8.57212117,6.22839259 L6.07878557,5.51269314 L3.58667564,4.79821936 C3.58667564,4.79821936 2.62543279,5.77175038 2.39585458,7.76051677 C2.16996911,9.72473825 4.00774187,10.5042985 3.75361875,11.9039241 L3.22205328,13.7576464 C3.22205328,13.7576464 3.15698883,13.9810773 2.87707313,13.9921241 C2.59839882,14.0019452 1.0687637,13.6618835 1.00248301,13.8914586 C0.936189746,14.122253 2.20923783,14.484402 3.39760754,14.8244795 C4.58720292,15.1657512 5.85778708,15.5328249 5.9240992,15.3032467 C5.99039246,15.0724491 4.51231108,14.5507141 4.2815072,14.3935764 C4.04948393,14.2364387 4.11331956,14.0130203 4.11331956,14.0130203 L4.11333842,14.012838 Z M13.8866759,14.012838 C13.8866759,14.012838 13.9517404,14.236269 13.7197171,14.3933941 C13.4876938,14.5505319 12.0096188,15.0722919 12.0758994,15.3030644 C12.1421927,15.5326332 13.4127957,15.1655689 14.6023911,14.8242972 C15.7919865,14.4842512 17.0637963,14.1220802 16.9975156,13.8912763 C16.9312224,13.6617075 15.4028192,14.0017629 15.1229255,13.9919418 C14.8430255,13.9808951 14.779171,13.7574641 14.779171,13.7574641 L14.2476056,11.9037418 C13.9922568,10.5042419 15.8300452,9.72468168 15.6041441,7.76033449 C15.3745753,5.7715681 14.413323,4.79803708 14.413323,4.79803708 L11.9212131,5.51251086 L9.42787747,6.22821031 C9.42787747,6.22821031 9.12710645,7.56265524 9.98766488,9.37096467 C10.8470196,11.1804998 12.8603309,10.8355511 13.3538691,12.2178601 L13.8866759,14.012838 Z M10.9292812,3.49561053 C10.7512725,3.39249047 10.5204717,3.45755492 10.417358,3.63433485 L9.86369893,4.59435203 C9.75935006,4.77481527 9.82564332,5.00806421 9.99873995,5.10750096 C10.1779744,5.21062102 10.4087751,5.14555657 10.5106632,4.96877664 L11.0655479,4.00875946 C11.168668,3.82829622 11.1036035,3.59504728 10.9292812,3.49561053 Z M7.00712378,3.49561053 C6.82911503,3.59873373 6.77018839,3.83075386 6.87208277,4.00875946 L7.42696748,4.96877664 C7.53008753,5.14923988 7.76456215,5.20816652 7.93889074,5.10750096 C8.11812516,5.0043809 8.17705181,4.77235763 8.07393175,4.59435203 L7.52027271,3.63433485 C7.41592384,3.45387161 7.18145236,3.39494496 7.00712378,3.49561053 Z M8.96889391,2.62522471 C8.76265065,2.62522471 8.59446615,2.79709566 8.59446615,3.00210381 L8.59446615,4.11064756 C8.59446615,4.31934531 8.7687916,4.48752666 8.96889391,4.48752666 C9.17513717,4.48752666 9.34209599,4.31565885 9.34209599,4.11064756 L9.34209599,3.00210381 C9.34209599,2.79463174 9.16899937,2.62522471 8.96889391,2.62522471 Z" id="Fill-1" fill="#F78300"></path>
    </g>
</svg>