<?xml version="1.0" encoding="UTF-8"?>
<svg width="18px" height="18px" viewBox="0 0 18 18" version="1.1" xmlns="http://www.w3.org/2000/svg" xmlns:xlink="http://www.w3.org/1999/xlink">
    <title>icon-categorie/icon-categorie-commerce</title>
    <g id="icon-categorie/icon-categorie-commerce" stroke="none" stroke-width="1" fill="none" fill-rule="evenodd">
        <path d="M11.2630944,11.9639122 L14.005666,14.1577173 L11.2630944,16.3515224 L11.2630944,14.9458126 L7.32403656,14.9458126 L7.32403656,13.369622 L11.2630944,13.369622 L11.2630944,11.9639122 Z M6.73690556,9.72597737 L6.73690556,11.1316872 L10.6759634,11.1316872 L10.6759634,12.7078778 L6.73690556,12.7078778 L6.73690556,14.1135876 L3.99433395,11.9197825 L6.73690556,9.72597737 Z M10.0269081,8.9860586 C9.92499746,9.03701391 9.77213152,9.03701391 9.6702046,9.08796922 L9.46638336,9.13892453 L9.46638336,9.64847763 L8.75300902,9.64847763 L8.75300902,9.13892453 L8.6510984,9.13892453 C7.27528872,8.83319266 6.61288599,8.11981832 6.71479661,7.04977311 L7.98866306,7.04977311 L7.98866306,7.20263905 L7.98866306,7.30454967 C8.03961837,7.81410277 8.34536653,8.11983463 8.85488702,8.17077363 L9.16061889,8.17077363 C9.56826137,8.17077363 9.82302161,7.96695239 9.92496484,7.61024892 C10.0778308,7.20260643 9.92496484,6.79496395 9.61923298,6.59114271 C9.46636705,6.48923209 9.26252951,6.38732147 9.10967988,6.33636616 L9.05872457,6.33636616 C9.00776926,6.28541085 8.90585864,6.28541085 8.85490333,6.23445554 C8.75299271,6.18350023 8.60012678,6.13254492 8.44726085,6.0306343 C8.14152899,5.87776837 7.83579713,5.77585775 7.58103688,5.57205281 C7.07148378,5.21534934 6.81669092,4.60388562 6.86766254,3.99242189 C6.91861785,3.33001917 7.27530502,2.76949445 7.83582974,2.51473421 C8.03965098,2.41282359 8.19253322,2.36186828 8.44729346,2.31091296 C8.49824877,2.31091296 8.60015939,2.25995765 8.6511147,2.25995765 L8.75302532,2.20900234 L8.75302532,1.64847763 L9.46639966,1.64847763 L9.46639966,2.25994135 L9.56831028,2.25994135 C10.2816846,2.41280728 10.6893271,2.71852283 10.995059,3.17713693 C11.1988802,3.48286879 11.3007908,3.94148289 11.2498355,4.29815376 L9.97596907,4.29815376 L9.97596907,4.14528782 C9.97596907,4.0433772 9.92501376,3.94146658 9.92501376,3.78858435 C9.82310314,3.43188087 9.51737128,3.22805963 9.1097288,3.22805963 C8.70208632,3.22805963 8.44732607,3.38092556 8.34538284,3.73761273 C8.19251691,4.14525521 8.29442753,4.55289769 8.60015939,4.75671894 C8.80398063,4.90958487 9.00780187,4.96054018 9.21162311,5.0624508 C9.31353373,5.11340611 9.36448904,5.11340611 9.46639966,5.16436142 C9.56831028,5.21531673 9.72117621,5.26627204 9.82310314,5.31722735 C10.0778797,5.41913797 10.3326562,5.52104859 10.5364775,5.67393082 C11.1988802,6.0815733 11.4536731,6.69303703 11.3517624,7.55926099 C11.2498355,8.27268425 10.7912214,8.78223735 10.0269081,8.9860586 Z" id="Combined-Shape" fill="#6D7278"></path>
    </g>
</svg>