<?xml version="1.0" encoding="UTF-8"?>
<svg width="18px" height="18px" viewBox="0 0 18 18" version="1.1" xmlns="http://www.w3.org/2000/svg" xmlns:xlink="http://www.w3.org/1999/xlink">
    <title>icon-categorie/icon-categorie-communication</title>
    <g id="icon-categorie/icon-categorie-communication" stroke="none" stroke-width="1" fill="none" fill-rule="evenodd">
        <path d="M11.8471065,2.50018748 C11.6135114,2.50069578 11.3849992,2.56975773 11.1900007,2.6987349 C11.1864466,2.6987349 11.1828911,2.6987349 11.1828911,2.70228907 C11.1646106,2.7109223 11.1478525,2.72209312 11.1321109,2.73478881 C11.1143374,2.75205398 11.0950404,2.76779685 11.0742211,2.78201484 C11.021409,2.81959234 10.9706275,2.86021702 10.9228893,2.90439717 C10.1210556,3.54017011 7.1345894,5.83340386 4.52759014,6.78655628 C4.51438744,6.79011175 4.50220004,6.79620481 4.49153622,6.80432974 C4.48595017,6.80483804 4.48036541,6.80737692 4.47680994,6.81194768 C4.33513707,6.86120559 4.20208313,6.93331341 4.08326407,7.02471699 C3.82428013,6.82566257 3.50740765,6.71698344 3.18088925,6.71444846 C2.18405757,6.71444846 1.375074,7.7402183 1.375074,9.00009027 C1.375074,10.2604692 2.18401857,11.2857321 3.18088925,11.2857321 C3.50740765,11.2831932 3.82428013,11.1745219 4.08326407,10.9754636 C4.20666169,11.0704239 4.344276,11.1445662 4.49153882,11.1958508 C4.50220264,11.2039757 4.51439004,11.2100701 4.52759274,11.2136243 C4.56009248,11.2242881 4.59259222,11.2390144 4.62509196,11.2496782 L4.62509196,14.4168431 C4.62509196,15.0150465 5.1100531,15.4999945 5.70824334,15.4999945 C6.30695358,15.4999945 6.79190172,15.0150334 6.79190172,14.4168431 L6.79190172,12.2860299 C8.23554024,13.1203633 9.61638925,14.0593458 10.9228789,15.0956978 C10.9706132,15.1398767 11.0213934,15.1805014 11.0742107,15.2180802 C11.0950313,15.2322995 11.114327,15.248041 11.1321005,15.2653062 C11.1478421,15.2780015 11.1646002,15.2891727 11.1828807,15.2978059 C11.1828807,15.3013606 11.1864362,15.3013606 11.1899903,15.3013606 C11.3849888,15.4303442 11.613501,15.499401 11.8470961,15.4999945 C13.4862531,15.4999945 14.374926,12.1524352 14.374926,8.99996027 C14.374926,5.84748535 13.4867731,2.50000548 11.8470961,2.50000548 L11.8471065,2.50018748 Z M6.06930247,14.4169328 C6.06930247,14.6159872 5.90781776,14.7779789 5.70825634,14.7779789 C5.50920193,14.7779789 5.34721022,14.6159872 5.34721022,14.4169328 L5.34721022,11.5492855 C5.58536832,11.6574485 5.8275954,11.7732347 6.06931547,11.8996717 L6.06930247,14.4169328 Z M10.0419409,9.00013577 C10.0419409,8.44764017 10.067331,7.92409533 10.11405,7.44014818 C10.6665456,7.49803802 11.125091,8.18764224 11.125091,9.00013577 C11.125091,9.81262931 10.6665456,10.5022738 10.11405,10.5601234 C10.066824,10.0761762 10.0419409,9.55263138 10.0419409,9.00013577 Z M11.8477565,14.7779401 L11.8472482,14.7779401 C11.7426393,14.7748933 11.6420968,14.7398543 11.5582995,14.6768867 C11.5476357,14.670793 11.5379872,14.663684 11.5293539,14.6550507 C11.4866987,14.6291524 11.4481046,14.5976679 11.4140813,14.5611057 C11.4100188,14.5565355 11.404941,14.5529808 11.399355,14.5504416 C10.9260807,14.0918963 10.4385846,12.9472944 10.1968645,11.2751177 C11.1180242,11.1776185 11.8472014,10.1955153 11.8472014,9.00013577 C11.8472014,7.80475628 11.1179852,6.8226531 10.1968645,6.72515387 C10.4385846,5.05349717 10.9260807,3.90833628 11.399355,3.44982993 C11.404941,3.44729105 11.4100201,3.44373557 11.4140813,3.43916611 C11.4481046,3.4026039 11.4866974,3.37111945 11.5293539,3.34522106 C11.5379872,3.33658783 11.5476344,3.32947948 11.5582995,3.32338513 C11.6420877,3.26041623 11.742638,3.22537761 11.8472482,3.22233174 C12.5982912,3.22233174 13.6530638,5.42165424 13.6530638,9.00013577 C13.6530638,12.5786173 12.5983432,14.7779401 11.8472482,14.7779401 L11.8477565,14.7779401 Z" id="Fill-1" fill="#3C8694"></path>
    </g>
</svg>