<?xml version="1.0" encoding="UTF-8"?>
<svg width="18px" height="18px" viewBox="0 0 18 18" version="1.1" xmlns="http://www.w3.org/2000/svg" xmlns:xlink="http://www.w3.org/1999/xlink">
    <title>icon-categorie/icon-categorie-banques</title>
    <g id="icon-categorie/icon-categorie-banques" stroke="none" stroke-width="1" fill="none" fill-rule="evenodd">
        <path d="M15.7509402,6.7226183 C13.6105167,5.52797222 11.4699658,4.33332615 9.32979715,3.08898279 C9.13068947,2.98942895 8.8818208,2.98942895 8.68271312,3.08898279 C8.13515107,3.38764431 7.63741373,3.68630583 7.08985168,3.98496735 C5.49699024,4.88095191 3.85443089,5.82669746 2.26156945,6.72271388 C2.06246177,6.82226772 1.96290793,6.97159848 2.01268485,7.17069023 L2.01268485,7.56890559 C2.01268485,7.86756711 2.11223869,7.96712095 2.41090021,7.96712095 L3.35667762,7.96712095 L3.35667762,8.01689787 C3.35667762,8.26578247 3.5557853,8.41511323 3.75489298,8.41511323 L3.95400066,8.41511323 L3.95400066,8.51466707 C3.95400066,8.86312143 3.90422374,9.26133679 3.90422374,9.60975931 L3.95400066,10.2070823 C3.90422374,11.0035131 3.85444682,11.8497048 3.8046699,12.6959283 C3.8046699,12.895036 3.8046699,13.0443827 3.75489298,13.2434904 L3.75489298,13.3430442 L3.65533914,13.3430442 C3.20736279,13.3430442 2.85890842,13.6914986 2.85890842,14.139475 C2.85890842,14.3883596 2.95846226,14.5874513 3.10779302,14.736798 C3.25712378,14.8861447 3.45624739,14.9856826 3.70511606,14.9856826 L14.4569314,14.9856826 C14.9049078,14.9856826 15.3031231,14.6372282 15.3031231,14.1892519 C15.3031231,13.9403673 15.2035693,13.7412755 15.0542385,13.5919288 C14.9049078,13.4425821 14.7057842,13.3430442 14.4569155,13.3430442 L14.3075847,13.3430442 C14.2578078,12.6461674 14.2080309,11.9492905 14.2080309,11.3022064 C14.2080309,11.0035449 14.158254,10.7546444 14.158254,10.4560147 C14.108477,9.85869169 14.108477,9.26136865 14.0587001,8.61428462 L14.0587001,8.41517694 L14.2080309,8.41517694 C14.4569155,8.41517694 14.6062462,8.21606926 14.6062462,8.01696158 L14.6062462,7.96718466 L15.6017846,7.96718466 C15.9004462,7.96718466 16,7.86763082 16,7.5689693 L16,7.17075394 C16,6.97164626 15.9004462,6.82229957 15.7511154,6.72277759 L15.7509402,6.7226183 Z M11.2711767,11.4018081 C11.1716228,12.0986849 10.7236146,12.5964541 9.97697676,12.7955618 C9.87742292,12.8453387 9.72809216,12.8453387 9.62852239,12.8951157 L9.42941471,12.9448926 L9.42941471,13.4426618 L8.73253783,13.4426618 L8.73253783,12.9448926 L8.63298399,12.9448926 C7.28899122,12.6462311 6.64190719,11.9493542 6.74146103,10.9040548 L7.9858681,10.9040548 L7.9858681,11.0533856 L7.9858681,11.1529394 C8.03564502,11.6507086 8.33432247,11.9493701 8.83205981,11.9991311 L9.13072133,11.9991311 C9.52893669,11.9991311 9.77780536,11.8000234 9.87739106,11.4515691 C10.0267218,11.0533537 9.87739106,10.6551383 9.57872954,10.4560307 C9.42939878,10.3564768 9.23027517,10.256923 9.08096034,10.2071461 L9.03118342,10.2071461 C8.9814065,10.1573691 8.88185266,10.1573691 8.83207574,10.1075922 C8.7325219,10.0578153 8.58319114,10.0080384 8.43386038,9.90848454 C8.13519886,9.75915378 7.83653734,9.65959994 7.58766867,9.46050819 C7.08989947,9.11205382 6.84099894,8.51473078 6.89079179,7.91740774 C6.94056871,7.27032371 7.28900715,6.72276166 7.8365692,6.47389299 C8.03567688,6.37433915 8.18502356,6.32456223 8.43389224,6.27478531 C8.48366916,6.27478531 8.583223,6.22500839 8.63299992,6.22500839 L8.73255376,6.17523147 L8.73255376,5.62766942 L9.42943064,5.62766942 L9.42943064,6.22499246 L9.52898448,6.22499246 C10.2258614,6.37432322 10.6240767,6.67296881 10.9227382,7.12097702 C11.1218459,7.41963854 11.2213998,7.86764675 11.1716228,8.21606926 L9.92721576,8.21606926 L9.92721576,8.0667385 C9.92721576,7.96718466 9.87743884,7.86763082 9.87743884,7.71828413 C9.777885,7.36982976 9.47922348,7.17072208 9.08100812,7.17072208 C8.68279276,7.17072208 8.43392409,7.32005284 8.3343384,7.66849128 C8.18500764,8.06670664 8.28456148,8.464922 8.583223,8.66402968 C8.78233068,8.81336044 8.98143836,8.86313736 9.18054604,8.9626912 C9.28009988,9.01246812 9.3298768,9.01246812 9.42943064,9.06224504 C9.52898448,9.11202196 9.67831524,9.16179888 9.777885,9.2115758 C10.0267696,9.31112964 10.2756542,9.41068348 10.4747619,9.56003017 C11.1218459,9.95824553 11.3707464,10.5555686 11.2711926,11.4017603 L11.2711767,11.4018081 Z" id="Fill-1" fill="#6D7278"></path>
    </g>
</svg>