<?xml version="1.0" encoding="UTF-8"?>
<svg width="18px" height="18px" viewBox="0 0 18 18" version="1.1" xmlns="http://www.w3.org/2000/svg" xmlns:xlink="http://www.w3.org/1999/xlink">
    <title>icon-categorie/icon-categorie-petrole</title>
    <g id="icon-categorie/icon-categorie-petrole" stroke="none" stroke-width="1" fill="none" fill-rule="evenodd">
        <path d="M14.0029591,8.10140801 L13.6178505,7.79318402 C13.4867354,7.68815343 13.3604319,7.50281484 13.2684339,7.30442608 L13.4812331,7.30442608 C13.7709169,7.30442608 14.0084421,7.06690082 14.0084421,6.77721702 L14.0084421,4.66838078 C14.0084421,4.37869698 13.7709169,4.14117172 13.4812331,4.14117172 L12.954024,4.14117172 L12.954024,2 L12.6025513,2 L11.8996059,4.14117172 L11.8996059,7.30442608 L12.1501708,7.30442608 C12.2840327,7.81035346 12.5874555,8.31902234 12.9595246,8.6162628 L13.3446332,8.92448679 C13.5951981,9.12561705 13.8327058,9.61919017 13.8327058,9.9404538 L13.8327058,14.509599 C13.8327058,14.7004311 13.6720722,14.8610717 13.4812331,14.8610717 C13.2903939,14.8610717 13.1297604,14.7004381 13.1297604,14.509599 L13.1297604,10.6433992 C13.1297604,9.89994657 12.5551904,9.22241263 11.8227212,9.10022314 L11.1582269,8.9897008 L11.1575416,4.10897507 C11.1575416,3.14242513 10.366728,2.35161154 9.40017804,2.35161154 L4.87022207,2.35161154 C3.90367213,2.35161154 3.11285854,3.14242513 3.11285854,4.10897507 L3.11285854,16 L11.1575416,16 L11.1575416,10.0585293 L11.6490586,10.1402186 C11.8721559,10.1772884 12.0753598,10.4168627 12.0753598,10.6434045 L12.0753598,14.5096042 C12.0753598,15.2846367 12.7062182,15.9154958 13.4812506,15.9154958 C14.2562831,15.9154958 14.8871415,15.2846367 14.8871415,14.5096042 L14.8871415,9.94045907 C14.8871415,9.29517275 14.5068304,8.50435917 14.0029767,8.10137813 L14.0029591,8.10140801 Z M10.328312,7.03737711 L4.04099251,7.03737711 L4.04099251,4.10890653 C4.04099251,3.62426082 4.43502856,3.23022476 4.91967428,3.23022476 L9.44963025,3.23022476 C9.93427596,3.23022476 10.328312,3.62426082 10.328312,4.10890653 L10.328312,7.03737711 Z" id="Fill-1" fill="#005596"></path>
    </g>
</svg>