<?xml version="1.0" encoding="UTF-8"?>
<svg width="18px" height="18px" viewBox="0 0 18 18" version="1.1" xmlns="http://www.w3.org/2000/svg" xmlns:xlink="http://www.w3.org/1999/xlink">
    <title>icon-categorie/icon-categorie-administration</title>
    <g id="icon-categorie/icon-categorie-administration" stroke="none" stroke-width="1" fill="none" fill-rule="evenodd">
        <path d="M5.26422611,10.385617 C5.35229984,10.385617 5.44095126,10.4592987 5.44095126,10.5623422 L5.44095126,10.5623422 L5.44152747,15.0864288 L6.53182377,15.0864288 L6.53182377,10.5623422 C6.53182377,10.4742684 6.60550543,10.385617 6.70854892,10.385617 L6.70854892,10.385617 L7.26866978,10.385617 C7.35674351,10.385617 7.44539493,10.4592987 7.44539493,10.5623422 L7.44539493,10.5623422 L7.44539493,15.0864288 L8.53569123,15.0864288 L8.53569123,10.5623422 C8.53569123,10.4742684 8.60937288,10.385617 8.71241637,10.385617 L8.71241637,10.385617 L9.27253723,10.385617 C9.36061096,10.385617 9.44926238,10.4592987 9.44926238,10.5623422 L9.44926238,10.5623422 L9.44983859,15.0864288 L10.5401349,15.0864288 L10.5401349,10.5623422 C10.5401349,10.4742684 10.6138165,10.385617 10.71686,10.385617 L10.71686,10.385617 L11.2769809,10.385617 C11.3650546,10.385617 11.453706,10.4592987 11.453706,10.5623422 L11.453706,10.5623422 L11.453706,15.0864288 L12.5440023,15.0864288 L12.5440023,10.5623422 C12.5440023,10.4742684 12.617684,10.385617 12.7207275,10.385617 L12.7207275,10.385617 L13.2808484,10.385617 C13.3689221,10.385617 13.4575735,10.4592987 13.4575735,10.5623422 L13.4575735,10.5623422 L13.4581482,15.0715446 L14.3274025,15.0714561 C14.430446,15.0714561 14.5190974,15.1601105 14.5484563,15.263154 L14.5484563,15.263154 L14.5484563,15.8232749 C14.5484563,15.9113486 14.4747747,16 14.3717312,16 L14.3717312,16 L3.65813761,16 C3.57006388,16 3.48141246,15.9263183 3.48141246,15.8232749 L3.48141246,15.8232749 L3.48141246,15.263154 C3.48141246,15.1750803 3.55509412,15.0864288 3.65813761,15.0864288 L3.65813761,15.0864288 L4.52738011,15.0864288 L4.52738011,10.5623422 C4.52738011,10.4742684 4.60106176,10.385617 4.70410525,10.385617 L4.70410525,10.385617 Z M8.97782978,2 C9.19888358,2 9.39058144,2.19169786 9.39058144,2.41275166 L9.39058144,2.41275166 L9.39058144,2.57451883 L11.2620229,2.57451883 C11.4537208,2.57451883 11.60109,2.73686074 11.60109,2.91358589 L11.60109,2.91358589 L11.60109,4.0925395 C11.60109,4.28423736 11.4387481,4.43160656 11.2620229,4.43160656 L11.2620229,4.43160656 L9.39058144,4.43160656 L9.39058144,5.86096992 C11.1590119,6.02337078 12.6326449,7.15796626 13.2808336,8.73466934 L13.2808336,8.73466934 L14.3274644,8.73465461 C14.4305109,8.73465461 14.5191623,8.82330897 14.5185903,8.92635246 L14.5185903,8.92635246 L14.5185903,9.48647332 C14.5185903,9.57454705 14.4449059,9.66319847 14.3418624,9.66319847 L14.3418624,9.66319847 L3.62826882,9.66319847 C3.54019509,9.66319847 3.45154368,9.58951682 3.45154368,9.48647332 L3.45154368,9.48647332 L3.45154368,8.92635246 C3.45154368,8.83827873 3.52522533,8.74962732 3.62826882,8.74962732 L3.62826882,8.74962732 L4.67482594,8.74962732 C5.32295569,7.17289476 6.7966477,6.02329709 8.56507812,5.87592789 L8.56507812,5.87592789 L8.56507812,2.41275166 C8.56507812,2.19169786 8.75677598,2 8.97782978,2 Z" id="Combined-Shape" fill="#90A8B5"></path>
    </g>
</svg>