<?xml version="1.0" encoding="UTF-8"?>
<svg width="18px" height="18px" viewBox="0 0 18 18" version="1.1" xmlns="http://www.w3.org/2000/svg" xmlns:xlink="http://www.w3.org/1999/xlink">
    <title>icon-categorie/icon-categorie-immobilier</title>
    <g id="icon-categorie/icon-categorie-immobilier" stroke="none" stroke-width="1" fill="none" fill-rule="evenodd">
        <path d="M9.25,2 C11.1066457,2 12.8866617,2.73751691 14.1999884,4.05001158 C15.5125044,5.36329558 16.25,7.14335434 16.25,9 C16.25,10.8566457 15.5124831,12.6366617 14.1999884,13.9499884 C12.8867044,15.2625044 11.1066457,16 9.25,16 C7.44238385,16 5.7074035,15.3009208 4.40502606,14.0527619 L2.60355339,15.8535534 C2.40829124,16.0488155 2.09170876,16.0488155 1.89644661,15.8535534 C1.72288026,15.679987 1.70359511,15.4105626 1.83859116,15.2156945 L1.89644661,15.1464466 L3.73316833,13.3089498 C2.7771148,12.084554 2.25,10.5696467 2.25,9 C2.25,7.14335434 2.98751691,5.36333825 4.30001158,4.05001158 C5.61329558,2.73749558 7.39333301,2 9.25,2 Z M9.25,3 C7.65876199,3 6.13289806,3.63199707 5.00734238,4.75689428 C3.88200207,5.88294795 3.25,7.40880743 3.25,9 C3.25,10.5912249 3.88200291,12.1171078 5.00689428,13.2426576 C6.13294795,14.3679979 7.65880743,15 9.25,15 C10.8412249,15 12.3671078,14.3679971 13.4926576,13.2431057 C14.6179979,12.1170521 15.25,10.5911926 15.25,9 C15.25,7.40877508 14.6179971,5.88289223 13.4931057,4.75734238 C12.3670521,3.63200207 10.8411926,3 9.25,3 Z M9.63135866,4.85820034 L12.7412502,7.11943648 C12.9131262,7.24431477 13.0138353,7.44438884 13.0098065,7.65654924 L13.0096965,11.6151992 C13.0096965,11.7870753 12.9412142,11.9522379 12.8190206,12.0744177 C12.6968271,12.1966113 12.5316645,12.2650936 12.3598021,12.2650936 L10.9149774,12.2650936 C10.8854353,12.2650936 10.8612661,12.2409244 10.8612661,12.2113824 L10.8612661,10.1703539 C10.858578,9.54864368 10.3550223,9.0451155 9.73334649,9.04243424 L8.76654351,9.04243424 C8.14483334,9.04511894 7.64130516,9.54867806 7.6386239,10.1703539 L7.6386239,12.2113824 C7.6386239,12.2409244 7.61445124,12.2650936 7.58491262,12.2650936 L6.14008788,12.2650936 C5.96821179,12.2650936 5.80304919,12.1966113 5.68086936,12.0744177 C5.55867577,11.9522242 5.49019347,11.7870616 5.49019347,11.6151992 L5.49019347,7.65654924 C5.48616469,7.44438884 5.58687376,7.24432164 5.75874985,7.11943648 L8.86864134,4.85820034 C9.09557278,4.69169366 9.40441347,4.69169366 9.63135866,4.85820034 Z" id="Combined-Shape" fill="#03B38B" fill-rule="nonzero"></path>
    </g>
</svg>