<?xml version="1.0" encoding="UTF-8"?>
<svg width="18px" height="18px" viewBox="0 0 18 18" version="1.1" xmlns="http://www.w3.org/2000/svg" xmlns:xlink="http://www.w3.org/1999/xlink">
    <title>icon-categorie/icon-categorie-textile</title>
    <g id="icon-categorie/icon-categorie-textile" stroke="none" stroke-width="1" fill="none" fill-rule="evenodd">
        <path d="M15.9485985,4.94655986 C15.6735146,4.97123089 15.4638148,5.20313857 15.4668937,5.4794541 L15.4668937,6.16839555 C15.4668937,6.17086187 15.4650432,6.17271239 15.4631942,6.17332976 L14.4338005,6.17332976 C14.4313326,6.17332976 14.4288663,6.17086187 14.4288663,6.16839555 L14.4288663,5.87480636 C14.4288663,5.43690151 14.2549296,5.01748611 13.9453141,4.70787062 C13.6356986,4.39825512 13.2162832,4.22431844 12.7783783,4.22431844 L6.23191085,4.22431844 C6.22882717,4.22431844 6.22697664,4.22185055 6.22635927,4.21938424 L6.22635927,3.08328531 C6.22697664,2.99138592 6.18935194,2.90380653 6.12274095,2.84151712 C6.05612838,2.7786056 5.96669689,2.74653405 5.87541487,2.75208404 C5.69470451,2.7712035 5.5590099,2.92602072 5.56332043,3.10734686 L5.56332043,4.21939845 C5.56332043,4.22186476 5.56085411,4.22433265 5.55777043,4.22433265 L2.61082521,4.22433265 C2.31662023,4.22433265 2.03353102,4.34152044 1.82504701,4.54999024 C1.61657878,4.75845846 1.5,5.04094767 1.5,5.33576844 L1.5,7.26997714 C1.5,7.53765584 1.59745617,7.7966977 1.77324179,7.99900803 L3.26090944,9.70126958 C3.26090944,9.70250274 3.2621426,9.70250274 3.2621426,9.7037359 L3.39783405,11.4794184 C3.40215089,11.5404794 3.45272768,11.5873536 3.51378868,11.5873536 C3.5742323,11.5873536 3.62480752,11.5404778 3.62912594,11.4794184 L3.7598816,9.70120958 C3.7598816,9.69997643 5.43324844,7.86142185 5.43324844,7.86142185 C5.5306994,7.74978564 5.67193769,7.6856378 5.82057966,7.68502201 L8.12489327,7.68502201 L8.1242759,7.68502201 C9.20610646,7.68563938 10.0824846,8.56207908 10.0831162,9.64386227 L10.0831162,12.8690171 C10.0831162,13.0133422 10.026372,13.1515063 9.92460578,13.2532694 C9.82283956,13.3550324 9.68468495,13.4123956 9.5409693,13.4123956 L1.93297696,13.4123956 C1.81825707,13.4123956 1.70785086,13.4580366 1.6270562,13.5394517 C1.54564101,13.6202496 1.5,13.7306463 1.5,13.8453725 L1.5,14.8155558 C1.5,14.9302757 1.54564101,15.0406819 1.6270562,15.1214766 C1.70785401,15.2028902 1.81825075,15.2485328 1.93297696,15.2485328 L13.5110724,15.2485328 C13.7547037,15.2485328 13.9878351,15.152315 14.1599244,14.9802383 C14.3319979,14.8081648 14.4288347,14.5744018 14.4288347,14.3313863 L14.4288347,7.99223593 C14.4288347,7.98976804 14.431301,7.98791752 14.4343847,7.98791752 L15.4631627,7.98791752 C15.4650132,7.98791752 15.4668637,7.98976804 15.4668637,7.99223593 L15.4668637,8.69845106 C15.4662463,8.84092566 15.5254568,8.97784553 15.6296846,9.07529807 C15.7339203,9.17336482 15.8745475,9.22332425 16.0170158,9.21345583 C16.2927156,9.19001796 16.5036469,8.95749292 16.5,8.6805616 L16.5,5.46219622 C16.5,5.31910425 16.4401244,5.18280175 16.3358839,5.08473342 C16.2310325,4.98728246 16.091021,4.93732461 15.9485527,4.94657565 L15.9485985,4.94655986 Z M3.51076815,7.64055859 C3.13823166,7.64117469 2.80270566,7.41666279 2.65962159,7.07311575 C2.51714699,6.72895292 2.59609428,6.33236908 2.85945298,6.06900091 C3.12281168,5.80563274 3.5187892,5.72730123 3.86295203,5.86978531 C4.20711486,6.01225991 4.43100939,6.34839538 4.43100939,6.72093187 C4.43039202,7.22853139 4.01899925,7.64055859 3.51078394,7.64055859 L3.51076815,7.64055859 Z" id="Fill-1" fill="#9E6648"></path>
    </g>
</svg>