<?xml version="1.0" encoding="UTF-8"?>
<svg width="18px" height="18px" viewBox="0 0 18 18" version="1.1" xmlns="http://www.w3.org/2000/svg" xmlns:xlink="http://www.w3.org/1999/xlink">
    <title>icon-categorie/icon-categorie-telecom</title>
    <g id="icon-categorie/icon-categorie-telecom" stroke="none" stroke-width="1" fill="none" fill-rule="evenodd">
        <path d="M5.07291351,10.8541714 C5.2439774,10.8541714 5.38460182,10.9947896 5.38460182,11.1658597 L5.38460182,11.1658597 L5.38460182,14.6882494 C5.38460182,14.859921 5.24459143,14.9999377 5.07291351,14.9999377 L5.07291351,14.9999377 L3.07795247,14.9999377 C2.90628078,14.9999377 2.76626416,14.8599273 2.76626416,14.6882494 L2.76626416,14.6882494 L2.76626416,11.1658597 C2.76626416,10.9941881 2.90627455,10.8541714 3.07795247,10.8541714 L3.07795247,10.8541714 Z M8.34564078,8.22071688 C8.53253221,8.22071688 8.65732909,8.36072727 8.65732909,8.53240519 L8.65732909,8.53240519 L8.65732909,14.6882494 C8.65732909,14.859921 8.5173187,14.9999377 8.34564078,14.9999377 L8.34564078,14.9999377 L6.35067974,14.9999377 C6.17900805,14.9999377 6.03899143,14.8599273 6.03899143,14.6882494 L6.03899143,14.6882494 L6.03899143,8.53240519 C6.03899143,8.36073351 6.17900182,8.22071688 6.35067974,8.22071688 L6.35067974,8.22071688 Z M11.6335005,5.61827532 C11.8051722,5.61827532 11.9451888,5.75828571 11.9451888,5.92996364 L11.9451888,5.92996364 L11.9457966,14.6882494 C11.9457966,14.859921 11.8057862,14.9999377 11.6341083,14.9999377 L11.6341083,14.9999377 L9.63914727,14.9999377 C9.46747558,14.9999377 9.32745896,14.8599273 9.32745896,14.6882494 L9.32745896,14.6882494 L9.32745896,5.92996364 C9.32745896,5.75829195 9.46746935,5.61827532 9.63914727,5.61827532 L9.63914727,5.61827532 Z M14.9220475,3 L12.9270865,3 C12.7554086,3 12.6153982,3.14001662 12.6153982,3.31168831 L12.6153982,14.6883117 C12.6153982,14.8599896 12.7554148,15 12.9270865,15 L14.9220475,15 C15.0937255,15 15.2337358,14.8599834 15.2337358,14.6883117 L15.2337358,3.31168831 C15.2337358,3.14001039 15.0937192,3 14.9220475,3 Z" id="Combined-Shape" fill="#3C8694"></path>
    </g>
</svg>