<?xml version="1.0" encoding="UTF-8"?>
<svg width="26px" height="33px" viewBox="0 0 26 33" version="1.1" xmlns="http://www.w3.org/2000/svg" xmlns:xlink="http://www.w3.org/1999/xlink">
    <title>map/map-pin-tourism</title>
    <defs>
        <path d="M13,0 C20.1797017,0 26,5.82029825 26,13 C26,18.4084013 22.6972914,23.0454137 17.9986934,25.0042181 L14.7888544,31.4222912 C14.595327,31.809346 14.281482,32.123191 13.8944272,32.3167184 C12.9064702,32.8106969 11.7051241,32.4102482 11.2111456,31.4222912 L11.2111456,31.4222912 L8.00230783,25.0046355 C3.30317777,23.0460725 0,18.4087855 0,13 C0,5.82029825 5.82029825,0 13,0 Z" id="path-1"></path>
        <filter x="-26.9%" y="-15.4%" width="153.8%" height="143.0%" filterUnits="objectBoundingBox" id="filter-2">
            <feOffset dx="0" dy="2" in="SourceAlpha" result="shadowOffsetOuter1"></feOffset>
            <feGaussianBlur stdDeviation="2" in="shadowOffsetOuter1" result="shadowBlurOuter1"></feGaussianBlur>
            <feComposite in="shadowBlurOuter1" in2="SourceAlpha" operator="out" result="shadowBlurOuter1"></feComposite>
            <feColorMatrix values="0 0 0 0 0   0 0 0 0 0   0 0 0 0 0  0 0 0 0.5 0" type="matrix" in="shadowBlurOuter1"></feColorMatrix>
        </filter>
    </defs>
    <g id="map/map-pin-tourism" stroke="none" stroke-width="1" fill="none" fill-rule="evenodd">
        <g id="Combined-Shape">
            <use fill="black" fill-opacity="1" filter="url(#filter-2)" xlink:href="#path-1"></use>
            <path stroke="#FFFFFF" stroke-width="1" d="M13,0.5 C16.4517797,0.5 19.5767797,1.89911016 21.8388348,4.16116524 C24.1008898,6.42322031 25.5,9.54822031 25.5,13 C25.5,15.5606731 24.7301592,17.9415744 23.4090176,19.9236596 C22.0134215,22.0174477 20.0030282,23.6664451 17.6356107,24.6123915 L17.6356107,24.6123915 L14.3416408,31.1986844 C14.1964952,31.4889755 13.9611115,31.7243593 13.6708204,31.8695048 C13.3193816,32.0452242 12.9319337,32.0700708 12.5821683,31.9685047 C12.2351725,31.8677429 11.9250909,31.6427697 11.7242922,31.3171333 L11.7242922,31.3171333 L8.36518999,24.6127114 C5.99758889,23.6668824 3.98701402,22.0179118 2.59127201,19.9240941 C1.26995335,17.9419223 0.5,15.5608602 0.5,13 C0.5,9.54822031 1.89911016,6.42322031 4.16116524,4.16116524 C6.42322031,1.89911016 9.54822031,0.5 13,0.5 Z" stroke-linejoin="square" fill="#7A5FDB" fill-rule="evenodd"></path>
        </g>
        <g id="Combined-Shape" transform="translate(4.000000, 4.000000)" fill="#FFFFFF">
            <path d="M10.5022125,4.77054515 C10.8653871,4.69819351 11.2285689,4.77054515 11.5193918,4.98901643 C11.7364322,5.13370518 11.9180195,5.46141937 12.0272551,5.60612264 C12.1350453,5.78770992 13.0798803,7.13116524 13.0798803,7.13116524 L13.0798803,7.13116524 L14.569477,7.31275252 C14.8957603,7.34819836 15.1865832,7.63902854 15.1865832,8.0022031 C15.1511011,8.36541034 14.895753,8.61934926 14.5297457,8.72574851 L14.5297457,8.72574851 L14.3481584,8.72574851 L12.5322857,8.4718096 C12.3506911,8.43492559 12.1691038,8.32568994 12.0598682,8.18098667 L12.0598682,8.18098667 L11.8059293,7.78091358 C11.8059293,7.78091358 11.6966936,9.12436164 11.6966936,9.19671327 C11.6966936,9.26906491 11.6966936,9.41518456 11.7335776,9.4875362 C11.8073747,9.5967791 12.8599999,11.5942392 12.8599999,11.5942392 C12.8954675,11.6665908 12.9323515,11.7758264 12.9323515,11.8850621 L12.9323515,11.8850621 L13.1139388,15.6983939 C13.1508373,16.0615684 12.7876627,16.3892899 12.4244882,16.4616415 L12.4244882,16.4616415 L12.1705493,16.4616415 C11.7719216,16.3892971 11.5179827,16.0261226 11.4810987,15.5906036 L11.4810987,15.5906036 L11.1902758,12.3589323 C11.1548081,12.214229 11.1179241,12.1049933 11.0455725,11.9957577 L11.0455725,11.9957577 L9.33894262,9.63512307 C9.23112336,9.45353579 9.15735535,9.27193399 9.19423935,9.0534627 L9.19423935,9.0534627 L9.41271064,7.05600264 L8.8679488,7.45607573 L8.72324553,8.94567249 C8.6877997,9.30885431 8.39696951,9.59967724 8.03379495,9.59967724 L8.03379495,9.59967724 L7.99691095,9.59967724 L7.3429062,10.9431326 L7.56137749,11.0523682 C7.92455205,11.2339555 8.03237131,11.634014 7.88766804,11.9603046 L7.88766804,11.9603046 L6.14413962,15.5920491 C6.14413962,15.6275167 6.18102363,15.6998683 6.18102363,15.7367524 C6.18102363,16.1737095 5.81784907,16.5 5.41777598,16.5 C4.98081888,16.5 4.65452833,16.1368254 4.65452833,15.7367524 L4.65452833,15.7367524 L3.2018301,15.0473018 C2.83865591,14.8657145 2.73083665,14.4656559 2.87553992,14.1393654 L2.87553992,14.1393654 L4.69141234,10.3997581 C4.87299962,10.0365835 5.27305818,9.92876423 5.59934873,10.0734675 L5.59934873,10.0734675 L6.90735822,10.7274722 L7.56136296,9.38401692 C7.45212732,9.27619766 7.41665969,9.16696202 7.37977568,9.05772637 L7.37977568,9.05772637 L7.37977568,8.87613909 L7.56136296,7.06026631 C7.56136296,6.87867176 7.67059861,6.69708449 7.81530188,6.58784884 L7.81530188,6.58784884 L8.17847643,6.29702592 C8.17847643,6.29702592 8.22588302,6.26270209 8.30539972,6.20516075 L8.50271431,6.06241214 C9.00335189,5.70031062 9.91545681,5.04127039 9.99434922,4.98901643 C10.1021394,4.91524842 10.3206252,4.80742916 10.5022125,4.77054515 Z M9.52040642,11.0167698 L10.5375857,12.4325913 C10.5744697,12.4325913 10.5744697,12.4325913 10.5007017,12.4694753 L10.5007017,12.4694753 L10.682289,14.2853492 L9.95593988,15.9919791 C9.81125114,16.3551609 9.41117804,16.5367482 9.04800349,16.4643965 C8.97423547,16.4643965 8.90188383,16.4289289 8.8295322,16.3920449 C8.50324165,16.2104576 8.35853838,15.7394929 8.50324165,15.3394198 L8.50324165,15.3394198 L9.66510969,12.3247793 L9.66510969,12.143192 L9.52040642,11.0167698 Z M5.38094282,15.445697 C5.23482317,15.445697 5.0901199,15.5918166 5.0901199,15.7365199 C5.0901199,15.8826396 5.23623955,16.0273428 5.38094282,16.0273428 C5.5625301,16.0273428 5.67176574,15.9181072 5.67176574,15.7365199 C5.67176574,15.5904003 5.52564609,15.445697 5.38094282,15.445697 Z M4.83618825,12.5417253 C4.72836898,12.4693736 4.58224933,12.5417253 4.5098977,12.6509609 L4.5098977,12.6509609 L3.78354858,14.212901 C3.71119695,14.3207202 3.78354858,14.4668399 3.89278423,14.5391915 C4.00060349,14.6115431 4.14672314,14.5391915 4.21907478,14.4299559 L4.21907478,14.4299559 L4.94542389,12.8680158 C4.9823079,12.7233126 4.94542389,12.5771893 4.83618825,12.5417253 Z M12.267023,2.74161964 C12.5507531,4.65678435 9.67798786,5.08380499 9.3928232,3.16864028 C9.10767307,1.25205919 11.9818583,0.825038548 12.267023,2.74161964 Z"></path>
        </g>
    </g>
</svg>