<?xml version="1.0" encoding="UTF-8"?>
<svg width="26px" height="33px" viewBox="0 0 26 33" version="1.1" xmlns="http://www.w3.org/2000/svg" xmlns:xlink="http://www.w3.org/1999/xlink">
    <title>map/map-pin-batiments&amp;constructions</title>
    <defs>
        <path d="M13,0 C20.1797017,0 26,5.82029825 26,13 C26,18.4084013 22.6972914,23.0454137 17.9986934,25.0042181 L14.7888544,31.4222912 C14.595327,31.809346 14.281482,32.123191 13.8944272,32.3167184 C12.9064702,32.8106969 11.7051241,32.4102482 11.2111456,31.4222912 L11.2111456,31.4222912 L8.00230783,25.0046355 C3.30317777,23.0460725 0,18.4087855 0,13 C0,5.82029825 5.82029825,0 13,0 Z" id="path-1"></path>
        <filter x="-26.9%" y="-15.4%" width="153.8%" height="143.0%" filterUnits="objectBoundingBox" id="filter-2">
            <feOffset dx="0" dy="2" in="SourceAlpha" result="shadowOffsetOuter1"></feOffset>
            <feGaussianBlur stdDeviation="2" in="shadowOffsetOuter1" result="shadowBlurOuter1"></feGaussianBlur>
            <feComposite in="shadowBlurOuter1" in2="SourceAlpha" operator="out" result="shadowBlurOuter1"></feComposite>
            <feColorMatrix values="0 0 0 0 0   0 0 0 0 0   0 0 0 0 0  0 0 0 0.5 0" type="matrix" in="shadowBlurOuter1"></feColorMatrix>
        </filter>
    </defs>
    <g id="map/map-pin-batiments&amp;constructions" stroke="none" stroke-width="1" fill="none" fill-rule="evenodd">
        <g id="Combined-Shape">
            <use fill="black" fill-opacity="1" filter="url(#filter-2)" xlink:href="#path-1"></use>
            <path stroke="#FFFFFF" stroke-width="1" d="M13,0.5 C16.4517797,0.5 19.5767797,1.89911016 21.8388348,4.16116524 C24.1008898,6.42322031 25.5,9.54822031 25.5,13 C25.5,15.5606731 24.7301592,17.9415744 23.4090176,19.9236596 C22.0134215,22.0174477 20.0030282,23.6664451 17.6356107,24.6123915 L17.6356107,24.6123915 L14.3416408,31.1986844 C14.1964952,31.4889755 13.9611115,31.7243593 13.6708204,31.8695048 C13.3193816,32.0452242 12.9319337,32.0700708 12.5821683,31.9685047 C12.2351725,31.8677429 11.9250909,31.6427697 11.7242922,31.3171333 L11.7242922,31.3171333 L8.36518999,24.6127114 C5.99758889,23.6668824 3.98701402,22.0179118 2.59127201,19.9240941 C1.26995335,17.9419223 0.5,15.5608602 0.5,13 C0.5,9.54822031 1.89911016,6.42322031 4.16116524,4.16116524 C6.42322031,1.89911016 9.54822031,0.5 13,0.5 Z" stroke-linejoin="square" fill="#03B38B" fill-rule="evenodd"></path>
        </g>
        <g id="Fill-1" transform="translate(4.000000, 4.000000)" fill="#FFFFFF">
            <path d="M15.9088139,11.5197724 C15.8493479,11.4398449 15.7777326,11.368868 15.6971601,11.3106886 C15.4599376,11.1431662 15.1990453,11.0114432 14.9228149,10.9206432 C15.0922689,8.26392153 13.4726017,5.81868994 10.9590124,4.93950003 L10.9596524,8.20826624 C10.9161725,8.39433498 10.7710301,8.5394807 10.584945,8.58297367 C10.3144766,8.64627666 10.0433535,8.47874768 9.9800538,8.20826624 L9.9800538,4.68823276 C9.33104762,4.57953143 8.66924073,4.57953143 8.02082385,4.68823276 L8.02082385,8.20826624 C7.97734397,8.39433498 7.83220152,8.5394807 7.64611642,8.58297367 C7.37564807,8.64691506 7.10452496,8.47874768 7.04122525,8.20826624 L7.04122525,4.93950003 C4.52822516,5.81870631 2.90800141,8.26326676 3.07742267,10.9206432 C2.80119236,11.0114416 2.54031637,11.1431662 2.30307718,11.3106886 C2.22250959,11.3688762 2.15089433,11.4398514 2.09142338,11.5197724 C2.04474496,11.5824354 2.0140527,11.6559691 2.00254351,11.7339798 C1.99423107,11.8068735 2.00638013,11.8816857 2.03771111,11.9481872 C2.07671565,12.0281148 2.13042791,12.1003701 2.19628777,12.159841 C2.39514118,12.3331254 2.62342609,12.4686788 2.87087933,12.5594788 C3.69765505,12.8734401 4.56149065,13.0786935 5.44133533,13.1694935 C6.62170221,13.3184794 7.81045013,13.3932932 8.99967275,13.3932932 C10.189632,13.3932932 11.3776269,13.3184811 12.5586649,13.1694935 C13.4385096,13.0786952 14.3023125,12.8734401 15.1291209,12.5594788 C15.3765742,12.468042 15.6048427,12.332487 15.8037122,12.159841 C15.869572,12.100375 15.9232843,12.0281197 15.9622888,11.9475488 C15.9936211,11.8810489 16.0057687,11.8062368 15.9974564,11.732703 C15.9865856,11.6566124 15.9558934,11.5824387 15.9085766,11.5197724 L15.9088139,11.5197724 Z"></path>
        </g>
    </g>
</svg>