<?xml version="1.0" encoding="UTF-8"?>
<svg width="26px" height="33px" viewBox="0 0 26 33" version="1.1" xmlns="http://www.w3.org/2000/svg" xmlns:xlink="http://www.w3.org/1999/xlink">
    <title>map/map-pin-transports</title>
    <defs>
        <path d="M13,0 C20.1797017,0 26,5.82029825 26,13 C26,18.4084013 22.6972914,23.0454137 17.9986934,25.0042181 L14.7888544,31.4222912 C14.595327,31.809346 14.281482,32.123191 13.8944272,32.3167184 C12.9064702,32.8106969 11.7051241,32.4102482 11.2111456,31.4222912 L11.2111456,31.4222912 L8.00230783,25.0046355 C3.30317777,23.0460725 0,18.4087855 0,13 C0,5.82029825 5.82029825,0 13,0 Z" id="path-1"></path>
        <filter x="-26.9%" y="-15.4%" width="153.8%" height="143.0%" filterUnits="objectBoundingBox" id="filter-2">
            <feOffset dx="0" dy="2" in="SourceAlpha" result="shadowOffsetOuter1"></feOffset>
            <feGaussianBlur stdDeviation="2" in="shadowOffsetOuter1" result="shadowBlurOuter1"></feGaussianBlur>
            <feComposite in="shadowBlurOuter1" in2="SourceAlpha" operator="out" result="shadowBlurOuter1"></feComposite>
            <feColorMatrix values="0 0 0 0 0   0 0 0 0 0   0 0 0 0 0  0 0 0 0.5 0" type="matrix" in="shadowBlurOuter1"></feColorMatrix>
        </filter>
    </defs>
    <g id="map/map-pin-transports" stroke="none" stroke-width="1" fill="none" fill-rule="evenodd">
        <g id="Combined-Shape">
            <use fill="black" fill-opacity="1" filter="url(#filter-2)" xlink:href="#path-1"></use>
            <path stroke="#FFFFFF" stroke-width="1" d="M13,0.5 C16.4517797,0.5 19.5767797,1.89911016 21.8388348,4.16116524 C24.1008898,6.42322031 25.5,9.54822031 25.5,13 C25.5,15.5606731 24.7301592,17.9415744 23.4090176,19.9236596 C22.0134215,22.0174477 20.0030282,23.6664451 17.6356107,24.6123915 L17.6356107,24.6123915 L14.3416408,31.1986844 C14.1964952,31.4889755 13.9611115,31.7243593 13.6708204,31.8695048 C13.3193816,32.0452242 12.9319337,32.0700708 12.5821683,31.9685047 C12.2351725,31.8677429 11.9250909,31.6427697 11.7242922,31.3171333 L11.7242922,31.3171333 L8.36518999,24.6127114 C5.99758889,23.6668824 3.98701402,22.0179118 2.59127201,19.9240941 C1.26995335,17.9419223 0.5,15.5608602 0.5,13 C0.5,9.54822031 1.89911016,6.42322031 4.16116524,4.16116524 C6.42322031,1.89911016 9.54822031,0.5 13,0.5 Z" stroke-linejoin="square" fill="#0D3C61" fill-rule="evenodd"></path>
        </g>
        <g id="Combined-Shape" transform="translate(4.000000, 4.000000)" fill="#FFFFFF">
            <path d="M11.1559241,7.78607915 C11.4427789,7.78607915 11.6782989,8.02227283 11.6782989,8.30845389 C11.6782989,8.59530863 11.4421052,8.83082863 11.1559241,8.83082863 L11.1559241,8.83082863 L9.84210519,8.83082863 C9.18553255,8.83082863 8.66315781,9.35320337 8.66315781,10.009776 C8.66315781,10.6663486 9.18553255,11.1887234 9.84210519,11.1887234 L9.84210519,11.1887234 L14.6592842,11.1887082 C15.8718653,11.1887082 16.8652783,12.1992177 16.8659368,13.4123714 C16.8659368,14.6256093 15.871781,15.6190241 14.6592842,15.6190241 L14.6592842,15.6190241 L6.05263146,15.6190241 C5.76577672,15.6190241 5.53025672,15.3828304 5.53025672,15.0966493 C5.53025672,14.8097946 5.76645041,14.5742746 6.05263146,14.5742746 L6.05263146,14.5742746 L14.6421052,14.5742746 C15.2986779,14.5742746 15.8210526,14.0518998 15.8210526,13.3953272 C15.8210526,12.7387546 15.2986779,12.2163798 14.6421052,12.2163798 L14.6421052,12.2163798 L9.84210519,12.2163798 C8.62952412,12.2163798 7.63545253,11.2058872 7.63545253,9.99339033 C7.63545253,8.78015242 8.62960833,7.78673767 9.84210519,7.78673767 L9.84210519,7.78673767 Z M3.59354933,7.92169178 C5.02507777,7.92169178 6.18757041,9.06634863 6.18757041,10.5150392 C6.18757041,11.5255655 4.87371777,13.9505255 4.11582302,15.2643445 C3.88030302,15.6682855 3.30726722,15.6682855 3.07174722,15.2643445 C2.31381879,13.9504918 1,11.5255655 1,10.5150392 C1,9.08352758 2.16176843,7.92169178 3.59334723,7.92169178 Z M3.59334723,9.28617179 C2.91966301,9.28617179 2.38085037,9.82498443 2.38085037,10.4986686 C2.38085037,11.1723529 2.91966301,11.7111655 3.59334723,11.7111655 C4.26703144,11.7111655 4.80650261,11.171696 4.80584468,10.4986686 C4.80584468,9.82498443 4.26703144,9.28617179 3.59334723,9.28617179 Z M14.4066526,2.38097593 C15.8381642,2.38097593 17,3.54274436 17,4.97432333 C17,5.98484965 15.6861474,8.40980968 14.9282526,9.72362864 C14.6929516,10.1275697 14.1199158,10.1275697 13.8850526,9.72362864 C13.1271242,8.40977599 11.8133052,5.98484965 11.8133052,4.97432333 C11.8133052,3.54281173 12.975141,2.38097593 14.4066526,2.38097593 Z M14.4058442,3.76182647 C13.73216,3.76182647 13.1933473,4.30063911 13.1933473,4.97432333 C13.1933473,5.63089596 13.7328168,6.18682018 14.4058442,6.18682018 C15.0795284,6.18682018 15.618341,5.64800754 15.618341,4.97432333 C15.618341,4.30063911 15.0795284,3.76182647 14.4058442,3.76182647 Z"></path>
        </g>
    </g>
</svg>