<?xml version="1.0" encoding="UTF-8"?>
<svg width="18px" height="18px" viewBox="0 0 18 18" version="1.1" xmlns="http://www.w3.org/2000/svg" xmlns:xlink="http://www.w3.org/1999/xlink">
    <title>map/map-pin-administration</title>
    <g id="map/map-pin-administration" stroke="none" stroke-width="1" fill="none" fill-rule="evenodd">
        <path d="M5.26422611,9.38561703 C5.35229984,9.38561703 5.44095126,9.45929868 5.44095126,9.56234218 L5.44095126,9.56234218 L5.44152747,14.0864288 L6.53182377,14.0864288 L6.53182377,9.56234218 C6.53182377,9.47426845 6.60550543,9.38561703 6.70854892,9.38561703 L6.70854892,9.38561703 L7.26866978,9.38561703 C7.35674351,9.38561703 7.44539493,9.45929868 7.44539493,9.56234218 L7.44539493,9.56234218 L7.44539493,14.0864288 L8.53569123,14.0864288 L8.53569123,9.56234218 C8.53569123,9.47426845 8.60937288,9.38561703 8.71241637,9.38561703 L8.71241637,9.38561703 L9.27253723,9.38561703 C9.36061096,9.38561703 9.44926238,9.45929868 9.44926238,9.56234218 L9.44926238,9.56234218 L9.44983859,14.0864288 L10.5401349,14.0864288 L10.5401349,9.56234218 C10.5401349,9.47426845 10.6138165,9.38561703 10.71686,9.38561703 L10.71686,9.38561703 L11.2769809,9.38561703 C11.3650546,9.38561703 11.453706,9.45929868 11.453706,9.56234218 L11.453706,9.56234218 L11.453706,14.0864288 L12.5440023,14.0864288 L12.5440023,9.56234218 C12.5440023,9.47426845 12.617684,9.38561703 12.7207275,9.38561703 L12.7207275,9.38561703 L13.2808484,9.38561703 C13.3689221,9.38561703 13.4575735,9.45929868 13.4575735,9.56234218 L13.4575735,9.56234218 L13.4581482,14.0715446 L14.3274025,14.0714561 C14.430446,14.0714561 14.5190974,14.1601105 14.5484563,14.263154 L14.5484563,14.263154 L14.5484563,14.8232749 C14.5484563,14.9113486 14.4747747,15 14.3717312,15 L14.3717312,15 L3.65813761,15 C3.57006388,15 3.48141246,14.9263183 3.48141246,14.8232749 L3.48141246,14.8232749 L3.48141246,14.263154 C3.48141246,14.1750803 3.55509412,14.0864288 3.65813761,14.0864288 L3.65813761,14.0864288 L4.52738011,14.0864288 L4.52738011,9.56234218 C4.52738011,9.47426845 4.60106176,9.38561703 4.70410525,9.38561703 L4.70410525,9.38561703 Z M8.97782978,1 C9.19888358,1 9.39058144,1.19169786 9.39058144,1.41275166 L9.39058144,1.41275166 L9.39058144,1.57451883 L11.2620229,1.57451883 C11.4537208,1.57451883 11.60109,1.73686074 11.60109,1.91358589 L11.60109,1.91358589 L11.60109,3.0925395 C11.60109,3.28423736 11.4387481,3.43160656 11.2620229,3.43160656 L11.2620229,3.43160656 L9.39058144,3.43160656 L9.39058144,4.86096992 C11.1590119,5.02337078 12.6326449,6.15796626 13.2808336,7.73466934 L13.2808336,7.73466934 L14.3274644,7.73465461 C14.4305109,7.73465461 14.5191623,7.82330897 14.5185903,7.92635246 L14.5185903,7.92635246 L14.5185903,8.48647332 C14.5185903,8.57454705 14.4449059,8.66319847 14.3418624,8.66319847 L14.3418624,8.66319847 L3.62826882,8.66319847 C3.54019509,8.66319847 3.45154368,8.58951682 3.45154368,8.48647332 L3.45154368,8.48647332 L3.45154368,7.92635246 C3.45154368,7.83827873 3.52522533,7.74962732 3.62826882,7.74962732 L3.62826882,7.74962732 L4.67482594,7.74962732 C5.32295569,6.17289476 6.7966477,5.02329709 8.56507812,4.87592789 L8.56507812,4.87592789 L8.56507812,1.41275166 C8.56507812,1.19169786 8.75677598,1 8.97782978,1 Z" id="Combined-Shape" fill="#FFFFFF"></path>
    </g>
</svg>