<?xml version="1.0" encoding="UTF-8"?>
<svg width="18px" height="18px" viewBox="0 0 18 18" version="1.1" xmlns="http://www.w3.org/2000/svg" xmlns:xlink="http://www.w3.org/1999/xlink">
    <title>map/map-pin-agriculture</title>
    <g id="map/map-pin-agriculture" stroke="none" stroke-width="1" fill="none" fill-rule="evenodd">
        <path d="M10.9722768,6.8873921 C14.197198,5.36526815 17,6.83582597 17,6.83582597 C13.7864146,9.7690521 11.7595987,8.14076589 11.1547609,7.49102931 C10.3012323,8.05823648 9.54290606,8.73890994 8.8725449,9.46993348 C11.7174549,7.99640824 14.092937,10.2024418 14.410552,10.5174328 L14.4465272,10.5540179 C10.5711861,13.1044313 8.71604498,11.0344869 8.19796097,10.2567475 C7.33710194,11.3299093 6.65156741,12.4565273 6.12680526,13.4611683 C8.99431641,11.8117515 11.4273576,13.9878105 11.8372414,14.3876979 L11.8940978,14.4447549 L11.8940978,14.4447549 C8.19671853,16.88457 6.33856292,15.1058392 5.72704705,14.2637877 C5.53084947,14.67782 5.36615718,15.0569673 5.23172479,15.3848977 L5.10733291,15.6951509 C4.87853792,16.2790931 4.76912201,16.6363917 4.76912201,16.6363917 C4.22738495,16.9973531 4.04719938,16.6363917 4.04719938,16.6363917 C5.89626961,10.7579187 8.87145776,7.95754098 10.9722768,6.8873921 Z M4.01442989,6.70603707 C7.50668718,10.4089112 5.0994454,12.6817306 4.64219941,13.0580721 L4.59787568,13.0935698 C4.58068546,13.1069158 4.57130777,13.1136362 4.5713403,13.1136362 C1.39675387,10.1979286 4.01442989,6.70603707 4.01442989,6.70603707 Z M8.84521111,3.203181 C10.7702242,8.01638162 7.14416266,8.9209126 7.14476991,8.9209126 C5.39820294,5.32465573 8.84521111,3.203181 8.84521111,3.203181 Z" id="Combined-Shape" fill="#FFFFFF"></path>
    </g>
</svg>