<?xml version="1.0" encoding="UTF-8"?>
<svg width="18px" height="18px" viewBox="0 0 18 18" version="1.1" xmlns="http://www.w3.org/2000/svg" xmlns:xlink="http://www.w3.org/1999/xlink">
    <title>map/map-pin-santé</title>
    <g id="map/map-pin-santé" stroke="none" stroke-width="1" fill="none" fill-rule="evenodd">
        <path d="M10.7134493,15 C11.035375,15 11.2967171,14.7386556 11.2967171,14.4167299 L11.2961396,11.2961321 L14.4161467,11.2961321 C14.7380724,11.2961321 14.9994145,11.03479 14.9994145,10.7128643 L14.999992,7.28654267 C14.999992,6.96461701 14.7386499,6.70327488 14.4167242,6.70327488 L11.2967171,6.70327488 L11.2961396,3.58326779 C11.2961396,3.26134213 11.0347975,3 10.7128719,3 L7.28655022,3 C6.96462457,3 6.70328244,3.26134213 6.70328244,3.58326779 L6.70328244,6.70327488 L3.58327534,6.70327488 C3.26134969,6.70327488 3.000008,6.96461701 3.000008,7.28654267 L3.000008,10.7128643 C3.000008,11.03479 3.26134969,11.2961321 3.58327534,11.2961321 L6.70328244,11.2961321 L6.70328244,14.4161392 C6.70328244,14.7386408 6.96462457,15 7.28655022,15 L10.7134493,15 Z" id="Fill-1" fill="#FFFFFF"></path>
    </g>
</svg>