<?xml version="1.0" encoding="UTF-8"?>
<svg width="18px" height="18px" viewBox="0 0 18 18" version="1.1" xmlns="http://www.w3.org/2000/svg" xmlns:xlink="http://www.w3.org/1999/xlink">
    <title>map/map-pin-communication</title>
    <g id="map/map-pin-communication" stroke="none" stroke-width="1" fill="none" fill-rule="evenodd">
        <path d="M12.9721065,2.50018748 C12.7385114,2.50069578 12.5099992,2.56975773 12.3150007,2.6987349 C12.3114466,2.6987349 12.3078911,2.6987349 12.3078911,2.70228907 C12.2896106,2.7109223 12.2728525,2.72209312 12.2571109,2.73478881 C12.2393374,2.75205398 12.2200404,2.76779685 12.1992211,2.78201484 C12.146409,2.81959234 12.0956275,2.86021702 12.0478893,2.90439717 C11.2460556,3.54017011 8.2595894,5.83340386 5.65259014,6.78655628 C5.63938744,6.79011175 5.62720004,6.79620481 5.61653622,6.80432974 C5.61095017,6.80483804 5.60536541,6.80737692 5.60180994,6.81194768 C5.46013707,6.86120559 5.32708313,6.93331341 5.20826407,7.02471699 C4.94928013,6.82566257 4.63240765,6.71698344 4.30588925,6.71444846 C3.30905757,6.71444846 2.500074,7.7402183 2.500074,9.00009027 C2.500074,10.2604692 3.30901857,11.2857321 4.30588925,11.2857321 C4.63240765,11.2831932 4.94928013,11.1745219 5.20826407,10.9754636 C5.33166169,11.0704239 5.469276,11.1445662 5.61653882,11.1958508 C5.62720264,11.2039757 5.63939004,11.2100701 5.65259274,11.2136243 C5.68509248,11.2242881 5.71759222,11.2390144 5.75009196,11.2496782 L5.75009196,14.4168431 C5.75009196,15.0150465 6.2350531,15.4999945 6.83324334,15.4999945 C7.43195358,15.4999945 7.91690172,15.0150334 7.91690172,14.4168431 L7.91690172,12.2860299 C9.36054024,13.1203633 10.7413893,14.0593458 12.0478789,15.0956978 C12.0956132,15.1398767 12.1463934,15.1805014 12.1992107,15.2180802 C12.2200313,15.2322995 12.239327,15.248041 12.2571005,15.2653062 C12.2728421,15.2780015 12.2896002,15.2891727 12.3078807,15.2978059 C12.3078807,15.3013606 12.3114362,15.3013606 12.3149903,15.3013606 C12.5099888,15.4303442 12.738501,15.499401 12.9720961,15.4999945 C14.6112531,15.4999945 15.499926,12.1524352 15.499926,8.99996027 C15.499926,5.84748535 14.6117731,2.50000548 12.9720961,2.50000548 L12.9721065,2.50018748 Z M7.19430247,14.4169328 C7.19430247,14.6159872 7.03281776,14.7779789 6.83325634,14.7779789 C6.63420193,14.7779789 6.47221022,14.6159872 6.47221022,14.4169328 L6.47221022,11.5492855 C6.71036832,11.6574485 6.9525954,11.7732347 7.19431547,11.8996717 L7.19430247,14.4169328 Z M11.1669409,9.00013577 C11.1669409,8.44764017 11.192331,7.92409533 11.23905,7.44014818 C11.7915456,7.49803802 12.250091,8.18764224 12.250091,9.00013577 C12.250091,9.81262931 11.7915456,10.5022738 11.23905,10.5601234 C11.191824,10.0761762 11.1669409,9.55263138 11.1669409,9.00013577 Z M12.9727565,14.7779401 L12.9722482,14.7779401 C12.8676393,14.7748933 12.7670968,14.7398543 12.6832995,14.6768867 C12.6726357,14.670793 12.6629872,14.663684 12.6543539,14.6550507 C12.6116987,14.6291524 12.5731046,14.5976679 12.5390813,14.5611057 C12.5350188,14.5565355 12.529941,14.5529808 12.524355,14.5504416 C12.0510807,14.0918963 11.5635846,12.9472944 11.3218645,11.2751177 C12.2430242,11.1776185 12.9722014,10.1955153 12.9722014,9.00013577 C12.9722014,7.80475628 12.2429852,6.8226531 11.3218645,6.72515387 C11.5635846,5.05349717 12.0510807,3.90833628 12.524355,3.44982993 C12.529941,3.44729105 12.5350201,3.44373557 12.5390813,3.43916611 C12.5731046,3.4026039 12.6116974,3.37111945 12.6543539,3.34522106 C12.6629872,3.33658783 12.6726344,3.32947948 12.6832995,3.32338513 C12.7670877,3.26041623 12.867638,3.22537761 12.9722482,3.22233174 C13.7232912,3.22233174 14.7780638,5.42165424 14.7780638,9.00013577 C14.7780638,12.5786173 13.7233432,14.7779401 12.9722482,14.7779401 L12.9727565,14.7779401 Z" id="Fill-1" fill="#FFFFFF"></path>
    </g>
</svg>