<?xml version="1.0" encoding="UTF-8"?>
<svg width="18px" height="18px" viewBox="0 0 18 18" version="1.1" xmlns="http://www.w3.org/2000/svg" xmlns:xlink="http://www.w3.org/1999/xlink">
    <title>map/map-pin-justice</title>
    <g id="map/map-pin-justice" stroke="none" stroke-width="1" fill="none" fill-rule="evenodd">
        <path d="M9.0004586,2.24186514 C9.31786003,2.24186514 9.57571816,2.49914605 9.57571816,2.8171247 L9.57571816,2.8171247 L9.57571816,3.66816606 C9.89023345,3.80924652 10.1434708,4.06131757 10.2845394,4.37698732 L10.2845394,4.37698732 L14.864622,4.37698732 C15.1826007,4.37698732 15.441036,4.63426822 15.441036,4.95224687 C15.441036,5.27080276 15.1826007,5.52866089 14.864622,5.52866089 L14.864622,5.52866089 L13.979465,5.52866089 L15.1802918,9.16993387 L14.3720393,9.16993387 L13.3862818,6.17856048 L12.3987926,9.16993387 L11.5905401,9.16993387 L12.7913669,5.52866089 L10.284421,5.52866089 C10.1439178,5.84317618 9.8912695,6.09525611 9.57559975,6.23748214 L9.57559975,6.23748214 L9.57559975,14.1628233 L11.370779,14.1628233 C11.8038777,14.1630024 12.1548175,14.5139423 12.1548175,14.9464042 L12.1548175,14.9464042 L12.1548175,15.7581349 L5.84660291,15.7575567 L5.84660291,14.9458261 C5.84660291,14.5133636 6.19638831,14.1630009 6.62942776,14.1630009 L6.62942776,14.1630009 L8.42460701,14.1630009 L8.42460701,6.23706772 C8.11009173,6.09598726 7.85801179,5.84333898 7.71578576,5.52824647 L7.71578576,5.52824647 L5.20883992,5.52824647 L6.40908945,9.16996347 L5.60083697,9.16996347 L4.61450223,6.17859008 L3.62933675,9.16877941 L2.82108397,9.16877941 L4.02191103,5.52750643 L3.13733123,5.52750643 C2.81935243,5.52750643 2.56091707,5.26907107 2.56091707,4.95109242 C2.56091707,4.63369099 2.81935243,4.37583286 3.13733123,4.37583286 L3.13733123,4.37583286 L7.71637779,4.37583286 C7.85745825,4.06131757 8.1095293,3.80865893 8.42519904,3.66701161 L8.42519904,3.66701161 L8.42519904,2.8171247 C8.42519904,2.49972327 8.68247995,2.24186514 9.0004586,2.24186514 Z M7.22998175,9.93766198 C7.22998175,11.3818866 6.05977767,12.5532303 4.61439862,12.5526533 C3.1695968,12.5526533 2,11.3818866 2,9.93766198 L2,9.93766198 Z M16,9.93766198 C16,11.3818866 14.8309948,12.5526531 13.3856009,12.5526531 C11.9402071,12.5526531 10.7706098,11.3818866 10.7706098,9.93766198 L10.7706098,9.93766198 Z" id="Combined-Shape" fill="#FFFFFF"></path>
    </g>
</svg>