<?xml version="1.0" encoding="UTF-8"?>
<svg width="18px" height="18px" viewBox="0 0 18 18" version="1.1" xmlns="http://www.w3.org/2000/svg" xmlns:xlink="http://www.w3.org/1999/xlink">
    <title>map/map-pin-achats</title>
    <g id="map/map-pin-achats" stroke="none" stroke-width="1" fill="none" fill-rule="evenodd">
        <path d="M15.3656223,6.69862776 L14.3318735,6.69862776 L11.9690191,3.8188989 C11.7324973,3.53854622 11.3338838,3.49412455 11.0535311,3.73006148 C10.7731784,3.96658321 10.7287568,4.36519675 10.9646937,4.64554943 L12.6479321,6.69798388 L5.36723919,6.6985613 L7.05047763,4.64612686 C7.28699936,4.36577418 7.24257769,3.9521565 6.96164021,3.7306389 C6.68128753,3.5091213 6.26766986,3.53853883 6.04615225,3.81947632 L3.6832978,6.69920518 L2.64954869,6.69920518 C2.29535681,6.69920518 2,6.99456198 2,7.34875387 C2,7.70294575 2.29535681,7.99830255 2.64954869,7.99830255 L3.26968013,7.99830255 L4.21573752,13.8760492 C4.26015623,14.1864101 4.54051186,14.4223411 4.86528621,14.4223411 L13.1352768,14.4223411 C13.4600511,14.4223411 13.7259904,14.1858194 13.7848255,13.8760492 L14.729731,8.01336427 L15.3498621,8.01336427 C15.704054,8.01336427 15.9994108,7.71800747 15.9994108,7.36381559 C16.0149864,6.99404363 15.7196341,6.69868683 15.3654274,6.69868683 L15.3656223,6.69862776 Z M6.94795337,11.7641447 C6.94795337,12.1183365 6.65259657,12.4136933 6.29840469,12.4136933 C5.9442128,12.4136933 5.648856,12.1183365 5.648856,11.7641447 L5.64827858,9.35683901 C5.64827858,9.00264713 5.94363538,8.70729032 6.29782726,8.70729032 C6.65201914,8.70729032 6.94737595,9.00264713 6.94737595,9.35683901 L6.94795337,11.7641447 Z M9.65002511,11.7641447 C9.65002511,12.1183365 9.35466831,12.4136933 9.00047643,12.4136933 C8.64628454,12.4136933 8.35092774,12.1183365 8.35092774,11.7641447 L8.35092774,9.35683901 C8.35092774,9.00264713 8.64628454,8.70729032 9.00047643,8.70729032 C9.35466831,8.70729032 9.65002511,9.00264713 9.65002511,9.35683901 L9.65002511,11.7641447 Z M12.3676031,11.7641447 C12.3676031,12.1183365 12.0722463,12.4136933 11.7180544,12.4136933 C11.3638625,12.4136933 11.0685057,12.1183365 11.0685057,11.7641447 L11.0679283,9.35683901 C11.0679283,9.00264713 11.3632851,8.70729032 11.717477,8.70729032 C12.0716689,8.70729032 12.3670257,9.00264713 12.3670257,9.35683901 L12.3676031,11.7641447 Z" id="Fill-1" fill="#FFFFFF"></path>
    </g>
</svg>