<?xml version="1.0" encoding="UTF-8"?>
<svg width="18px" height="18px" viewBox="0 0 18 18" version="1.1" xmlns="http://www.w3.org/2000/svg" xmlns:xlink="http://www.w3.org/1999/xlink">
    <title>map/map-pin-automobile</title>
    <g id="map/map-pin-automobile" stroke="none" stroke-width="1" fill="none" fill-rule="evenodd">
        <path d="M3.42575773,7.27645848 L4.40032406,4.63818932 C4.75690481,3.94909481 5.30379544,3.52087309 5.94528798,3.30704224 L12.0541607,3.30704224 C12.6962133,3.52087309 13.2190509,3.94909481 13.5991247,4.63818932 L14.573691,7.27645848 L15.8337431,7.27645848 C15.9289037,7.27645848 16,7.34755482 16,7.44271536 L16,7.96555299 C16,8.06071353 15.9289037,8.15587686 15.8337431,8.15587686 L15.0970746,8.15587686 C15.3109055,8.41729568 15.5247503,8.72628847 15.7391272,9.13044319 C15.7391272,10.7230091 15.762644,12.315575 15.762644,13.9322219 C15.762644,14.3363766 15.4301302,14.6929578 15.0019085,14.6929578 L14.4790709,14.6929578 C14.0513952,14.6929578 13.7183354,14.3363766 13.7183354,13.9322219 L13.7183354,12.9576555 L4.28166495,12.9576555 L4.28166495,13.9322219 C4.28166495,14.3363766 3.94915119,14.6929578 3.52092947,14.6929578 L2.99809156,14.6929578 C2.57041586,14.6929578 2.23735608,14.3363766 2.23735608,13.9322219 C2.23735608,12.315575 2.26087285,10.7230091 2.26087285,9.13044319 C2.4747037,8.72628847 2.68854855,8.41728168 2.90292542,8.15587686 L2.16625694,8.15587686 C2.07109635,8.15587686 2,8.06071633 2,7.96555299 L2,7.44271536 C2,7.34755482 2.07109635,7.27645848 2.16625694,7.27645848 L3.42630936,7.27645848 L3.42575773,7.27645848 Z M6.06402689,4.35271751 C5.65987217,4.42381385 5.39845335,4.68523126 5.25571745,5.01829104 C4.97023164,5.80254749 4.66123885,6.70606088 4.39982003,7.49023332 L13.5986206,7.49023332 C13.3372018,6.70597687 13.004142,5.80246349 12.7427232,5.01829104 C12.5764663,4.68577729 12.3385685,4.42381245 11.9344138,4.35271751 L6.06341227,4.35271751 L6.06402689,4.35271751 Z M13.3377478,9.20209815 C12.8624982,9.20209815 12.4818504,9.58218588 12.4818504,10.0579956 C12.4818504,10.5332452 12.8619382,10.913893 13.3377478,10.913893 C13.7894905,10.913893 14.1695783,10.5338053 14.1695783,10.0579956 C14.1695783,9.5827459 13.7894905,9.20209815 13.3377478,9.20209815 Z M4.66172887,9.20209815 C5.13697854,9.20209815 5.51762628,9.58218588 5.51762628,10.0579956 C5.51762628,10.5332452 5.13753856,10.913893 4.66172887,10.913893 C4.20998618,10.913893 3.82989845,10.5338053 3.82989845,10.0579956 C3.82989845,9.5827459 4.20998618,9.20209815 4.66172887,9.20209815 Z" id="Fill-1" fill="#FFFFFF"></path>
    </g>
</svg>