<?xml version="1.0" encoding="UTF-8"?>
<svg width="18px" height="18px" viewBox="0 0 18 18" version="1.1" xmlns="http://www.w3.org/2000/svg" xmlns:xlink="http://www.w3.org/1999/xlink">
    <title>map/map-pin-add</title>
    <defs>
        <path d="M13.778157,4.22941671 C13.6364569,4.08739709 13.4440786,4.00758438 13.2434585,4.00758438 C13.0428383,4.00758438 12.85046,4.08739709 12.70876,4.22941671 L9,7.93059633 L5.29124005,4.22183233 C5.14953999,4.0798127 4.95716165,4 4.75654152,4 C4.55592139,4 4.36354306,4.0798127 4.221843,4.22183233 C3.92605233,4.51762332 3.92605233,4.99543954 4.221843,5.29123054 L7.93060296,9 L4.221843,12.7087585 C3.92605233,13.0045495 3.92605233,13.4823658 4.221843,13.7781568 C4.51763367,14.0739477 4.99544937,14.0739477 5.29124005,13.7781568 L9,10.0693928 L12.70876,13.7781568 C13.0045506,14.0739477 13.4823663,14.0739477 13.778157,13.7781568 C14.0739477,13.4823658 14.0739477,13.0045495 13.778157,12.7087585 L10.069397,9 L13.778157,5.29123054 C14.0663633,5.00302393 14.0663633,4.51762332 13.778157,4.22941671 Z" id="path-1"></path>
    </defs>
    <g id="map/map-pin-add" stroke="none" stroke-width="1" fill="none" fill-rule="evenodd">
        <mask id="mask-2" fill="white">
            <use xlink:href="#path-1"></use>
        </mask>
        <use id="icon/content/clear_24px" stroke="#FFFFFF" fill="#FFFFFF" fill-rule="nonzero" transform="translate(9.000000, 9.000000) rotate(-45.000000) translate(-9.000000, -9.000000) " xlink:href="#path-1"></use>
    </g>
</svg>