<?xml version="1.0" encoding="UTF-8"?>
<svg width="18px" height="18px" viewBox="0 0 18 18" version="1.1" xmlns="http://www.w3.org/2000/svg" xmlns:xlink="http://www.w3.org/1999/xlink">
    <title>map/map-pin-nouvelles technologies</title>
    <g id="map/map-pin-nouvelles-technologies" stroke="none" stroke-width="1" fill="none" fill-rule="evenodd">
        <path d="M11.0316708,10.6121755 L11.5613141,12.555295 L12.9012259,12.555295 C13.0628115,12.1286007 13.4751374,11.8192091 13.9610718,11.8192091 C14.5791205,11.819371 15.0943806,12.320248 15.0943806,12.9533997 C15.0943806,13.5715941 14.5940777,14.0868542 13.9609261,14.0868542 C13.4749916,14.0868542 13.0632546,13.7774626 12.9010802,13.3507683 L12.9010802,13.3507683 L10.9579606,13.3507683 L10.4277433,11.3926326 L9.39722301,11.3926326 L9.39664739,13.8066999 C9.82334166,13.9682855 10.1327333,14.3806113 10.1327333,14.8665458 C10.1327333,15.4847399 9.63243042,16 8.99927878,16 C8.38108441,16 7.86582429,15.4996971 7.86582429,14.8665458 C7.86582429,14.3806113 8.17521591,13.9688743 8.60191018,13.8066999 L8.60191018,13.8066999 L8.60191018,11.4069127 L7.57138993,11.4069127 L7.04117254,13.3650484 L5.09805301,13.3650484 C4.93646744,13.7917426 4.52414157,14.1011342 4.03820711,14.1011342 C3.42001273,14.1011342 2.90475232,13.6008314 2.90475232,12.9676798 C2.90475232,12.3494854 3.40505547,11.8342253 4.03820711,11.8342253 C4.52414157,11.8342253 4.93587857,12.1436169 5.09805301,12.5703111 L5.09805301,12.5703111 L6.43796488,12.5703111 L6.96818227,10.6121755 L11.0316708,10.6121755 Z M13.9610718,7.85936145 C14.5792662,7.85936145 15.0945263,8.37462158 15.0945263,8.99281595 C15.0945263,9.61101032 14.5942235,10.1262704 13.9610718,10.1262704 C13.4751374,10.1262704 13.0634004,9.81687882 12.9012259,9.39018456 L12.9012259,9.39018456 L5.11373164,9.39018456 C4.95214607,9.81687882 4.5398202,10.1262704 4.05388574,10.1262704 C3.43569136,10.1262704 2.92043095,9.61101032 2.92043095,8.99281595 C2.92043095,8.37462158 3.4207341,7.85936145 4.05388574,7.85936145 C4.5398202,7.85936145 4.9515572,8.16875307 5.11373164,8.59544734 L5.11373164,8.59544734 L12.9012259,8.59544734 C13.0628115,8.16875307 13.4751374,7.85936145 13.9610718,7.85936145 Z M9.00013264,2 C9.61832702,2 10.1335871,2.50030286 10.1335871,3.1334545 C10.1335871,3.61938896 9.82419552,4.03112596 9.39750125,4.1933004 L9.39750125,4.1933004 L9.39750125,6.57866034 L10.4280215,6.57866034 L10.9582389,4.62052465 L12.9019473,4.62052465 C13.0635329,4.19383038 13.4758587,3.88443876 13.9617932,3.88443876 C14.5799876,3.88443876 15.0952477,4.39969889 15.0952477,5.01789326 C15.0952477,5.63608763 14.5949448,6.15134776 13.9617932,6.15134776 C13.4758587,6.15134776 13.0641217,5.84195613 12.9019473,5.41526187 L12.9019473,5.41526187 L11.5620354,5.41526187 L11.031818,7.37339755 L6.96832948,7.37339755 L6.43868624,5.43027802 L5.09877438,5.43027802 C4.9371888,5.85697229 4.52486293,6.16636391 4.03892847,6.16636391 C3.42077826,6.16634919 2.91990023,5.65108906 2.92047476,5.03232054 C2.92047476,4.41412617 3.42077826,3.89886605 4.0539299,3.89886605 C4.53986436,3.89886605 4.95160136,4.20825767 5.11377581,4.63495194 L5.11377581,4.63495194 L7.0420264,4.63495194 L7.57224379,6.59308762 L8.60276404,6.59308762 L8.60276404,4.1933004 C8.17606977,4.03171483 7.86667815,3.61938896 7.86667815,3.1334545 C7.86667815,2.51526012 8.366981,2 9.00013264,2 Z" id="Combined-Shape" fill="#FFFFFF"></path>
    </g>
</svg>