<?xml version="1.0" encoding="UTF-8"?>
<svg width="18px" height="18px" viewBox="0 0 18 18" version="1.1" xmlns="http://www.w3.org/2000/svg" xmlns:xlink="http://www.w3.org/1999/xlink">
    <title>map/map-pin-check</title>
    <g id="map/map-pin-check" stroke="none" stroke-width="1" fill="none" fill-rule="evenodd">
        <path d="M8.81095429,13.000988 C9.49537764,13.0276173 10.0501236,13.5868208 10.0993433,14.2988942 C10.1485703,15.009983 9.67524415,15.64611 9.00218666,15.7743454 L8.88385572,15.8 L8.6358183,15.8 C8.56292655,15.7852071 8.49003481,15.7723836 8.41998332,15.7516725 C7.75826745,15.5711887 7.33227802,14.9005323 7.432632,14.1943669 C7.53203115,13.4882015 8.12653094,12.9743765 8.81095429,13.000988 Z M8.59031609,2 L9.11856432,2.00533198 L9.37983364,2.03317344 C10.0282934,2.0792204 10.6625519,2.26554926 11.2485115,2.58144945 C11.7720195,2.85344643 12.2188262,3.28499722 12.5378457,3.82792754 C12.7811332,4.25626817 12.931652,4.74242451 12.9761461,5.24788016 C13.0272658,5.68587045 12.9960254,6.13027557 12.8843202,6.55324309 C12.7461099,7.05760219 12.5056602,7.51914094 12.181915,7.89931552 C11.8108403,8.31907563 11.4056681,8.69601539 10.9702031,9.02585823 C10.7278607,9.21539999 10.5120306,9.41244765 10.2848346,9.60947063 L10.283887,9.60947063 C10.077518,9.80222254 9.92320888,10.056014 9.83611103,10.34194 C9.78783158,10.4897168 9.73197893,10.6374881 9.68086165,10.7863451 C9.55306482,11.188999 9.21604896,11.4599022 8.83738899,11.463137 C8.62817966,11.4888374 8.41612523,11.4513573 8.22397196,11.3539094 C7.92860507,11.1900681 7.72319566,10.8741679 7.67397593,10.5068778 C7.59635124,9.99714563 7.70142847,9.47458377 7.96459291,9.0537271 C8.1747498,8.70677805 8.43129587,8.39944193 8.72569339,8.14350669 C9.04282263,7.85009678 9.37037259,7.57061309 9.69506291,7.27717577 C9.96486269,7.04373081 10.1901684,6.75244821 10.3586691,6.41942537 C10.6275237,5.84115866 10.5603052,5.13761089 10.1892184,4.63752834 C9.99704818,4.3997986 9.74238753,4.24024755 9.46219127,4.18240443 C9.09014725,4.08388471 8.70203593,4.09138238 8.33282731,4.20382009 C7.9503868,4.32268358 7.63136729,4.62251106 7.45811672,5.0262341 C7.34451873,5.26717673 7.24511958,5.51452871 7.13815208,5.75870343 C7.06052739,5.94289127 6.9545026,6.1110256 6.82574851,6.25450943 C6.60044522,6.47831843 6.30320987,6.58646314 6.00406244,6.55326502 C5.82230565,6.54791111 5.64432941,6.49329734 5.48530434,6.39478036 C5.18710204,6.21916207 4.99967444,5.87005281 5.00061957,5.48990564 C4.98831343,4.88381392 5.15965676,4.29269015 5.48530434,3.8118795 C5.86301917,3.23575107 6.36285033,2.77744716 6.93935862,2.47973602 C7.37482364,2.24629107 7.84058147,2.09424042 8.31862605,2.02998521 L8.59031609,2 Z" id="Combined-Shape" fill="#05BF95"></path>
    </g>
</svg>