<?xml version="1.0" encoding="UTF-8"?>
<svg width="18px" height="18px" viewBox="0 0 18 18" version="1.1" xmlns="http://www.w3.org/2000/svg" xmlns:xlink="http://www.w3.org/1999/xlink">
    <title>map/map-pin-loisirs</title>
    <g id="map/map-pin-loisirs" stroke="none" stroke-width="1" fill="none" fill-rule="evenodd">
        <path d="M9.35331887,14.214829 C9.78098499,13.6105451 10.6056728,13.4632162 11.2099568,13.8758548 L11.2099568,13.8758548 C11.814167,14.2884639 11.9614958,15.1131518 11.5339034,15.7174357 C11.1069444,16.3510678 10.1929753,17.0284298 8.73465565,16.9990789 C8.52804465,16.9990789 8.42502938,16.7487378 8.57235821,16.601409 C9.35331887,15.7467541 8.91133238,14.8628401 9.35331887,14.214829 Z M2.93023387,3.00087935 L3.01827664,3.00286353 L3.10690362,3.03221438 C6.1271446,3.40053645 9.20602245,3.40053645 12.241291,3.03221438 L12.241291,3.03221438 L12.3592689,3.01725166 C12.4922185,3.00286353 12.6395444,3.04660251 12.7425596,3.13522964 C12.8605347,3.22386266 12.9192364,3.35622288 12.9192364,3.50355171 L12.9192364,3.50355171 L12.9192364,7.85034146 C12.816224,7.95335377 12.727591,8.08571694 12.6539266,8.20369492 L12.6539266,8.20369492 L9.82539874,12.8739746 C9.35348977,13.0213034 8.94142577,13.3159611 8.64676811,13.7435535 C8.58806936,13.8465658 8.52879308,13.9495811 8.47009138,14.0675591 C8.20478163,14.1112981 7.95444048,14.1262608 7.68913073,14.1262608 C5.59647205,14.1262608 3.74054134,12.8590855 2.95958083,10.9293725 C2.62060667,10.074718 2.44392993,9.17574696 2.44392993,8.26242608 L2.44392993,8.26242608 L2.44392993,3.5035576 C2.44392993,3.35622878 2.5175914,3.22385677 2.62060667,3.12084151 C2.72361898,3.03221438 2.87094781,2.98790081 3.01827664,3.00286353 Z M13.4055983,8.6456814 C13.744543,8.05636609 14.510535,7.89406865 15.0555338,8.27735933 C15.6005179,8.64565194 15.7184988,9.41164398 15.3202543,9.94226349 L15.3202543,9.94226349 L12.3150408,13.8021315 C12.1533327,13.5517903 11.9467188,13.3451764 11.6963776,13.1684996 C11.4454472,12.9918229 11.1657581,12.873839 10.8711005,12.8295255 L10.8711005,12.8295255 Z M9.58987003,9.42543396 C9.35390818,9.29307374 9.04428781,9.36673815 8.9119217,9.6170793 C8.67595985,10.0590658 8.20462546,10.3243755 7.68897456,10.3243755 C7.17332366,10.3243755 6.70198927,10.0446865 6.43667952,9.60270001 C6.30372999,9.36732158 5.99469304,9.29365716 5.75873118,9.42602328 C5.52335275,9.55897281 5.44968834,9.86800976 5.58205445,10.1039716 C6.02404094,10.8699637 6.80503106,11.3269187 7.68900403,11.3269187 C8.57296226,11.3269187 9.36830221,10.8699489 9.78151537,10.1033823 C9.91387559,9.86742044 9.82583188,9.55780007 9.58987003,9.42543396 Z M9.66306299,5.80208769 C8.67607771,5.80208769 8.33710649,6.61239625 8.30775564,7.05438273 C8.29279292,7.14301575 8.32271835,7.23164288 8.38142005,7.29034458 C8.44011586,7.364009 8.51378616,7.39335985 8.60241329,7.39335985 L8.60241329,7.39335985 L10.7386813,7.39335985 C10.8273084,7.39335985 10.9009728,7.34904628 10.9596745,7.29034458 C11.0183762,7.23105946 11.0483017,7.14300986 11.033339,7.05438273 C11.0039911,6.61239625 10.6500483,5.80208769 9.66306299,5.80208769 Z M5.7144736,5.78711908 C4.71251971,5.78711908 4.3885112,6.61239625 4.34419764,7.03941412 C4.32923492,7.12804714 4.35916035,7.21667427 4.41786205,7.27537597 C4.47713244,7.34904039 4.56519088,7.37839124 4.6388553,7.37839124 L4.6388553,7.37839124 L6.7751233,7.37839124 C6.86375633,7.37839124 6.95238346,7.33407767 7.01108516,7.27537597 C7.06978685,7.21609085 7.09971228,7.12804125 7.08474957,7.03941412 C7.04043306,6.59742764 6.6870796,5.78711908 5.7144736,5.78711908 Z" id="Combined-Shape" fill="#FFFFFF"></path>
    </g>
</svg>