<?xml version="1.0" encoding="UTF-8"?>
<svg width="18px" height="18px" viewBox="0 0 18 18" version="1.1" xmlns="http://www.w3.org/2000/svg" xmlns:xlink="http://www.w3.org/1999/xlink">
    <title>map/map-pin-bienetre</title>
    <g id="map/map-pin-bienetre" stroke="none" stroke-width="1" fill="none" fill-rule="evenodd">
        <path d="M10.0438249,13.2330819 C9.86981001,13.2024113 9.69644372,13.1637405 9.52376018,13.1177354 C10.4465256,12.2029581 11.0852686,11.0215344 11.3439611,9.74804232 C12.9034726,8.45055175 15.061684,8.02325514 17,8.61990691 C16.28991,11.7262307 13.1889116,13.7905134 10.043842,13.2330512 L10.0438249,13.2330819 Z M7.95684095,13.2330819 C4.81177131,13.7904758 1.71073829,11.7262444 1,8.61925488 C2.93882824,8.02251778 5.09647641,8.44990143 6.65603905,9.7473903 C6.91406585,11.0175369 7.55147755,12.2076657 8.47624,13.1170834 C8.30422213,13.1637559 8.13087291,13.2017593 7.95684095,13.2330973 L7.95684095,13.2330819 Z M4.38112925,5.23812581 C5.29056404,5.44615852 6.12793499,5.85753008 6.83867362,6.42960299 C6.5733073,7.25569156 6.47529911,8.12646586 6.54797742,8.99126613 C5.83589037,8.49588267 5.03246897,8.14583878 4.18431063,7.96248733 C4.0436274,7.06037499 4.10630178,6.12965559 4.3809927,5.23812581 L4.38112925,5.23812581 Z M7.46748272,6.26091351 C7.79685648,5.41014367 8.31692121,4.63473192 9.00033292,4 C10.2364788,5.14813988 10.95384,6.79772259 10.9398437,8.48581217 C10.9265097,10.1406691 10.212429,11.7515572 9.00033292,12.8775761 C7.20539358,11.2100542 6.58341194,8.54777137 7.46748272,6.26074282 L7.46748272,6.26091351 Z M13.6195366,5.23809167 C13.8942395,6.12957024 13.9569156,7.06105773 13.8162187,7.96245319 C12.9681115,8.14580464 12.1646901,8.49651421 11.4525519,8.99123199 C11.5252268,8.12646586 11.4272152,7.25637431 11.1618557,6.42956885 C11.8719457,5.85683027 12.7100335,5.44612439 13.6194001,5.23809167 L13.6195366,5.23809167 Z" id="Fill-1" fill="#FFFFFF"></path>
    </g>
</svg>