<?xml version="1.0" encoding="UTF-8"?>
<svg width="18px" height="18px" viewBox="0 0 18 18" version="1.1" xmlns="http://www.w3.org/2000/svg" xmlns:xlink="http://www.w3.org/1999/xlink">
    <title>map/map-pin-education</title>
    <g id="map/map-pin-education" stroke="none" stroke-width="1" fill="none" fill-rule="evenodd">
        <path d="M8.61080286,4.42757447 L17,7.41967567 L15.6990793,7.85523967 L15.6991627,10.6684263 C15.8824524,10.7699723 16.006989,10.9647589 16.006989,11.1882877 C16.006989,11.5159131 15.7400362,11.7828658 15.4124108,11.7828658 C15.0847855,11.7828658 14.8178327,11.5159131 14.8178327,11.1882877 C14.8178327,10.9641213 14.9417283,10.769333 15.1250213,10.6677886 L15.1250213,10.6677886 L15.1250213,8.04681851 L13.60376,8.55582396 L13.60376,12.3922075 L13.4504845,12.4733151 C12.3807441,13.0372382 11.2432519,13.3884949 10.0687774,13.5168638 C9.72774552,13.5539049 9.38414682,13.5724255 9.03799761,13.5724255 C8.4306506,13.5724255 7.81754861,13.515582 7.20572188,13.4012638 C5.56890306,13.0959881 4.51257411,12.4937502 4.46850761,12.4682043 L4.46850761,12.4682043 L4.32481122,12.3851805 L4.32481122,8.66438715 L1,7.45286492 L8.61080286,4.42757447 Z M8.63261998,5.20728239 L3.10725541,7.39491426 L8.63261998,9.38966277 L14.7695454,7.39491426 L8.63261998,5.20728239 Z" id="Combined-Shape" fill="#FFFFFF"></path>
    </g>
</svg>