<?xml version="1.0" encoding="UTF-8"?>
<svg width="18px" height="18px" viewBox="0 0 18 18" version="1.1" xmlns="http://www.w3.org/2000/svg" xmlns:xlink="http://www.w3.org/1999/xlink">
    <title>map/map-pin-eau</title>
    <g id="map/map-pin-eau" stroke="none" stroke-width="1" fill="none" fill-rule="evenodd">
        <path d="M6.46251716,5.19203759 C6.46251716,5.19203759 7.09667498,6.18771727 7.82191016,7.47589637 C7.42332622,8.44219287 7.15556407,9.31809575 7.15556407,9.93033891 C7.15554654,11.6863172 8.15194502,13.2127175 9.60858654,13.9763121 C9.06212244,15.1699777 7.86095333,16 6.46251716,16 C4.55047135,16 3,14.4494936 3,12.5374828 C3,10.6254721 6.46251716,5.19203759 6.46251716,5.19203759 Z M11.722072,2.00017532 C13.0157385,4.10521043 15.4119757,8.33412727 15.4119757,9.93047917 C15.4119757,11.9651419 13.7566295,13.6203829 11.722072,13.6203829 C11.0474509,13.6203829 10.417413,13.4354757 9.87159759,13.1183968 C8.7731469,12.4786639 8.03146696,11.2905033 8.03146696,9.93042657 C8.03146696,9.56473217 8.15885252,9.05999359 8.36840932,8.47446879 C9.07388623,6.50618119 10.7249371,3.62305273 11.7220544,2 Z" id="Combined-Shape" fill="#FFFFFF"></path>
    </g>
</svg>